<svg width="197" height="48" viewBox="0 0 197 48" fill="none" xmlns="http://www.w3.org/2000/svg">
<path d="M47.8368 11.841C48.4834 10.5039 48.9253 9.07723 49.1477 7.60875C49.581 4.47838 47.54 1.34802 44.0553 2.11809C41.2192 2.74416 38.5095 4.3156 36.1667 5.99223C33.5985 7.83114 31.1373 9.81527 28.7954 11.9349C27.4497 13.1545 26.125 14.3925 24.8211 15.6488C24.8146 15.6555 24.811 15.6645 24.811 15.6738C24.811 15.6831 24.8146 15.6921 24.8211 15.6989C25.6667 16.8024 26.5624 17.863 27.5082 18.8806C27.5258 18.8982 27.5496 18.908 27.5745 18.908C27.5994 18.908 27.6233 18.8982 27.6409 18.8806C29.8947 16.7444 32.1574 14.6057 34.4288 12.4646C36.2056 10.7942 38.2979 9.0124 40.5317 7.78781C41.6061 7.19679 43.761 6.25768 43.7485 8.42765C43.7536 8.65922 43.7232 8.89021 43.6583 9.11258C43.1387 10.6765 42.2234 12.0301 41.1365 13.4951C40.366 14.5322 39.5396 15.5266 38.661 16.4739C36.7014 18.5838 34.9371 20.6561 32.8097 23.1379C32.7039 23.2575 32.6049 23.3829 32.513 23.5135C32.5017 23.527 32.4955 23.5441 32.4955 23.5617C32.4955 23.5793 32.5017 23.5964 32.513 23.6099C33.7044 24.9089 34.9766 26.1313 36.322 27.2699C36.3379 27.2834 36.3585 27.2902 36.3793 27.2888C36.4001 27.2874 36.4195 27.2779 36.4335 27.2624C37.6973 25.8884 38.9298 24.4889 40.131 23.064C41.258 21.7267 42.3699 20.2354 43.4718 18.8067C45.1534 16.628 46.6572 14.3315 47.828 11.8372" fill="white"/>
<path d="M23.4565 22.9011C26.0247 25.6859 28.6342 28.4281 31.2612 31.1553C33.4036 33.3791 35.541 35.4389 38.0566 37.3872C40.1477 39.0062 43.1515 40.912 45.8111 40.8745C47.35 40.8519 48.5809 39.8727 49.1368 38.4641C49.7879 36.815 49.5938 35.0257 49.0917 33.3829C47.9761 29.7366 46.1705 26.2744 43.9579 23.1403C43.9512 23.1304 43.9423 23.1221 43.9319 23.116C43.9215 23.1099 43.91 23.1062 43.898 23.1051C43.886 23.104 43.8739 23.1056 43.8627 23.1098C43.8514 23.1139 43.8412 23.1205 43.8327 23.129C43.0819 23.862 42.3781 24.6416 41.7254 25.463C41.7045 25.4892 41.6921 25.521 41.6899 25.5544C41.6877 25.5877 41.6957 25.6209 41.7128 25.6496C42.7822 27.4314 43.874 29.2145 44.7505 31.1002C45.2965 32.2822 46.0352 34.3382 45.2026 35.5428C44.0205 37.2507 40.9678 35.0307 39.8346 34.2055C37.7879 32.7193 35.8581 31.0783 34.0622 29.2971C31.2123 26.4635 28.4964 23.4784 25.7142 20.5571" fill="white"/>
<path d="M25.7177 20.5505C23.9496 18.8075 22.1449 17.0387 20.3034 15.2439C18.9494 13.9275 17.5545 12.6557 16.1187 11.4286C13.8649 9.50784 6.92421 4.09106 4.13944 7.64841C2.97369 9.13721 2.8322 11.1031 3.32053 12.8936C4.26966 16.3721 6.28812 19.7266 8.52195 22.5477C8.55951 22.5953 8.59833 22.5965 8.63715 22.5477L10.5592 20.3564C10.5723 20.3433 10.5796 20.3255 10.5796 20.307C10.5796 20.2884 10.5723 20.2707 10.5592 20.2575C9.90121 19.3515 9.29261 18.4106 8.73607 17.4389C7.82075 15.8687 6.99182 14.1057 6.90918 12.3289C6.88038 11.6653 7.0344 10.9215 7.6204 10.5647C9.63135 9.34131 14.8829 14.3687 16.3854 15.8237C18.7845 18.1418 21.1407 20.5038 23.4538 22.9096" fill="white"/>
<path d="M25.7177 20.5513C24.9117 21.2803 24.1585 22.0657 23.4639 22.9015Z" fill="white"/>
<path d="M27.7813 9.9288C27.9977 9.65866 28.1287 9.33017 28.1576 8.98525C28.1865 8.64033 28.1119 8.29463 27.9435 7.99225C27.775 7.68988 27.5203 7.44455 27.2118 7.28757C26.9033 7.13059 26.5551 7.06909 26.2115 7.1109C25.8679 7.15272 25.5446 7.29596 25.2827 7.52234C25.0209 7.74872 24.8325 8.04798 24.7415 8.38193C24.6505 8.71588 24.661 9.06937 24.7718 9.3973C24.8826 9.72522 25.0885 10.0127 25.3634 10.2231C25.7231 10.5045 26.1799 10.6316 26.6332 10.5764C27.0866 10.5213 27.4996 10.2883 27.7813 9.9288ZM51.8976 19.4589C51.8976 19.0004 51.7616 18.5523 51.5069 18.1711C51.2522 17.7899 50.8901 17.4929 50.4666 17.3175C50.043 17.1421 49.5769 17.0963 49.1273 17.1858C48.6776 17.2753 48.2647 17.4962 47.9406 17.8205C47.6165 18.1447 47.3958 18.5578 47.3066 19.0075C47.2173 19.4572 47.2633 19.9232 47.439 20.3467C47.6146 20.7702 47.9118 21.1321 48.2932 21.3866C48.6745 21.6411 49.1227 21.7769 49.5811 21.7766C49.8855 21.7766 50.1868 21.7167 50.4679 21.6002C50.749 21.4837 51.0045 21.3129 51.2196 21.0977C51.4347 20.8825 51.6053 20.6269 51.7216 20.3457C51.838 20.0646 51.8978 19.7632 51.8976 19.4589Z" fill="white"/>
<path d="M8.20737 36.8295C9.55718 33.9658 11.5143 31.5029 13.5641 28.9097C15.3229 26.68 17.111 24.4533 18.9282 22.2295C18.9536 22.1979 18.9663 22.158 18.964 22.1175C18.9617 22.077 18.9445 22.0389 18.9157 22.0103L15.6088 18.7147C15.6014 18.7072 15.5925 18.7012 15.5827 18.6971C15.5729 18.693 15.5624 18.6909 15.5518 18.6909C15.5412 18.6909 15.5307 18.693 15.521 18.6971C15.5112 18.7012 15.5023 18.7072 15.4949 18.7147C11.3903 23.131 -3.19718 39.156 4.30694 45.279C6.38926 46.9794 9.34557 46.6914 11.6946 45.7861C13.991 44.9046 16.2971 43.5986 18.6127 41.8681C22.2565 39.146 25.7274 36.1671 29.1094 33.1094C29.1159 33.1046 29.1212 33.0984 29.1248 33.0912C29.1284 33.084 29.1303 33.0761 29.1303 33.0681C29.1303 33.06 29.1284 33.0521 29.1248 33.0449C29.1212 33.0377 29.1159 33.0315 29.1094 33.0267C27.9291 31.7353 26.8022 30.3997 25.7287 29.0199C25.7199 29.0041 25.7074 28.9907 25.6922 28.9809C25.677 28.9712 25.6596 28.9654 25.6416 28.964C25.6236 28.9626 25.6055 28.9658 25.589 28.9731C25.5725 28.9805 25.5581 28.9918 25.5471 29.0061C24.0595 30.386 22.5415 31.7433 20.993 33.0781C19.1574 34.662 17.487 36.5177 15.456 37.865C14.6447 38.4034 13.635 39.0483 12.4271 39.7996C11.4617 40.4006 9.21911 41.6177 8.10094 40.8013C6.98277 39.9849 7.72529 37.835 8.20361 36.8295" fill="white"/>
<path d="M2.57433 25.3045C2.81105 25.1089 2.98419 24.8472 3.07168 24.5529C3.15916 24.2586 3.15704 23.9448 3.06558 23.6517C2.97412 23.3586 2.79746 23.0993 2.55812 22.907C2.31877 22.7146 2.02758 22.5978 1.72164 22.5716C1.4157 22.5453 1.10886 22.6107 0.840234 22.7595C0.571604 22.9082 0.353343 23.1336 0.213261 23.4069C0.0731782 23.6801 0.0176177 23.9889 0.0536586 24.2938C0.0896994 24.5988 0.215708 24.8861 0.415632 25.1191C0.545155 25.2731 0.703755 25.4001 0.882367 25.4927C1.06098 25.5854 1.2561 25.642 1.45658 25.6592C1.65706 25.6764 1.85896 25.6539 2.05075 25.593C2.24254 25.5322 2.42046 25.4341 2.57433 25.3045ZM30.1078 40.1324C30.107 39.7008 29.9784 39.2792 29.738 38.9207C29.4977 38.5623 29.1565 38.2832 28.7576 38.1186C28.3587 37.954 27.9199 37.9114 27.4967 37.9961C27.0736 38.0809 26.6851 38.2891 26.3803 38.5947C26.0755 38.9002 25.8681 39.2892 25.7843 39.7125C25.7005 40.1358 25.7442 40.5745 25.9096 40.9731C26.0751 41.3716 26.3551 41.7122 26.7141 41.9517C27.0731 42.1912 27.495 42.3189 27.9265 42.3186C28.5049 42.3183 29.0595 42.0884 29.4685 41.6794C29.8775 41.2704 30.1074 40.7158 30.1078 40.1374" fill="white"/>
<path d="M47.8372 11.841C46.6664 14.3353 45.1626 16.6317 43.481 18.8104C42.3791 20.2379 41.2647 21.7292 40.1402 23.0677C38.939 24.4927 37.7065 25.8922 36.4426 27.2662C36.4287 27.2817 36.4093 27.2912 36.3884 27.2926C36.3676 27.294 36.3471 27.2872 36.3312 27.2737C34.9858 26.1351 33.7136 24.9126 32.5222 23.6137C32.5109 23.6002 32.5047 23.5831 32.5047 23.5655C32.5047 23.5478 32.5109 23.5308 32.5222 23.5173C32.614 23.3866 32.7131 23.2612 32.8189 23.1416C34.9476 20.6599 36.7106 18.5876 38.6702 16.4777C39.5488 15.5304 40.3752 14.5359 41.1457 13.4988C42.2326 12.0351 43.1491 10.6815 43.6675 9.11633C43.7324 8.89397 43.7628 8.66298 43.7577 8.43141C43.7677 6.26645 41.6128 7.20055 40.5384 7.79156C38.3046 9.01867 36.2123 10.7967 34.4317 12.4733C32.1553 14.6137 29.8927 16.7523 27.6438 18.8893C27.6262 18.9069 27.6023 18.9168 27.5775 18.9168C27.5526 18.9168 27.5287 18.9069 27.5111 18.8893C26.5661 17.8718 25.6704 16.8112 24.824 15.7076C24.8175 15.7009 24.814 15.6919 24.814 15.6826C24.814 15.6733 24.8175 15.6643 24.824 15.6575C26.1279 14.3987 27.4522 13.1603 28.797 11.9424C31.139 9.82278 33.6001 7.83865 36.1684 5.99974C38.5099 4.3156 41.2196 2.75167 44.0557 2.11809C47.5404 1.34802 49.5814 4.47838 49.1482 7.60875C48.9258 9.07723 48.4838 10.5039 47.8372 11.841Z" fill="white"/>
<path d="M49.1337 38.4654C48.579 39.869 47.3482 40.8519 45.808 40.8745C43.1485 40.912 40.1458 39.0075 38.0547 37.3873C35.5392 35.4389 33.4018 33.3804 31.2581 31.1566C28.6311 28.4294 26.03 25.6776 23.4547 22.9012C21.1424 20.4962 18.7863 18.1343 16.3863 15.8153C14.8838 14.3665 9.63351 9.34043 7.62131 10.5625C7.03531 10.9194 6.88004 11.6632 6.91009 12.3268C6.99273 14.1049 7.82166 15.8679 8.73572 17.4368C9.29435 18.4091 9.9059 19.3501 10.5676 20.2554C10.5807 20.2685 10.588 20.2863 10.588 20.3049C10.588 20.3234 10.5807 20.3412 10.5676 20.3543L8.64557 22.5468C8.60675 22.5931 8.56793 22.5919 8.53037 22.5468C6.29654 19.7245 4.27307 16.37 3.32896 12.8915C2.83937 11.106 2.98211 9.13508 4.14661 7.65129C6.93263 4.09519 13.8758 9.51073 16.1259 11.4328C17.5625 12.6582 18.9566 13.93 20.3081 15.2481C22.1445 17.0428 23.9493 18.8117 25.7223 20.5547C28.5034 23.4747 31.2193 26.461 34.0704 29.2946C35.8638 31.0777 37.7915 32.7203 39.8365 34.2081C40.971 35.0345 44.0237 37.2545 45.2045 35.5453C46.0384 34.3408 45.2996 32.2898 44.7537 31.104C43.8772 29.2183 42.7903 27.4339 41.7273 25.6521C41.7101 25.6235 41.7021 25.5902 41.7044 25.5569C41.7066 25.5236 41.719 25.4917 41.7398 25.4656C42.3929 24.6448 43.0967 23.8657 43.8472 23.1328C43.8556 23.1243 43.8658 23.1177 43.8771 23.1135C43.8884 23.1094 43.9005 23.1078 43.9124 23.1089C43.9244 23.11 43.936 23.1137 43.9463 23.1198C43.9567 23.1259 43.9656 23.1342 43.9724 23.1441C46.1824 26.2745 47.988 29.7404 49.1062 33.3854C49.5945 35.027 49.7873 36.81 49.1337 38.4654Z" fill="white"/>
<path d="M27.7816 9.92896C27.5776 10.2086 27.2949 10.4211 26.9696 10.5393C26.6443 10.6576 26.2911 10.6762 25.9551 10.5929C25.6192 10.5095 25.3157 10.328 25.0834 10.0714C24.8511 9.81476 24.7005 9.49477 24.6508 9.15221C24.6012 8.80965 24.6547 8.46007 24.8046 8.14808C24.9545 7.83608 25.194 7.57583 25.4925 7.40053C25.7909 7.22523 26.1348 7.14284 26.4803 7.16386C26.8258 7.18489 27.1572 7.30838 27.4322 7.51858C27.798 7.79201 28.0403 8.19948 28.1058 8.65146C28.1713 9.10343 28.0547 9.56292 27.7816 9.92896Z" fill="white"/>
<path d="M51.8977 19.4586C51.8979 19.9171 51.7621 20.3653 51.5076 20.7467C51.253 21.128 50.891 21.4253 50.4675 21.6009C50.0439 21.7764 49.5778 21.8225 49.1281 21.7331C48.6784 21.6437 48.2653 21.4229 47.9411 21.0987C47.6168 20.7745 47.3961 20.3614 47.3067 19.9117C47.2173 19.462 47.2633 18.9958 47.4389 18.5723C47.6145 18.1487 47.9117 17.7868 48.2931 17.5322C48.6744 17.2776 49.1227 17.1418 49.5812 17.1421C50.1955 17.1424 50.7845 17.3866 51.2188 17.8209C51.6532 18.2553 51.8973 18.8443 51.8977 19.4586Z" fill="white"/>
<path d="M8.20701 36.8299C7.73245 37.8316 6.96989 39.9678 8.10433 40.8017C9.23878 41.6357 11.4651 40.4048 12.4305 39.8C13.6384 39.0487 14.6481 38.4039 15.4594 37.8654C17.4867 36.5181 19.1608 34.6625 20.9964 33.0785C22.5441 31.7429 24.0621 30.3855 25.5505 29.0065C25.5615 28.9922 25.5759 28.9809 25.5924 28.9735C25.6089 28.9662 25.627 28.9631 25.645 28.9644C25.663 28.9658 25.6804 28.9716 25.6956 28.9814C25.7108 28.9911 25.7233 29.0045 25.732 29.0203C26.8056 30.3976 27.9325 31.7333 29.1128 33.0272C29.1193 33.0319 29.1246 33.0382 29.1282 33.0453C29.1318 33.0525 29.1337 33.0604 29.1337 33.0685C29.1337 33.0765 29.1318 33.0844 29.1282 33.0916C29.1246 33.0988 29.1193 33.105 29.1128 33.1098C25.732 36.1675 22.2598 39.1464 18.6161 41.8686C16.298 43.5982 13.9907 44.9042 11.6942 45.7865C9.3402 46.6918 6.38389 46.9798 4.30657 45.2794C-3.19378 39.1564 11.3937 23.1314 15.4983 18.7176C15.5057 18.7101 15.5146 18.7041 15.5244 18.7C15.5341 18.6959 15.5446 18.6938 15.5552 18.6938C15.5658 18.6938 15.5763 18.6959 15.5861 18.7C15.5959 18.7041 15.6048 18.7101 15.6122 18.7176L18.9191 22.0133C18.9479 22.0418 18.9651 22.08 18.9674 22.1204C18.9697 22.1609 18.957 22.2008 18.9316 22.2324C17.1185 24.4554 15.3305 26.6821 13.5674 28.9126C11.5177 31.5058 9.56058 33.9688 8.21077 36.8324L8.20701 36.8299Z" fill="white"/>
<path d="M2.57438 25.3052C2.34497 25.5093 2.05996 25.6405 1.75569 25.6821C1.45142 25.7237 1.14167 25.6737 0.865909 25.5385C0.590146 25.4034 0.360863 25.1892 0.207281 24.9233C0.0536988 24.6574 -0.0172278 24.3517 0.00354145 24.0453C0.0243107 23.7389 0.135836 23.4457 0.323901 23.2029C0.511967 22.9601 0.768056 22.7788 1.05953 22.6822C1.35101 22.5855 1.66467 22.5778 1.96055 22.66C2.25643 22.7423 2.52112 22.9107 2.72089 23.144C2.98782 23.4501 3.12233 23.8497 3.09486 24.2549C3.06739 24.6601 2.88019 25.0379 2.57438 25.3052Z" fill="white"/>
<path d="M30.1081 40.1327C30.1081 40.5644 29.9801 40.9864 29.7402 41.3453C29.5004 41.7043 29.1594 41.984 28.7606 42.1492C28.3617 42.3143 27.9228 42.3575 27.4994 42.2731C27.076 42.1888 26.6871 41.9809 26.382 41.6755C26.0768 41.3701 25.869 40.9811 25.7849 40.5577C25.7009 40.1343 25.7443 39.6954 25.9097 39.2966C26.075 38.8978 26.355 38.5571 26.714 38.3174C27.0731 38.0777 27.4952 37.9499 27.9269 37.9502C28.2135 37.9502 28.4972 38.0067 28.7619 38.1164C29.0266 38.2261 29.2672 38.3868 29.4697 38.5895C29.6723 38.7922 29.8329 39.0328 29.9425 39.2976C30.052 39.5624 30.1083 39.8461 30.1081 40.1327Z" fill="white"/>
<path d="M94.4893 40.6874C94.4886 40.715 94.4751 40.7413 94.4516 40.7607C94.4281 40.78 94.3965 40.7909 94.3636 40.7909H64.6149C64.582 40.7909 64.5504 40.78 64.5269 40.7607C64.5034 40.7413 64.4899 40.715 64.4893 40.6874V39.4844C64.4893 39.4564 64.5025 39.4296 64.5261 39.4098C64.5496 39.39 64.5816 39.3789 64.6149 39.3789H94.3636C94.3969 39.3789 94.4289 39.39 94.4524 39.4098C94.476 39.4296 94.4893 39.4564 94.4893 39.4844V40.6874Z" fill="white"/>
<path d="M196.131 40.7211C196.131 40.7413 196.122 40.7606 196.104 40.7749C196.087 40.7892 196.064 40.7972 196.039 40.7972L166.223 40.7543C166.199 40.7543 166.175 40.7462 166.158 40.732C166.141 40.7177 166.131 40.6983 166.131 40.6781V39.4497C166.131 39.4295 166.141 39.4101 166.158 39.3958C166.175 39.3816 166.199 39.3735 166.223 39.3735L196.042 39.4184C196.054 39.4182 196.065 39.4199 196.076 39.4236C196.087 39.4272 196.097 39.4326 196.106 39.4396C196.114 39.4465 196.121 39.4548 196.125 39.4639C196.13 39.4731 196.132 39.4828 196.131 39.4927V40.7211Z" fill="white"/>
<path d="M67.6349 32H64.3344V9.92603H67.6349V32ZM79.6804 32H76.4363V20.4482L73.4038 20.5046V32H70.1738V17.7542H73.4038V18.2761C74.156 18.1538 74.9036 18.0363 75.6464 17.9234C76.568 17.773 77.3249 17.6978 77.9173 17.6978C79.0927 17.6978 79.6804 18.2761 79.6804 19.4326V32ZM88.2561 12.7329H85.8865V17.7542H87.9458V20.5046H85.8865V32H82.6847V20.5046H81.2178V17.7542H82.6847V11.6891C82.6847 10.5137 83.2818 9.92603 84.476 9.92603H88.2561V12.7329ZM92.7273 15.709H89.4973V12.3803H92.7273V15.709ZM92.6991 32H89.5255V17.7542H92.6991V32ZM104.618 32H101.374V20.4482L98.341 20.5046V32H95.111V17.7542H98.341V18.2761C99.0933 18.1538 99.8408 18.0363 100.584 17.9234C101.505 17.773 102.262 17.6978 102.855 17.6978C104.03 17.6978 104.618 18.2761 104.618 19.4326V32ZM110.217 15.709H106.987V12.3803H110.217V15.709ZM110.189 32H107.015V17.7542H110.189V32ZM118.751 32H115.168C113.974 32 113.377 31.4123 113.377 30.2369V20.5046H111.853V17.7542H113.377V13.8895H116.593V17.7542H118.666V20.5046H116.593V29.2496H118.751V32ZM129.766 30.2369C129.766 31.4123 129.16 32 127.947 32H122.376C121.163 32 120.556 31.4123 120.556 30.2369V19.5173C120.556 18.3419 121.163 17.7542 122.376 17.7542H127.947C129.16 17.7542 129.766 18.3419 129.766 19.5173V24.7501L128.878 25.6387H123.645V29.6304H126.678V27.2608H129.766V30.2369ZM126.678 23.5371V20.1238H123.645V23.5371H126.678ZM149.429 32H146.537L141.248 18.1068C141.389 18.7838 141.459 19.3151 141.459 19.7006V32H138.243V9.92603H141.135L146.424 23.5371C146.283 22.8601 146.213 22.3288 146.213 21.9433V9.92603H149.429V32ZM161.135 30.2369C161.135 31.4123 160.529 32 159.316 32H153.745C152.532 32 151.925 31.4123 151.925 30.2369V19.5173C151.925 18.3419 152.532 17.7542 153.745 17.7542H159.316C160.529 17.7542 161.135 18.3419 161.135 19.5173V24.7501L160.247 25.6387H155.014V29.6304H158.047V27.2608H161.135V30.2369ZM158.047 23.5371V20.1238H155.014V23.5371H158.047ZM173.026 32H169.528L167.821 27.5288L166.058 32H162.616V31.9436L166.058 24.6655L162.941 17.7542H166.27L167.821 21.8869L169.443 17.7542H172.701V17.8106L169.584 24.6373L173.026 32ZM183.943 32H180.727V31.5063C179.984 31.6286 179.237 31.7508 178.484 31.8731C177.572 32.0141 176.82 32.0846 176.228 32.0846C175.052 32.0846 174.464 31.4969 174.464 30.3215V17.7542H177.666V29.3201L180.727 29.2496V17.7542H183.943V32ZM195.241 30.2369C195.241 31.4123 194.644 32 193.449 32H188.019C186.825 32 186.228 31.4123 186.228 30.2369V27.1762H189.317V29.574H192.152V27.3172L187.201 24.3975C186.552 24.012 186.228 23.4948 186.228 22.846V19.5173C186.228 18.3419 186.834 17.7542 188.047 17.7542H193.421C194.615 17.7542 195.213 18.3419 195.213 19.5173V22.3805H192.152V20.1802H189.317V22.2395L194.253 25.131C194.912 25.5071 195.241 26.0337 195.241 26.7107V30.2369Z" fill="white"/>
<path d="M110.744 42.2979V37.2411H111.684V42.2979H110.744ZM114.077 42.2979V38.0357H112.401V37.2411H116.692V38.0357H115.016V42.2979H114.077ZM120.961 42.3701C120.566 42.3701 120.188 42.3147 119.827 42.2039C119.466 42.0884 119.179 41.9415 118.967 41.7633L119.292 41.0337C119.495 41.1926 119.745 41.325 120.044 41.431C120.342 41.5369 120.648 41.5899 120.961 41.5899C121.226 41.5899 121.44 41.561 121.604 41.5032C121.768 41.4454 121.888 41.3684 121.965 41.2721C122.042 41.1709 122.081 41.0577 122.081 40.9325C122.081 40.7784 122.025 40.6556 121.915 40.5641C121.804 40.4678 121.659 40.3931 121.481 40.3402C121.308 40.2824 121.113 40.2294 120.896 40.1812C120.684 40.1331 120.47 40.0777 120.253 40.0151C120.041 39.9477 119.846 39.8634 119.668 39.7623C119.495 39.6563 119.353 39.5166 119.242 39.3433C119.131 39.1699 119.076 38.9484 119.076 38.6787C119.076 38.4042 119.148 38.1537 119.292 37.9274C119.442 37.6962 119.666 37.5132 119.964 37.3784C120.268 37.2387 120.65 37.1689 121.113 37.1689C121.416 37.1689 121.717 37.2074 122.016 37.2844C122.314 37.3615 122.574 37.4723 122.796 37.6167L122.5 38.3464C122.273 38.2115 122.04 38.1128 121.799 38.0502C121.558 37.9828 121.327 37.949 121.106 37.949C120.845 37.949 120.634 37.9803 120.47 38.043C120.311 38.1056 120.193 38.1874 120.116 38.2886C120.044 38.3897 120.007 38.5053 120.007 38.6353C120.007 38.7894 120.06 38.9146 120.166 39.011C120.277 39.1025 120.419 39.1747 120.593 39.2277C120.771 39.2807 120.968 39.3336 121.185 39.3866C121.402 39.4348 121.616 39.4901 121.828 39.5528C122.045 39.6154 122.24 39.6972 122.413 39.7984C122.591 39.8995 122.733 40.0368 122.839 40.2101C122.95 40.3835 123.005 40.6026 123.005 40.8675C123.005 41.1372 122.931 41.3876 122.781 41.6188C122.637 41.8452 122.413 42.0282 122.11 42.1678C121.806 42.3027 121.423 42.3701 120.961 42.3701ZM125.584 42.3484C125.189 42.3484 124.837 42.2641 124.529 42.0956C124.221 41.9222 123.978 41.6862 123.799 41.3876C123.621 41.089 123.532 40.7495 123.532 40.3691C123.532 39.9838 123.621 39.6443 123.799 39.3505C123.978 39.0519 124.221 38.8183 124.529 38.6498C124.837 38.4812 125.189 38.3969 125.584 38.3969C125.983 38.3969 126.337 38.4812 126.646 38.6498C126.959 38.8183 127.202 39.0495 127.375 39.3433C127.553 39.637 127.642 39.979 127.642 40.3691C127.642 40.7495 127.553 41.089 127.375 41.3876C127.202 41.6862 126.959 41.9222 126.646 42.0956C126.337 42.2641 125.983 42.3484 125.584 42.3484ZM125.584 41.5755C125.805 41.5755 126.003 41.5273 126.176 41.431C126.349 41.3347 126.484 41.195 126.581 41.012C126.682 40.829 126.732 40.6147 126.732 40.3691C126.732 40.1186 126.682 39.9043 126.581 39.7261C126.484 39.5431 126.349 39.4035 126.176 39.3071C126.003 39.2108 125.808 39.1627 125.591 39.1627C125.369 39.1627 125.172 39.2108 124.999 39.3071C124.83 39.4035 124.695 39.5431 124.594 39.7261C124.493 39.9043 124.442 40.1186 124.442 40.3691C124.442 40.6147 124.493 40.829 124.594 41.012C124.695 41.195 124.83 41.3347 124.999 41.431C125.172 41.5273 125.367 41.5755 125.584 41.5755ZM128.506 42.2979V36.9377H129.409V42.2979H128.506ZM132.227 42.3484C131.899 42.3484 131.61 42.2882 131.36 42.1678C131.109 42.0426 130.914 41.8548 130.775 41.6044C130.635 41.3491 130.565 41.0288 130.565 40.6436V38.4403H131.468V40.5208C131.468 40.8675 131.545 41.1276 131.699 41.3009C131.858 41.4695 132.082 41.5538 132.371 41.5538C132.583 41.5538 132.766 41.5104 132.92 41.4238C133.079 41.3371 133.202 41.207 133.289 41.0337C133.38 40.8603 133.426 40.646 133.426 40.3907V38.4403H134.329V42.2979H133.469V41.2576L133.621 41.5755C133.491 41.8259 133.301 42.0185 133.05 42.1534C132.8 42.2834 132.525 42.3484 132.227 42.3484ZM136.963 42.3484C136.539 42.3484 136.212 42.2401 135.981 42.0233C135.75 41.8018 135.634 41.4767 135.634 41.0481V37.5878H136.537V41.0264C136.537 41.2094 136.583 41.3515 136.674 41.4527C136.771 41.5538 136.903 41.6044 137.072 41.6044C137.274 41.6044 137.442 41.5514 137.577 41.4454L137.83 42.0884C137.724 42.175 137.594 42.2401 137.44 42.2834C137.286 42.3267 137.127 42.3484 136.963 42.3484ZM134.998 39.1916V38.4692H137.57V39.1916H134.998ZM138.573 42.2979V38.4403H139.476V42.2979H138.573ZM139.028 37.8046C138.859 37.8046 138.72 37.7516 138.609 37.6456C138.503 37.5397 138.45 37.4121 138.45 37.2628C138.45 37.1087 138.503 36.981 138.609 36.8799C138.72 36.774 138.859 36.721 139.028 36.721C139.197 36.721 139.334 36.7715 139.44 36.8727C139.551 36.969 139.606 37.0918 139.606 37.2411C139.606 37.4 139.553 37.5349 139.447 37.6456C139.341 37.7516 139.201 37.8046 139.028 37.8046ZM142.395 42.3484C142 42.3484 141.648 42.2641 141.34 42.0956C141.032 41.9222 140.789 41.6862 140.611 41.3876C140.432 41.089 140.343 40.7495 140.343 40.3691C140.343 39.9838 140.432 39.6443 140.611 39.3505C140.789 39.0519 141.032 38.8183 141.34 38.6498C141.648 38.4812 142 38.3969 142.395 38.3969C142.795 38.3969 143.149 38.4812 143.457 38.6498C143.77 38.8183 144.013 39.0495 144.186 39.3433C144.365 39.637 144.454 39.979 144.454 40.3691C144.454 40.7495 144.365 41.089 144.186 41.3876C144.013 41.6862 143.77 41.9222 143.457 42.0956C143.149 42.2641 142.795 42.3484 142.395 42.3484ZM142.395 41.5755C142.616 41.5755 142.814 41.5273 142.987 41.431C143.161 41.3347 143.295 41.195 143.392 41.012C143.493 40.829 143.543 40.6147 143.543 40.3691C143.543 40.1186 143.493 39.9043 143.392 39.7261C143.295 39.5431 143.161 39.4035 142.987 39.3071C142.814 39.2108 142.619 39.1627 142.402 39.1627C142.181 39.1627 141.983 39.2108 141.81 39.3071C141.641 39.4035 141.506 39.5431 141.405 39.7261C141.304 39.9043 141.253 40.1186 141.253 40.3691C141.253 40.6147 141.304 40.829 141.405 41.012C141.506 41.195 141.641 41.3347 141.81 41.431C141.983 41.5273 142.178 41.5755 142.395 41.5755ZM147.506 38.3969C147.814 38.3969 148.089 38.4571 148.33 38.5775C148.575 38.6979 148.768 38.8833 148.907 39.1338C149.047 39.3794 149.117 39.6972 149.117 40.0873V42.2979H148.214V40.2029C148.214 39.861 148.132 39.6057 147.968 39.4372C147.809 39.2686 147.585 39.1843 147.297 39.1843C147.085 39.1843 146.897 39.2277 146.733 39.3144C146.569 39.4011 146.442 39.5311 146.35 39.7045C146.263 39.873 146.22 40.0873 146.22 40.3474V42.2979H145.317V38.4403H146.177V39.4805L146.025 39.1627C146.16 38.9171 146.355 38.7292 146.61 38.5992C146.87 38.4644 147.169 38.3969 147.506 38.3969ZM151.454 42.3484C151.132 42.3484 150.821 42.3075 150.523 42.2256C150.229 42.1389 149.995 42.0354 149.822 41.915L150.169 41.2287C150.342 41.3395 150.549 41.431 150.79 41.5032C151.031 41.5755 151.271 41.6116 151.512 41.6116C151.796 41.6116 152.001 41.5731 152.126 41.496C152.256 41.4189 152.321 41.3154 152.321 41.1854C152.321 41.0794 152.278 41 152.191 40.947C152.105 40.8892 151.991 40.8458 151.852 40.8169C151.712 40.788 151.556 40.7616 151.382 40.7375C151.214 40.7134 151.043 40.6821 150.869 40.6436C150.701 40.6002 150.547 40.54 150.407 40.463C150.267 40.3811 150.154 40.2727 150.067 40.1379C149.981 40.003 149.937 39.8249 149.937 39.6033C149.937 39.3577 150.007 39.1458 150.147 38.9676C150.287 38.7846 150.482 38.6449 150.732 38.5486C150.987 38.4475 151.288 38.3969 151.635 38.3969C151.895 38.3969 152.158 38.4258 152.422 38.4836C152.687 38.5414 152.906 38.6233 153.08 38.7292L152.733 39.4155C152.55 39.3047 152.365 39.2301 152.177 39.1916C151.994 39.1482 151.811 39.1265 151.628 39.1265C151.353 39.1265 151.149 39.1675 151.014 39.2494C150.884 39.3312 150.819 39.4348 150.819 39.56C150.819 39.6756 150.862 39.7623 150.949 39.82C151.035 39.8778 151.149 39.9236 151.288 39.9573C151.428 39.991 151.582 40.0199 151.751 40.044C151.924 40.0632 152.095 40.0946 152.263 40.1379C152.432 40.1812 152.586 40.2414 152.726 40.3185C152.87 40.3907 152.986 40.4943 153.073 40.6291C153.159 40.764 153.203 40.9398 153.203 41.1565C153.203 41.3973 153.13 41.6068 152.986 41.785C152.846 41.9631 152.646 42.1028 152.386 42.2039C152.126 42.3003 151.816 42.3484 151.454 42.3484Z" fill="white"/>
</svg>
