<svg width="197" height="48" viewBox="0 0 197 48" fill="none" xmlns="http://www.w3.org/2000/svg">
<g clip-path="url(#clip0_102_6)">
<path d="M47.8372 11.841C46.6664 14.3353 45.1626 16.6317 43.481 18.8104C42.3791 20.2379 41.2647 21.7292 40.1402 23.0677C38.939 24.4927 37.7065 25.8922 36.4426 27.2662C36.4287 27.2817 36.4093 27.2912 36.3884 27.2926C36.3676 27.294 36.3471 27.2872 36.3312 27.2737C34.9858 26.1351 33.7136 24.9126 32.5222 23.6137C32.5109 23.6002 32.5047 23.5831 32.5047 23.5655C32.5047 23.5478 32.5109 23.5308 32.5222 23.5173C32.614 23.3866 32.7131 23.2612 32.8189 23.1416C34.9476 20.6599 36.7106 18.5876 38.6702 16.4777C39.5488 15.5304 40.3752 14.5359 41.1457 13.4988C42.2326 12.0351 43.1491 10.6815 43.6675 9.11633C43.7324 8.89397 43.7628 8.66298 43.7577 8.43141C43.7677 6.26645 41.6128 7.20055 40.5384 7.79156C38.3046 9.01867 36.2123 10.7967 34.4317 12.4733C32.1553 14.6137 29.8927 16.7523 27.6438 18.8893C27.6262 18.9069 27.6023 18.9168 27.5775 18.9168C27.5526 18.9168 27.5287 18.9069 27.5111 18.8893C26.5661 17.8718 25.6704 16.8112 24.824 15.7076C24.8175 15.7009 24.814 15.6919 24.814 15.6826C24.814 15.6733 24.8175 15.6643 24.824 15.6575C26.1279 14.3987 27.4522 13.1603 28.797 11.9424C31.139 9.82278 33.6001 7.83865 36.1684 5.99974C38.5099 4.3156 41.2196 2.75167 44.0557 2.11809C47.5404 1.34802 49.5814 4.47838 49.1482 7.60875C48.9258 9.07723 48.4838 10.5039 47.8372 11.841Z" fill="#26343D"/>
<path d="M49.1337 38.4654C48.579 39.869 47.3482 40.8519 45.808 40.8745C43.1485 40.912 40.1458 39.0075 38.0547 37.3873C35.5392 35.4389 33.4018 33.3804 31.2581 31.1566C28.6311 28.4294 26.03 25.6776 23.4547 22.9012C21.1424 20.4962 18.7863 18.1343 16.3863 15.8153C14.8838 14.3665 9.63351 9.34043 7.62131 10.5625C7.03531 10.9194 6.88004 11.6632 6.91009 12.3268C6.99273 14.1049 7.82166 15.8679 8.73572 17.4368C9.29435 18.4091 9.9059 19.3501 10.5676 20.2554C10.5807 20.2685 10.588 20.2863 10.588 20.3049C10.588 20.3234 10.5807 20.3412 10.5676 20.3543L8.64557 22.5468C8.60675 22.5931 8.56793 22.5919 8.53037 22.5468C6.29654 19.7245 4.27307 16.37 3.32896 12.8915C2.83937 11.106 2.98211 9.13508 4.14661 7.65129C6.93263 4.09519 13.8758 9.51073 16.1259 11.4328C17.5625 12.6582 18.9566 13.93 20.3081 15.2481C22.1445 17.0428 23.9493 18.8117 25.7223 20.5547C28.5034 23.4747 31.2193 26.461 34.0704 29.2946C35.8638 31.0777 37.7915 32.7203 39.8365 34.2081C40.971 35.0345 44.0237 37.2545 45.2045 35.5453C46.0384 34.3408 45.2996 32.2898 44.7537 31.104C43.8772 29.2183 42.7903 27.4339 41.7273 25.6521C41.7101 25.6235 41.7021 25.5902 41.7044 25.5569C41.7066 25.5236 41.719 25.4917 41.7398 25.4656C42.3929 24.6448 43.0967 23.8657 43.8472 23.1328C43.8556 23.1243 43.8658 23.1177 43.8771 23.1135C43.8884 23.1094 43.9005 23.1078 43.9124 23.1089C43.9244 23.11 43.936 23.1137 43.9463 23.1198C43.9567 23.1259 43.9656 23.1342 43.9724 23.1441C46.1824 26.2745 47.988 29.7404 49.1062 33.3854C49.5945 35.027 49.7873 36.81 49.1337 38.4654Z" fill="url(#paint0_linear_102_6)"/>
<path d="M27.7816 9.92896C27.5776 10.2086 27.2949 10.4211 26.9696 10.5393C26.6443 10.6576 26.2911 10.6762 25.9551 10.5929C25.6192 10.5095 25.3157 10.328 25.0834 10.0714C24.8511 9.81476 24.7005 9.49477 24.6508 9.15221C24.6012 8.80965 24.6547 8.46007 24.8046 8.14808C24.9545 7.83608 25.194 7.57583 25.4925 7.40053C25.7909 7.22523 26.1348 7.14284 26.4803 7.16386C26.8258 7.18489 27.1572 7.30838 27.4322 7.51858C27.798 7.79201 28.0403 8.19948 28.1058 8.65146C28.1713 9.10343 28.0547 9.56292 27.7816 9.92896Z" fill="#258CBE"/>
<path d="M51.8977 19.4586C51.8979 19.9171 51.7621 20.3653 51.5076 20.7467C51.253 21.128 50.891 21.4253 50.4675 21.6009C50.0439 21.7764 49.5778 21.8225 49.1281 21.7331C48.6784 21.6437 48.2653 21.4229 47.9411 21.0987C47.6168 20.7745 47.3961 20.3614 47.3067 19.9117C47.2173 19.462 47.2633 18.9958 47.4389 18.5723C47.6145 18.1487 47.9117 17.7868 48.2931 17.5322C48.6744 17.2776 49.1227 17.1418 49.5812 17.1421C50.1955 17.1424 50.7845 17.3866 51.2188 17.8209C51.6532 18.2553 51.8973 18.8443 51.8977 19.4586Z" fill="#258CBE"/>
<path d="M8.20701 36.8299C7.73245 37.8316 6.96989 39.9678 8.10433 40.8017C9.23878 41.6357 11.4651 40.4048 12.4305 39.8C13.6384 39.0487 14.6481 38.4039 15.4594 37.8654C17.4867 36.5181 19.1608 34.6625 20.9964 33.0785C22.5441 31.7429 24.0621 30.3855 25.5505 29.0065C25.5615 28.9922 25.5759 28.9809 25.5924 28.9735C25.6089 28.9662 25.627 28.9631 25.645 28.9644C25.663 28.9658 25.6804 28.9716 25.6956 28.9814C25.7108 28.9911 25.7233 29.0045 25.732 29.0203C26.8056 30.3976 27.9325 31.7333 29.1128 33.0272C29.1193 33.0319 29.1246 33.0382 29.1282 33.0453C29.1318 33.0525 29.1337 33.0604 29.1337 33.0685C29.1337 33.0765 29.1318 33.0844 29.1282 33.0916C29.1246 33.0988 29.1193 33.105 29.1128 33.1098C25.732 36.1675 22.2598 39.1464 18.6161 41.8686C16.298 43.5982 13.9907 44.9042 11.6942 45.7865C9.3402 46.6918 6.38389 46.9798 4.30657 45.2794C-3.19378 39.1564 11.3937 23.1314 15.4983 18.7176C15.5057 18.7101 15.5146 18.7041 15.5244 18.7C15.5341 18.6959 15.5446 18.6938 15.5552 18.6938C15.5658 18.6938 15.5763 18.6959 15.5861 18.7C15.5959 18.7041 15.6048 18.7101 15.6122 18.7176L18.9191 22.0133C18.9479 22.0418 18.9651 22.08 18.9674 22.1204C18.9697 22.1609 18.957 22.2008 18.9316 22.2324C17.1185 24.4554 15.3305 26.6821 13.5674 28.9126C11.5177 31.5058 9.56058 33.9688 8.21077 36.8324L8.20701 36.8299Z" fill="#26343D"/>
<path d="M2.57438 25.3052C2.34497 25.5093 2.05996 25.6405 1.75569 25.6821C1.45142 25.7237 1.14167 25.6737 0.865909 25.5385C0.590146 25.4034 0.360863 25.1892 0.207281 24.9233C0.0536988 24.6574 -0.0172278 24.3517 0.00354145 24.0453C0.0243107 23.7389 0.135836 23.4457 0.323901 23.2029C0.511967 22.9601 0.768056 22.7788 1.05953 22.6822C1.35101 22.5855 1.66467 22.5778 1.96055 22.66C2.25643 22.7423 2.52112 22.9107 2.72089 23.144C2.98782 23.4501 3.12233 23.8497 3.09486 24.2549C3.06739 24.6601 2.88019 25.0379 2.57438 25.3052Z" fill="#258CBE"/>
<path d="M30.1081 40.1327C30.1081 40.5644 29.9801 40.9864 29.7402 41.3453C29.5004 41.7043 29.1594 41.984 28.7606 42.1492C28.3617 42.3143 27.9228 42.3575 27.4994 42.2731C27.076 42.1888 26.6871 41.9809 26.382 41.6755C26.0768 41.3701 25.869 40.9811 25.7849 40.5577C25.7009 40.1343 25.7443 39.6954 25.9097 39.2966C26.075 38.8978 26.355 38.5571 26.714 38.3174C27.0731 38.0777 27.4952 37.9499 27.9269 37.9502C28.2135 37.9502 28.4972 38.0067 28.7619 38.1164C29.0266 38.2261 29.2672 38.3868 29.4697 38.5895C29.6723 38.7922 29.8329 39.0328 29.9425 39.2976C30.052 39.5624 30.1083 39.8461 30.1081 40.1327Z" fill="#258CBE"/>
<path d="M93.4893 40.6874C93.4886 40.715 93.4751 40.7413 93.4516 40.7607C93.4281 40.78 93.3965 40.7909 93.3636 40.7909H63.6149C63.582 40.7909 63.5504 40.78 63.5269 40.7607C63.5034 40.7413 63.4899 40.715 63.4893 40.6874V39.4844C63.4893 39.4564 63.5025 39.4296 63.5261 39.4098C63.5496 39.39 63.5816 39.3789 63.6149 39.3789H93.3636C93.3969 39.3789 93.4289 39.39 93.4524 39.4098C93.476 39.4296 93.4893 39.4564 93.4893 39.4844V40.6874Z" fill="#26343D"/>
<path d="M197.131 40.7211C197.131 40.7413 197.122 40.7606 197.104 40.7749C197.087 40.7892 197.064 40.7972 197.039 40.7972L167.223 40.7543C167.199 40.7543 167.175 40.7462 167.158 40.732C167.141 40.7177 167.131 40.6983 167.131 40.6781V39.4497C167.131 39.4295 167.141 39.4101 167.158 39.3958C167.175 39.3816 167.199 39.3735 167.223 39.3735L197.042 39.4184C197.054 39.4182 197.065 39.4199 197.076 39.4236C197.087 39.4272 197.097 39.4326 197.106 39.4396C197.114 39.4465 197.121 39.4548 197.125 39.4639C197.13 39.4731 197.132 39.4828 197.131 39.4927V40.7211Z" fill="#26343D"/>
<path d="M67.6349 32H64.3344V9.92603H67.6349V32ZM79.6804 32H76.4363V20.4482L73.4038 20.5046V32H70.1738V17.7542H73.4038V18.2761C74.156 18.1538 74.9036 18.0363 75.6464 17.9234C76.568 17.773 77.3249 17.6978 77.9173 17.6978C79.0927 17.6978 79.6804 18.2761 79.6804 19.4326V32ZM88.2561 12.7329H85.8865V17.7542H87.9458V20.5046H85.8865V32H82.6847V20.5046H81.2178V17.7542H82.6847V11.6891C82.6847 10.5137 83.2818 9.92603 84.476 9.92603H88.2561V12.7329ZM92.7273 15.709H89.4973V12.3803H92.7273V15.709ZM92.6991 32H89.5255V17.7542H92.6991V32ZM104.618 32H101.374V20.4482L98.341 20.5046V32H95.111V17.7542H98.341V18.2761C99.0933 18.1538 99.8408 18.0363 100.584 17.9234C101.505 17.773 102.262 17.6978 102.855 17.6978C104.03 17.6978 104.618 18.2761 104.618 19.4326V32ZM110.217 15.709H106.987V12.3803H110.217V15.709ZM110.189 32H107.015V17.7542H110.189V32ZM118.751 32H115.168C113.974 32 113.377 31.4123 113.377 30.2369V20.5046H111.853V17.7542H113.377V13.8895H116.593V17.7542H118.666V20.5046H116.593V29.2496H118.751V32ZM129.766 30.2369C129.766 31.4123 129.16 32 127.947 32H122.376C121.163 32 120.556 31.4123 120.556 30.2369V19.5173C120.556 18.3419 121.163 17.7542 122.376 17.7542H127.947C129.16 17.7542 129.766 18.3419 129.766 19.5173V24.7501L128.878 25.6387H123.645V29.6304H126.678V27.2608H129.766V30.2369ZM126.678 23.5371V20.1238H123.645V23.5371H126.678ZM149.429 32H146.537L141.248 18.1068C141.389 18.7838 141.459 19.3151 141.459 19.7006V32H138.243V9.92603H141.135L146.424 23.5371C146.283 22.8601 146.213 22.3288 146.213 21.9433V9.92603H149.429V32ZM161.135 30.2369C161.135 31.4123 160.529 32 159.316 32H153.745C152.532 32 151.925 31.4123 151.925 30.2369V19.5173C151.925 18.3419 152.532 17.7542 153.745 17.7542H159.316C160.529 17.7542 161.135 18.3419 161.135 19.5173V24.7501L160.247 25.6387H155.014V29.6304H158.047V27.2608H161.135V30.2369ZM158.047 23.5371V20.1238H155.014V23.5371H158.047ZM173.026 32H169.528L167.821 27.5288L166.058 32H162.616V31.9436L166.058 24.6655L162.941 17.7542H166.27L167.821 21.8869L169.443 17.7542H172.701V17.8106L169.584 24.6373L173.026 32ZM183.943 32H180.727V31.5063C179.984 31.6286 179.237 31.7508 178.484 31.8731C177.572 32.0141 176.82 32.0846 176.228 32.0846C175.052 32.0846 174.464 31.4969 174.464 30.3215V17.7542H177.666V29.3201L180.727 29.2496V17.7542H183.943V32ZM195.241 30.2369C195.241 31.4123 194.644 32 193.449 32H188.019C186.825 32 186.228 31.4123 186.228 30.2369V27.1762H189.317V29.574H192.152V27.3172L187.201 24.3975C186.552 24.012 186.228 23.4948 186.228 22.846V19.5173C186.228 18.3419 186.834 17.7542 188.047 17.7542H193.421C194.615 17.7542 195.213 18.3419 195.213 19.5173V22.3805H192.152V20.1802H189.317V22.2395L194.253 25.131C194.912 25.5071 195.241 26.0337 195.241 26.7107V30.2369Z" fill="#26343D"/>
<path d="M109.744 42.2979V37.2411H110.684V42.2979H109.744ZM113.077 42.2979V38.0357H111.401V37.2411H115.692V38.0357H114.016V42.2979H113.077ZM119.961 42.3701C119.566 42.3701 119.188 42.3147 118.827 42.2039C118.466 42.0884 118.179 41.9415 117.967 41.7633L118.292 41.0337C118.495 41.1926 118.745 41.325 119.044 41.431C119.342 41.5369 119.648 41.5899 119.961 41.5899C120.226 41.5899 120.44 41.561 120.604 41.5032C120.768 41.4454 120.888 41.3684 120.965 41.2721C121.042 41.1709 121.081 41.0577 121.081 40.9325C121.081 40.7784 121.025 40.6556 120.915 40.5641C120.804 40.4678 120.659 40.3931 120.481 40.3402C120.308 40.2824 120.113 40.2294 119.896 40.1812C119.684 40.1331 119.47 40.0777 119.253 40.0151C119.041 39.9477 118.846 39.8634 118.668 39.7623C118.495 39.6563 118.353 39.5166 118.242 39.3433C118.131 39.1699 118.076 38.9484 118.076 38.6787C118.076 38.4042 118.148 38.1537 118.292 37.9274C118.442 37.6962 118.666 37.5132 118.964 37.3784C119.268 37.2387 119.65 37.1689 120.113 37.1689C120.416 37.1689 120.717 37.2074 121.016 37.2844C121.314 37.3615 121.574 37.4723 121.796 37.6167L121.5 38.3464C121.273 38.2115 121.04 38.1128 120.799 38.0502C120.558 37.9828 120.327 37.949 120.106 37.949C119.845 37.949 119.634 37.9803 119.47 38.043C119.311 38.1056 119.193 38.1874 119.116 38.2886C119.044 38.3897 119.007 38.5053 119.007 38.6353C119.007 38.7894 119.06 38.9146 119.166 39.011C119.277 39.1025 119.419 39.1747 119.593 39.2277C119.771 39.2807 119.968 39.3336 120.185 39.3866C120.402 39.4348 120.616 39.4901 120.828 39.5528C121.045 39.6154 121.24 39.6972 121.413 39.7984C121.591 39.8995 121.733 40.0368 121.839 40.2101C121.95 40.3835 122.005 40.6026 122.005 40.8675C122.005 41.1372 121.931 41.3876 121.781 41.6188C121.637 41.8452 121.413 42.0282 121.11 42.1678C120.806 42.3027 120.423 42.3701 119.961 42.3701ZM124.584 42.3484C124.189 42.3484 123.837 42.2641 123.529 42.0956C123.221 41.9222 122.978 41.6862 122.799 41.3876C122.621 41.089 122.532 40.7495 122.532 40.3691C122.532 39.9838 122.621 39.6443 122.799 39.3505C122.978 39.0519 123.221 38.8183 123.529 38.6498C123.837 38.4812 124.189 38.3969 124.584 38.3969C124.983 38.3969 125.337 38.4812 125.646 38.6498C125.959 38.8183 126.202 39.0495 126.375 39.3433C126.553 39.637 126.642 39.979 126.642 40.3691C126.642 40.7495 126.553 41.089 126.375 41.3876C126.202 41.6862 125.959 41.9222 125.646 42.0956C125.337 42.2641 124.983 42.3484 124.584 42.3484ZM124.584 41.5755C124.805 41.5755 125.003 41.5273 125.176 41.431C125.349 41.3347 125.484 41.195 125.581 41.012C125.682 40.829 125.732 40.6147 125.732 40.3691C125.732 40.1186 125.682 39.9043 125.581 39.7261C125.484 39.5431 125.349 39.4035 125.176 39.3071C125.003 39.2108 124.808 39.1627 124.591 39.1627C124.369 39.1627 124.172 39.2108 123.999 39.3071C123.83 39.4035 123.695 39.5431 123.594 39.7261C123.493 39.9043 123.442 40.1186 123.442 40.3691C123.442 40.6147 123.493 40.829 123.594 41.012C123.695 41.195 123.83 41.3347 123.999 41.431C124.172 41.5273 124.367 41.5755 124.584 41.5755ZM127.506 42.2979V36.9377H128.409V42.2979H127.506ZM131.227 42.3484C130.899 42.3484 130.61 42.2882 130.36 42.1678C130.109 42.0426 129.914 41.8548 129.775 41.6044C129.635 41.3491 129.565 41.0288 129.565 40.6436V38.4403H130.468V40.5208C130.468 40.8675 130.545 41.1276 130.699 41.3009C130.858 41.4695 131.082 41.5538 131.371 41.5538C131.583 41.5538 131.766 41.5104 131.92 41.4238C132.079 41.3371 132.202 41.207 132.289 41.0337C132.38 40.8603 132.426 40.646 132.426 40.3907V38.4403H133.329V42.2979H132.469V41.2576L132.621 41.5755C132.491 41.8259 132.301 42.0185 132.05 42.1534C131.8 42.2834 131.525 42.3484 131.227 42.3484ZM135.963 42.3484C135.539 42.3484 135.212 42.2401 134.981 42.0233C134.75 41.8018 134.634 41.4767 134.634 41.0481V37.5878H135.537V41.0264C135.537 41.2094 135.583 41.3515 135.674 41.4527C135.771 41.5538 135.903 41.6044 136.072 41.6044C136.274 41.6044 136.442 41.5514 136.577 41.4454L136.83 42.0884C136.724 42.175 136.594 42.2401 136.44 42.2834C136.286 42.3267 136.127 42.3484 135.963 42.3484ZM133.998 39.1916V38.4692H136.57V39.1916H133.998ZM137.573 42.2979V38.4403H138.476V42.2979H137.573ZM138.028 37.8046C137.859 37.8046 137.72 37.7516 137.609 37.6456C137.503 37.5397 137.45 37.4121 137.45 37.2628C137.45 37.1087 137.503 36.981 137.609 36.8799C137.72 36.774 137.859 36.721 138.028 36.721C138.197 36.721 138.334 36.7715 138.44 36.8727C138.551 36.969 138.606 37.0918 138.606 37.2411C138.606 37.4 138.553 37.5349 138.447 37.6456C138.341 37.7516 138.201 37.8046 138.028 37.8046ZM141.395 42.3484C141 42.3484 140.648 42.2641 140.34 42.0956C140.032 41.9222 139.789 41.6862 139.611 41.3876C139.432 41.089 139.343 40.7495 139.343 40.3691C139.343 39.9838 139.432 39.6443 139.611 39.3505C139.789 39.0519 140.032 38.8183 140.34 38.6498C140.648 38.4812 141 38.3969 141.395 38.3969C141.795 38.3969 142.149 38.4812 142.457 38.6498C142.77 38.8183 143.013 39.0495 143.186 39.3433C143.365 39.637 143.454 39.979 143.454 40.3691C143.454 40.7495 143.365 41.089 143.186 41.3876C143.013 41.6862 142.77 41.9222 142.457 42.0956C142.149 42.2641 141.795 42.3484 141.395 42.3484ZM141.395 41.5755C141.616 41.5755 141.814 41.5273 141.987 41.431C142.161 41.3347 142.295 41.195 142.392 41.012C142.493 40.829 142.543 40.6147 142.543 40.3691C142.543 40.1186 142.493 39.9043 142.392 39.7261C142.295 39.5431 142.161 39.4035 141.987 39.3071C141.814 39.2108 141.619 39.1627 141.402 39.1627C141.181 39.1627 140.983 39.2108 140.81 39.3071C140.641 39.4035 140.506 39.5431 140.405 39.7261C140.304 39.9043 140.253 40.1186 140.253 40.3691C140.253 40.6147 140.304 40.829 140.405 41.012C140.506 41.195 140.641 41.3347 140.81 41.431C140.983 41.5273 141.178 41.5755 141.395 41.5755ZM146.506 38.3969C146.814 38.3969 147.089 38.4571 147.33 38.5775C147.575 38.6979 147.768 38.8833 147.907 39.1338C148.047 39.3794 148.117 39.6972 148.117 40.0873V42.2979H147.214V40.2029C147.214 39.861 147.132 39.6057 146.968 39.4372C146.809 39.2686 146.585 39.1843 146.297 39.1843C146.085 39.1843 145.897 39.2277 145.733 39.3144C145.569 39.4011 145.442 39.5311 145.35 39.7045C145.263 39.873 145.22 40.0873 145.22 40.3474V42.2979H144.317V38.4403H145.177V39.4805L145.025 39.1627C145.16 38.9171 145.355 38.7292 145.61 38.5992C145.87 38.4644 146.169 38.3969 146.506 38.3969ZM150.454 42.3484C150.132 42.3484 149.821 42.3075 149.523 42.2256C149.229 42.1389 148.995 42.0354 148.822 41.915L149.169 41.2287C149.342 41.3395 149.549 41.431 149.79 41.5032C150.031 41.5755 150.271 41.6116 150.512 41.6116C150.796 41.6116 151.001 41.5731 151.126 41.496C151.256 41.4189 151.321 41.3154 151.321 41.1854C151.321 41.0794 151.278 41 151.191 40.947C151.105 40.8892 150.991 40.8458 150.852 40.8169C150.712 40.788 150.556 40.7616 150.382 40.7375C150.214 40.7134 150.043 40.6821 149.869 40.6436C149.701 40.6002 149.547 40.54 149.407 40.463C149.267 40.3811 149.154 40.2727 149.067 40.1379C148.981 40.003 148.937 39.8249 148.937 39.6033C148.937 39.3577 149.007 39.1458 149.147 38.9676C149.287 38.7846 149.482 38.6449 149.732 38.5486C149.987 38.4475 150.288 38.3969 150.635 38.3969C150.895 38.3969 151.158 38.4258 151.422 38.4836C151.687 38.5414 151.906 38.6233 152.08 38.7292L151.733 39.4155C151.55 39.3047 151.365 39.2301 151.177 39.1916C150.994 39.1482 150.811 39.1265 150.628 39.1265C150.353 39.1265 150.149 39.1675 150.014 39.2494C149.884 39.3312 149.819 39.4348 149.819 39.56C149.819 39.6756 149.862 39.7623 149.949 39.82C150.035 39.8778 150.149 39.9236 150.288 39.9573C150.428 39.991 150.582 40.0199 150.751 40.044C150.924 40.0632 151.095 40.0946 151.263 40.1379C151.432 40.1812 151.586 40.2414 151.726 40.3185C151.87 40.3907 151.986 40.4943 152.073 40.6291C152.159 40.764 152.203 40.9398 152.203 41.1565C152.203 41.3973 152.13 41.6068 151.986 41.785C151.846 41.9631 151.646 42.1028 151.386 42.2039C151.126 42.3003 150.816 42.3484 150.454 42.3484Z" fill="#26343D"/>
</g>
<defs>
<linearGradient id="paint0_linear_102_6" x1="2.27715" y1="23.6712" x2="52.5258" y2="23.6712" gradientUnits="userSpaceOnUse">
<stop stop-color="#26343D"/>
<stop offset="0.32" stop-color="#264E63"/>
<stop offset="1" stop-color="#258CBE"/>
</linearGradient>
<clipPath id="clip0_102_6">
<rect width="197" height="48" fill="white"/>
</clipPath>
</defs>
</svg>
