<?xml version="1.0" encoding="utf-8"?>
<!-- Generator: Adobe Illustrator 24.3.0, SVG Export Plug-In . SVG Version: 6.00 Build 0)  -->
<svg version="1.1" id="Layer_1" xmlns="http://www.w3.org/2000/svg" xmlns:xlink="http://www.w3.org/1999/xlink" x="0px" y="0px"
	 viewBox="0 0 32 32" style="enable-background:new 0 0 32 32;" xml:space="preserve">
<style type="text/css">
	.st0{fill:none;stroke:#939A9E;stroke-width:0;stroke-miterlimit:10;}
	.st1{fill:none;stroke:#92C6DF;stroke-width:0;stroke-miterlimit:10;}
	.st2{fill:none;stroke:#26607E;stroke-width:0;stroke-miterlimit:10;}
	.st3{fill:#26343D;}
	.st4{fill:url(#SVGID_1_);}
	.st5{fill:#258CBE;}
</style>
<g id="Shap">
	<path class="st0" d="M29.5,8.3c0.4-0.9,0.7-1.8,0.8-2.6c0.3-1.9-1-3.9-3.1-3.4c-1.8,0.4-3.4,1.4-4.9,2.4c-1.6,1.1-3.1,2.4-4.5,3.7
		c-0.8,0.8-1.6,1.5-2.5,2.3c0,0,0,0,0,0c0.5,0.7,1.1,1.3,1.7,2c0,0,0.1,0,0.1,0c1.4-1.3,2.8-2.6,4.2-4c1.1-1,2.4-2.1,3.8-2.9
		c0.7-0.4,2-0.9,2,0.4c0,0.2,0,0.3-0.1,0.4c-0.3,1-0.9,1.8-1.6,2.7c-0.5,0.6-1,1.3-1.5,1.8c-1.2,1.3-2.3,2.6-3.6,4.1
		c-0.1,0.1-0.1,0.2-0.2,0.2c0,0,0,0,0,0.1c0.7,0.8,1.5,1.6,2.4,2.3c0,0,0.1,0,0.1,0c0.8-0.8,1.5-1.7,2.3-2.6
		c0.7-0.8,1.4-1.7,2.1-2.6C27.8,11.3,28.8,9.9,29.5,8.3"/>
	<path class="st1" d="M14.5,15.2c1.6,1.7,3.2,3.4,4.8,5.1c1.3,1.4,2.6,2.6,4.2,3.8c1.3,1,3.1,2.2,4.8,2.2c1,0,1.7-0.6,2.1-1.5
		c0.4-1,0.3-2.1,0-3.1c-0.7-2.2-1.8-4.4-3.2-6.3c0,0-0.1,0-0.1,0c-0.5,0.5-0.9,0.9-1.3,1.4c0,0,0,0.1,0,0.1c0.7,1.1,1.3,2.2,1.9,3.4
		c0.3,0.7,0.8,2,0.3,2.7c-0.7,1.1-2.6-0.3-3.3-0.8c-1.3-0.9-2.5-1.9-3.6-3c-1.8-1.7-3.4-3.6-5.2-5.4"/>
	<path class="st0" d="M15.8,13.7c-1.1-1.1-2.2-2.2-3.3-3.3c-0.8-0.8-1.7-1.6-2.6-2.4C8.5,6.9,4.2,3.6,2.5,5.8C1.8,6.7,1.7,7.9,2,9
		c0.6,2.1,1.8,4.2,3.2,6c0,0,0,0,0.1,0l1.2-1.4c0,0,0,0,0-0.1c-0.4-0.5-0.7-1.1-1.1-1.7c-0.6-1-1.1-2.1-1.1-3.2
		c0-0.4,0.1-0.9,0.4-1.1c1.2-0.8,4.5,2.3,5.4,3.2c1.5,1.4,2.9,2.9,4.4,4.4"/>
	<path class="st2" d="M15.8,13.7c-0.5,0.5-1,0.9-1.4,1.4"/>
	<path class="st1" d="M17.1,7.2c0.4-0.5,0.3-1.1-0.2-1.5c-0.5-0.4-1.1-0.3-1.5,0.2c-0.4,0.5-0.3,1.1,0.2,1.5
		C16.1,7.7,16.8,7.6,17.1,7.2 M32,13c0-0.8-0.6-1.4-1.4-1.4c-0.8,0-1.4,0.6-1.4,1.4c0,0.8,0.6,1.4,1.4,1.4C31.4,14.5,32,13.8,32,13"
		/>
	<path class="st0" d="M5,23.8c0.8-1.8,2-3.3,3.3-4.9c1.1-1.4,2.2-2.8,3.3-4.1c0,0,0-0.1,0-0.1l-2-2c0,0-0.1,0-0.1,0
		C7,15.3-2,25.2,2.6,29c1.3,1,3.1,0.9,4.6,0.3c1.4-0.5,2.8-1.4,4.3-2.4c2.2-1.7,4.4-3.5,6.5-5.4c0,0,0,0,0-0.1
		c-0.7-0.8-1.4-1.6-2.1-2.5c0,0-0.1,0-0.1,0c-0.9,0.9-1.9,1.7-2.8,2.5c-1.1,1-2.2,2.1-3.4,3c-0.5,0.3-1.1,0.7-1.9,1.2
		c-0.6,0.4-2,1.1-2.7,0.6C4.3,25.7,4.7,24.4,5,23.8"/>
	<path class="st1" d="M1.6,16.6C2,16.3,2,15.7,1.7,15.3c-0.3-0.4-0.9-0.5-1.3-0.1c-0.4,0.3-0.4,0.9-0.1,1.3
		C0.6,16.9,1.2,17,1.6,16.6 M18.6,25.8c0-0.7-0.6-1.3-1.3-1.3c-0.7,0-1.3,0.6-1.3,1.3c0,0.7,0.6,1.3,1.3,1.3
		C18,27.1,18.6,26.5,18.6,25.8"/>
	<path class="st3" d="M29.5,8.3c-0.7,1.5-1.7,3-2.7,4.3c-0.7,0.9-1.4,1.8-2.1,2.6c-0.7,0.9-1.5,1.7-2.3,2.6c0,0,0,0-0.1,0
		c-0.8-0.7-1.6-1.5-2.4-2.3c0,0,0,0,0-0.1c0-0.1,0.1-0.1,0.2-0.2c1.3-1.5,2.4-2.8,3.6-4.1c0.5-0.6,1.1-1.2,1.5-1.8
		c0.7-0.9,1.2-1.7,1.6-2.7C27,6.5,27,6.4,27,6.2c0-1.3-1.3-0.8-2-0.4c-1.4,0.8-2.7,1.9-3.8,2.9c-1.4,1.3-2.8,2.6-4.2,4
		c0,0-0.1,0-0.1,0c-0.6-0.6-1.1-1.3-1.7-2c0,0,0,0,0,0c0.8-0.8,1.6-1.5,2.5-2.3c1.4-1.3,3-2.5,4.5-3.7c1.4-1,3.1-2,4.9-2.4
		c2.2-0.5,3.4,1.5,3.1,3.4C30.2,6.6,29.9,7.4,29.5,8.3L29.5,8.3z"/>
	<linearGradient id="SVGID_1_" gradientUnits="userSpaceOnUse" x1="1.3811" y1="15.6387" x2="32.3869" y2="15.6387">
		<stop  offset="1.331947e-07" style="stop-color:#26343D"/>
		<stop  offset="0.3179" style="stop-color:#264E63"/>
		<stop  offset="1" style="stop-color:#258CBE"/>
	</linearGradient>
	<path class="st4" d="M30.3,24.8c-0.3,0.9-1.1,1.5-2.1,1.5c-1.6,0-3.5-1.2-4.8-2.2c-1.6-1.2-2.9-2.5-4.2-3.8
		c-1.6-1.7-3.2-3.4-4.8-5.1c-1.4-1.5-2.9-2.9-4.4-4.4c-0.9-0.9-4.2-4-5.4-3.2C4.3,7.8,4.2,8.2,4.2,8.6c0.1,1.1,0.6,2.2,1.1,3.2
		c0.4,0.7,0.8,1.3,1.1,1.7c0,0,0,0,0,0.1l-1.2,1.4c0,0,0,0-0.1,0C3.9,13.2,2.6,11.1,2,9C1.7,7.9,1.8,6.7,2.5,5.8
		c1.7-2.2,6,1.1,7.4,2.3c0.9,0.8,1.7,1.5,2.6,2.4c1.1,1.1,2.2,2.2,3.3,3.3c1.7,1.8,3.4,3.6,5.2,5.4c1.1,1.1,2.3,2.1,3.6,3
		c0.7,0.5,2.6,1.9,3.3,0.8c0.5-0.7,0.1-2-0.3-2.7c-0.5-1.2-1.2-2.3-1.9-3.4c0,0,0-0.1,0-0.1c0.4-0.5,0.8-1,1.3-1.4c0,0,0.1,0,0.1,0
		c1.4,1.9,2.5,4.1,3.2,6.3C30.6,22.6,30.7,23.7,30.3,24.8z"/>
	<path class="st5" d="M17.1,7.2c-0.4,0.5-1,0.5-1.5,0.2c-0.5-0.4-0.6-1-0.2-1.5c0.4-0.5,1-0.5,1.5-0.2C17.4,6,17.5,6.7,17.1,7.2
		L17.1,7.2z"/>
	<path class="st5" d="M32,13c0,0.8-0.6,1.4-1.4,1.4c-0.8,0-1.4-0.6-1.4-1.4c0-0.8,0.6-1.4,1.4-1.4C31.4,11.6,32,12.3,32,13L32,13z"
		/>
	<path class="st3" d="M5,23.8c-0.3,0.6-0.8,1.9-0.1,2.5c0.7,0.5,2.1-0.2,2.7-0.6c0.7-0.5,1.4-0.9,1.9-1.2c1.3-0.8,2.3-2,3.4-3
		c1-0.8,1.9-1.7,2.8-2.5c0,0,0.1,0,0.1,0c0.7,0.9,1.4,1.7,2.1,2.5c0,0,0,0,0,0.1c-2.1,1.9-4.2,3.7-6.5,5.4c-1.4,1.1-2.9,1.9-4.3,2.4
		C5.7,29.8,3.9,30,2.6,29C-2,25.2,7,15.3,9.5,12.6c0,0,0.1,0,0.1,0l2,2c0,0,0,0.1,0,0.1c-1.1,1.4-2.2,2.7-3.3,4.1
		C7.1,20.5,5.9,22,5,23.8L5,23.8z"/>
	<path class="st5" d="M1.6,16.6c-0.4,0.3-1,0.3-1.3-0.1c-0.3-0.4-0.3-1,0.1-1.3c0.4-0.3,1-0.3,1.3,0.1C2,15.7,2,16.3,1.6,16.6
		L1.6,16.6z"/>
	<path class="st5" d="M18.6,25.8c0,0.7-0.6,1.3-1.3,1.3c-0.7,0-1.3-0.6-1.3-1.3c0-0.7,0.6-1.3,1.3-1.3C18,24.5,18.6,25.1,18.6,25.8
		L18.6,25.8z"/>
</g>
</svg>
