<svg width="501" height="370" viewBox="0 0 501 370" fill="none" xmlns="http://www.w3.org/2000/svg">
<path d="M308.42 69.8948C295.37 61.4973 276.729 62.69 262.978 68.6723C254.738 72.2559 247.41 77.889 241.766 84.8745C235.424 92.7237 233.258 102.771 228.004 111.346C220.321 123.887 207.146 133.726 192.303 135.356C178.093 136.916 164.606 131.232 151.515 126.571C137.383 121.539 123.559 118.767 108.495 119.662C86.6382 120.96 65.518 131.287 54.905 151.106C49.3323 161.514 47.3572 173.46 48.5406 185.155C50.2172 201.725 65.9174 214.634 61.1333 232.058C57.393 245.679 44.1229 254.519 38.0318 267.263C32.1473 279.575 33.6799 294.805 42.5113 305.316C50.6887 315.049 64.4702 319.699 76.8726 316.909H456.637C466.167 316.909 471.118 306.079 474.277 298.668C481.576 281.551 485.377 262.709 483.208 244.097C481.618 230.444 476.77 215.226 466.124 205.98C456.906 197.973 445.87 196.015 434.2 194.244C411.944 190.865 405.902 175.03 406.829 154.152C407.697 134.598 413.763 107.548 392.541 96.2384C387.177 93.38 380.831 92.8083 374.796 93.5257C363.553 94.8617 353.171 100.903 341.566 98.4085C329.731 95.8641 323.28 84.9277 315.919 76.4135C313.677 73.8206 311.154 71.6537 308.42 69.8948Z" fill="#D4D7FF"/>
<path d="M295.732 311.699H200.964V316.134H295.732V311.699Z" fill="#AEB8FF"/>
<path d="M364.923 268.166H133.284V148.376C133.284 142.89 137.731 138.443 143.217 138.443H354.99C360.475 138.443 364.923 142.89 364.923 148.376V268.166Z" fill="#401CC6"/>
<path d="M355.031 290.369H143.175C137.712 290.369 133.284 285.94 133.284 280.477V268.166H364.923V280.477C364.923 285.94 360.494 290.369 355.031 290.369Z" fill="#9FA8FF"/>
<path d="M356.377 145.931H141.831V260.131V260.132H356.377V145.931Z" fill="#D4D7FF"/>
<path d="M270.744 276.562H227.902V281.928H270.744V276.562Z" fill="#401CC6"/>
<path d="M277.868 311.699H220.338L223.364 290.369H274.842L277.868 311.699Z" fill="#95A1F9"/>
<path opacity="0.63" d="M268.834 260.205H243.485L174.486 145.454H199.835L268.834 260.205Z" fill="white"/>
<path opacity="0.63" d="M323.738 260.205H298.39L229.391 145.454H254.739L323.738 260.205Z" fill="white"/>
<path d="M462.822 316.135H40.5776V320.935H462.822V316.135Z" fill="#5523E2"/>
<path d="M323.112 181.132H225.088C221.875 181.132 219.246 183.761 219.246 186.974V236.31C219.246 239.523 221.875 242.152 225.088 242.152H323.112C326.325 242.152 328.954 239.523 328.954 236.31V186.974C328.954 183.761 326.325 181.132 323.112 181.132Z" fill="#5523E2"/>
<path d="M325.221 191.193H222.979V238.258H325.221V191.193Z" fill="#E3E6FF"/>
<path d="M268.653 198.334H227.198V199.957H268.653V198.334Z" fill="white"/>
<path d="M268.653 202.229H227.198V203.852H268.653V202.229Z" fill="white"/>
<path d="M268.653 206.125H227.198V207.747H268.653V206.125Z" fill="white"/>
<path d="M268.653 210.019H227.198V211.642H268.653V210.019Z" fill="white"/>
<path d="M268.653 213.915H227.198V215.537H268.653V213.915Z" fill="white"/>
<path d="M247.436 220.893H227.198V222.515H247.436V220.893Z" fill="white"/>
<path d="M247.436 223.602H227.198V225.224H247.436V223.602Z" fill="white"/>
<path d="M247.436 226.31H227.198V227.933H247.436V226.31Z" fill="white"/>
<path d="M247.436 229.019H227.198V230.642H247.436V229.019Z" fill="white"/>
<path d="M268.654 220.893H248.416V222.515H268.654V220.893Z" fill="white"/>
<path d="M268.654 223.602H248.416V225.224H268.654V223.602Z" fill="white"/>
<path d="M268.654 226.31H248.416V227.933H268.654V226.31Z" fill="white"/>
<path d="M268.654 229.019H248.416V230.642H268.654V229.019Z" fill="white"/>
<path d="M227.198 188.272C228.05 188.272 228.74 187.582 228.74 186.73C228.74 185.879 228.05 185.188 227.198 185.188C226.347 185.188 225.656 185.879 225.656 186.73C225.656 187.582 226.347 188.272 227.198 188.272Z" fill="#FFB600"/>
<path d="M235.313 186.73C235.313 187.581 234.623 188.272 233.771 188.272C232.92 188.272 232.229 187.581 232.229 186.73C232.229 185.879 232.919 185.188 233.771 185.188C234.622 185.189 235.313 185.879 235.313 186.73Z" fill="#FFB600"/>
<path d="M240.344 188.272C241.195 188.272 241.886 187.582 241.886 186.73C241.886 185.879 241.195 185.188 240.344 185.188C239.492 185.188 238.802 185.879 238.802 186.73C238.802 187.582 239.492 188.272 240.344 188.272Z" fill="#FFB600"/>
<path d="M292.439 196.062H277.508V232.415H292.439V196.062Z" fill="#FFB600"/>
<path d="M314.185 197.036H299.255V215.212H314.185V197.036Z" fill="#FF2951"/>
<path d="M314.185 217.809H299.255V231.016H314.185V217.809Z" fill="#FF2951"/>
<path d="M435.553 207.084H405.734C401.577 207.084 398.206 210.455 398.206 214.612V287.379C398.206 291.537 401.577 294.907 405.734 294.907H435.553C439.711 294.907 443.082 291.537 443.082 287.379V214.612C443.082 210.455 439.711 207.084 435.553 207.084Z" fill="#5523E2"/>
<path d="M441.24 214.446H400.046V286.448H441.24V214.446Z" fill="#E6E6FC"/>
<path d="M425.727 210.765H415.56V211.642H425.727V210.765Z" fill="#8050FF"/>
<path d="M420.643 293.154C422.172 293.154 423.412 291.915 423.412 290.386C423.412 288.857 422.172 287.618 420.643 287.618C419.114 287.618 417.875 288.857 417.875 290.386C417.875 291.915 419.114 293.154 420.643 293.154Z" fill="#FFB600"/>
<path d="M415.56 228.504H405.896V272.391H415.56V228.504Z" fill="#FF2951"/>
<path d="M436.003 232.236H422.105V246.134H436.003V232.236Z" fill="white"/>
<path d="M436.003 253.921H422.105V267.819H436.003V253.921Z" fill="white"/>
<path d="M375.003 236.122H341.595C338.306 236.122 335.615 238.812 335.615 242.102V275.509C335.615 278.798 338.306 281.489 341.595 281.489H375.003C378.292 281.489 380.983 278.798 380.983 275.509V242.102C380.983 238.812 378.292 236.122 375.003 236.122Z" fill="#5523E2"/>
<path d="M377.402 245.13H339.196V276.669H377.402V245.13Z" fill="#FF2951"/>
<path d="M363.262 254.105C363.262 256.918 360.981 259.199 358.168 259.199C355.355 259.199 353.075 256.918 353.075 254.105C353.075 251.292 355.355 249.012 358.168 249.012C360.981 249.012 363.262 251.292 363.262 254.105Z" fill="white"/>
<path d="M367.933 273.293H348.665V268.656C348.665 263.948 352.482 260.131 357.19 260.131H359.409C364.117 260.131 367.934 263.948 367.934 268.656V273.293H367.933Z" fill="white"/>
<path d="M341.468 240.84C341.468 241.467 340.959 241.976 340.332 241.976C339.704 241.976 339.195 241.467 339.195 240.84C339.195 240.213 339.704 239.704 340.332 239.704C340.96 239.704 341.468 240.213 341.468 240.84Z" fill="#FFC154"/>
<path d="M345.685 240.84C345.685 241.467 345.176 241.976 344.548 241.976C343.921 241.976 343.412 241.467 343.412 240.84C343.412 240.213 343.921 239.704 344.548 239.704C345.176 239.704 345.685 240.213 345.685 240.84Z" fill="#FFC154"/>
<path d="M349.901 240.84C349.901 241.467 349.392 241.976 348.765 241.976C348.137 241.976 347.628 241.467 347.628 240.84C347.628 240.213 348.137 239.704 348.765 239.704C349.393 239.704 349.901 240.213 349.901 240.84Z" fill="#FFC154"/>
<path d="M41.6591 234.485L47.4237 232.954L45.3743 225.238L39.6097 226.769C39.0012 225.735 38.2768 224.791 37.4561 223.95L40.45 218.791L33.5451 214.784L30.5512 219.943C29.4141 219.648 28.2355 219.487 27.0358 219.472L25.5048 213.707L17.7886 215.756L19.3196 221.521C18.2859 222.13 17.3422 222.854 16.5011 223.675L11.3419 220.681L7.33462 227.586L12.4939 230.58C12.1986 231.717 12.0381 232.895 12.0224 234.095L6.25781 235.626L8.30726 243.342L14.0719 241.811C14.6804 242.845 15.4048 243.789 16.2255 244.63L13.2316 249.789L20.1364 253.796L23.1303 248.637C24.2674 248.932 25.446 249.093 26.6458 249.108L28.1768 254.873L35.8929 252.824L34.3619 247.059C35.3957 246.45 36.3393 245.726 37.1804 244.905L42.3397 247.899L46.3469 240.994L41.1877 238C41.4829 236.864 41.6442 235.685 41.6591 234.485ZM28.5206 240.614C25.0286 241.541 21.4458 239.463 20.5186 235.971C19.5914 232.479 21.6698 228.896 25.1617 227.969C28.6537 227.041 32.2365 229.12 33.1637 232.612C34.0918 236.104 32.0125 239.686 28.5206 240.614Z" fill="#9FA8FF"/>
<path d="M488.908 134.305L501 131.094L496.702 114.908L484.609 118.12C483.334 115.95 481.813 113.971 480.092 112.208L486.373 101.385L471.888 92.9797L465.608 103.803C463.224 103.183 460.75 102.846 458.234 102.814L455.022 90.7219L438.837 95.0205L442.049 107.113C439.88 108.389 437.9 109.909 436.137 111.63L425.314 105.35L416.909 119.835L427.731 126.115C427.112 128.499 426.774 130.972 426.743 133.489L414.651 136.7L418.949 152.886L431.042 149.674C432.317 151.844 433.838 153.822 435.559 155.586L429.279 166.408L443.764 174.813L450.044 163.991C452.428 164.61 454.901 164.948 457.418 164.979L460.629 177.071L476.815 172.773L473.603 160.68C475.772 159.404 477.751 157.884 479.515 156.163L490.338 162.443L498.743 147.958L487.92 141.679C488.538 139.295 488.876 136.822 488.908 134.305ZM461.347 147.16C454.022 149.105 446.507 144.744 444.562 137.419C442.616 130.094 446.977 122.579 454.302 120.634C461.628 118.688 469.143 123.049 471.089 130.374C473.034 137.699 468.673 145.214 461.347 147.16Z" fill="#9FA8FF"/>
<path d="M420.053 181.206L427.178 179.314L424.645 169.776L417.519 171.669C416.768 170.391 415.872 169.224 414.858 168.185L418.559 161.807L410.023 156.853L406.322 163.231C404.916 162.866 403.459 162.667 401.977 162.649L400.084 155.523L390.546 158.056L392.439 165.182C391.161 165.934 389.994 166.83 388.956 167.844L382.578 164.143L377.624 172.678L384.002 176.379C383.637 177.784 383.438 179.242 383.42 180.725L376.294 182.618L378.827 192.155L385.953 190.263C386.705 191.541 387.601 192.707 388.615 193.747L384.914 200.124L393.449 205.077L397.15 198.699C398.556 199.064 400.013 199.263 401.496 199.282L403.389 206.408L412.926 203.874L411.034 196.748C412.312 195.997 413.478 195.101 414.517 194.087L420.895 197.788L425.848 189.252L419.47 185.551C419.835 184.146 420.034 182.689 420.053 181.206ZM403.812 188.782C399.496 189.928 395.067 187.358 393.921 183.042C392.774 178.725 395.344 174.297 399.661 173.15C403.978 172.004 408.406 174.573 409.553 178.89C410.698 183.207 408.129 187.635 403.812 188.782Z" fill="#FFB600"/>
<path d="M435.701 74.7438L439.342 73.7767L438.048 68.904L434.407 69.8712C434.023 69.2181 433.565 68.6221 433.047 68.0911L434.937 64.8333L430.577 62.303L428.686 65.5609C427.968 65.3745 427.223 65.2727 426.466 65.2633L425.499 61.6233L420.626 62.9178L421.593 66.5578C420.94 66.9423 420.344 67.3996 419.813 67.9173L416.556 66.0268L414.025 70.3873L417.283 72.2777C417.097 72.9959 416.995 73.7406 416.986 74.4979L413.345 75.4651L414.638 80.3377L418.279 79.3705C418.663 80.0237 419.121 80.6196 419.639 81.1506L417.748 84.4084L422.109 86.9387L423.999 83.6809C424.717 83.8673 425.461 83.9691 426.219 83.9785L427.187 87.6192L432.059 86.3247L431.092 82.6847C431.745 82.3002 432.341 81.8429 432.872 81.3244L436.13 83.2149L438.66 78.8545L435.402 76.964C435.59 76.2459 435.692 75.5011 435.701 74.7438ZM427.404 78.614C425.199 79.1998 422.936 77.8865 422.351 75.6812C421.765 73.4759 423.077 71.2135 425.284 70.6277C427.489 70.0419 429.751 71.3544 430.337 73.5597C430.923 75.7658 429.61 78.0283 427.404 78.614Z" fill="#9FA8FF"/>
<path d="M454.288 104.218C452.933 100.894 449.673 98.5485 445.862 98.5485C442.341 98.5485 439.294 100.55 437.78 103.474C436.407 100.6 433.481 98.6104 430.084 98.6104C428.699 98.6104 427.396 98.9471 426.24 99.5321C424.102 94.5569 419.161 91.0704 413.402 91.0704C411.442 91.0704 409.577 91.4784 407.883 92.2075C407.116 81.6063 398.294 73.2378 387.497 73.2378C376.289 73.2378 367.199 82.2508 367.049 93.4221C364.029 90.2575 359.779 88.2762 355.058 88.2762C348.116 88.2762 342.178 92.5435 339.704 98.5955C337.821 96.9815 335.38 96.001 332.706 96.001C327.64 96.001 323.403 99.5055 322.257 104.218C322.058 105.037 321.941 105.886 321.941 106.766C321.941 108.712 322.465 110.532 323.368 112.108H340.15H342.045H369.966H378.606H396.388H401.367H423.148H425.439H437.022H437.933H453.792C454.536 110.79 454.964 109.27 454.964 107.649C454.962 106.435 454.72 105.278 454.288 104.218Z" fill="white"/>
<path d="M208.903 78.7432C207.602 75.5512 204.472 73.2997 200.812 73.2997C197.433 73.2997 194.507 75.2215 193.054 78.0282C191.735 75.2693 188.927 73.3584 185.664 73.3584C184.335 73.3584 183.084 73.6819 181.974 74.2434C179.922 69.4671 175.177 66.12 169.649 66.12C167.766 66.12 165.976 66.5115 164.349 67.2117C163.613 57.0341 155.143 49 144.777 49C134.018 49 125.291 57.6528 125.147 68.3777C122.247 65.3392 118.167 63.437 113.635 63.437C106.97 63.437 101.269 67.5343 98.8937 73.3443C97.0863 71.7945 94.7431 70.8532 92.1753 70.8532C87.3113 70.8532 83.2437 74.2175 82.1434 78.7424C81.9523 79.5279 81.8403 80.3439 81.8403 81.1881C81.8403 83.0567 82.3431 84.8038 83.21 86.3161H99.3221H101.141H127.947H136.242H153.314H158.094H179.005H181.204H192.325H193.2H208.426C209.139 85.0505 209.551 83.5923 209.551 82.0363C209.551 80.871 209.318 79.7597 208.903 78.7432Z" fill="#9FA8FF"/>
<path d="M174.486 102.022C173.185 98.83 170.055 96.5785 166.395 96.5785C163.016 96.5785 160.09 98.5003 158.637 101.307C157.318 98.5481 154.509 96.6372 151.247 96.6372C149.918 96.6372 148.667 96.9607 147.557 97.5222C145.504 92.7459 140.76 89.3988 135.232 89.3988C133.349 89.3988 131.559 89.7903 129.933 90.4905C129.197 80.3129 120.727 72.2788 110.361 72.2788C99.6021 72.2788 90.8749 80.9316 90.73 91.6565C87.8301 88.618 83.75 86.7166 79.2181 86.7166C72.5536 86.7166 66.8525 90.8139 64.4772 96.6239C62.6698 95.0741 60.3266 94.1328 57.7588 94.1328C52.8948 94.1328 48.8272 97.4971 47.7269 102.022C47.5358 102.808 47.4238 103.624 47.4238 104.468C47.4238 106.336 47.9266 108.083 48.7935 109.596H64.9056H66.724H93.5305H101.825H118.898H123.678H144.588H146.788H157.908H158.783H174.009C174.723 108.33 175.134 106.872 175.134 105.316C175.133 104.15 174.901 103.039 174.486 102.022Z" fill="white"/>
<path d="M117.571 195.509C116.367 192.556 113.471 190.472 110.085 190.472C106.958 190.472 104.252 192.251 102.906 194.847C101.685 192.294 99.0869 190.527 96.0687 190.527C94.8392 190.527 93.6809 190.826 92.6542 191.346C90.7552 186.926 86.3649 183.83 81.2496 183.83C79.5071 183.83 77.8508 184.191 76.3464 184.84C75.6651 175.422 67.8275 167.989 58.2358 167.989C48.2799 167.989 40.2042 175.995 40.0711 185.919C37.3873 183.108 33.6119 181.348 29.419 181.348C23.2519 181.348 17.9767 185.139 15.7792 190.515C14.1073 189.081 11.9388 188.21 9.56277 188.21C5.06214 188.21 1.29842 191.323 0.280358 195.511C0.103371 196.238 0 196.992 0 197.774C0 199.502 0.465178 201.12 1.26788 202.519H16.1763H17.8585H42.6625H50.3379H66.1352H70.5583H89.907H91.9424H102.232H103.041H117.129C117.79 201.348 118.17 199.999 118.17 198.559C118.17 197.478 117.955 196.451 117.571 195.509Z" fill="white"/>
<path d="M230.154 82.5025L234.663 81.3051L233.06 75.2695L228.551 76.4669C228.075 75.658 227.509 74.9203 226.866 74.2624L229.208 70.227L223.807 67.0929L221.465 71.1284C220.576 70.8973 219.654 70.7712 218.716 70.7595L217.518 66.2502L211.483 67.8533L212.68 72.3626C211.871 72.8387 211.133 73.4049 210.476 74.0471L206.44 71.7055L203.306 77.1068L207.341 79.4483C207.11 80.3372 206.984 81.2597 206.973 82.1979L202.463 83.3953L204.066 89.4308L208.576 88.2334C209.052 89.0424 209.618 89.7801 210.26 90.438L207.919 94.4734L213.32 97.6075L215.661 93.572C216.55 93.8031 217.473 93.9283 218.411 93.9409L219.608 98.4501L225.644 96.8471L224.447 92.3378C225.256 91.8617 225.993 91.2955 226.651 90.6533L230.687 92.9949L233.821 87.5936L229.785 85.2521C230.016 84.3624 230.142 83.4407 230.154 82.5025ZM219.877 87.2953C217.145 88.0204 214.343 86.3947 213.617 83.6631C212.892 80.9316 214.518 78.1295 217.25 77.4043C219.981 76.6792 222.783 78.3049 223.508 81.0365C224.234 83.768 222.609 86.5701 219.877 87.2953Z" fill="#FFB600"/>
<path d="M98.6711 273.669L106.373 271.623L103.635 261.314L95.9341 263.36C95.1212 261.978 94.1533 260.717 93.0569 259.594L97.0571 252.701L87.8319 247.348L83.8316 254.241C82.3132 253.846 80.7375 253.632 79.1352 253.611L77.0897 245.909L66.7814 248.647L68.8269 256.348C67.4455 257.161 66.1846 258.129 65.0616 259.225L58.1685 255.225L52.8151 264.451L59.7082 268.451C59.3135 269.969 59.0989 271.545 59.0785 273.147L51.3765 275.193L54.1143 285.501L61.8156 283.455C62.6285 284.837 63.5964 286.098 64.6928 287.221L60.6926 294.114L69.9178 299.467L73.918 292.574C75.4365 292.969 77.0122 293.183 78.6145 293.204L80.66 300.905L90.9683 298.167L88.9228 290.466C90.3042 289.653 91.565 288.685 92.688 287.589L99.5811 291.589L104.935 282.364L98.0415 278.364C98.4354 276.847 98.6508 275.272 98.6711 273.669ZM81.1173 281.856C76.4522 283.095 71.6658 280.318 70.4268 275.652C69.1879 270.987 71.9649 266.201 76.6308 264.961C81.2959 263.722 86.0824 266.499 87.322 271.165C88.5602 275.831 85.7832 280.617 81.1173 281.856Z" fill="#FFB600"/>
<path d="M115.255 136.049H97.2119V271.597H133.284" stroke="#5523E2" stroke-width="2" stroke-miterlimit="10" stroke-dasharray="4 4"/>
<path d="M86.8998 180.966H59.0854V215.673H86.8998" stroke="#5523E2" stroke-width="2" stroke-miterlimit="10" stroke-dasharray="4 4"/>
<path d="M84.384 230.519H194.309V200.828H84.384V230.519Z" fill="#FF2951"/>
<path d="M117.033 210.378H186.045V207.115H117.033V210.378Z" fill="white"/>
<path d="M117.033 216.906H186.045V213.642H117.033V216.906Z" fill="white"/>
<path d="M117.092 223.432H153.063V220.035H117.092V223.432Z" fill="white"/>
<path d="M90.9995 224.355H109.188V206.166H90.9995V224.355Z" fill="white"/>
<path d="M84.384 196.224H194.309V166.533H84.384V196.224Z" fill="#FFB600"/>
<path d="M117.033 176.084H186.045V172.821H117.033V176.084Z" fill="white"/>
<path d="M117.033 182.611H186.045V179.347H117.033V182.611Z" fill="white"/>
<path d="M117.092 189.138H153.063V185.741H117.092V189.138Z" fill="white"/>
<path d="M90.9995 190.06H109.188V171.871H90.9995V190.06Z" fill="white"/>
<path d="M133.284 119.547V107.439H235.263V129.453" stroke="#5523E2" stroke-width="2" stroke-miterlimit="10" stroke-dasharray="4 4"/>
<path d="M252.098 129.453H218.69C215.401 129.453 212.71 132.144 212.71 135.433V168.841C212.71 172.13 215.401 174.821 218.69 174.821H252.098C255.387 174.821 258.078 172.13 258.078 168.841V135.433C258.078 132.144 255.387 129.453 252.098 129.453Z" fill="#5523E2"/>
<path d="M254.496 138.461H216.291V170H254.496V138.461Z" fill="#FFB600"/>
<path d="M240.357 147.437C240.357 150.25 238.076 152.53 235.263 152.53C232.45 152.53 230.17 150.25 230.17 147.437C230.17 144.624 232.45 142.344 235.263 142.344C238.076 142.344 240.357 144.624 240.357 147.437Z" fill="white"/>
<path d="M245.029 166.624H225.76V161.988C225.76 157.28 229.577 153.463 234.285 153.463H236.504C241.212 153.463 245.029 157.28 245.029 161.988V166.624H245.029Z" fill="white"/>
<path d="M218.563 134.171C218.563 134.799 218.054 135.308 217.427 135.308C216.8 135.308 216.291 134.8 216.291 134.171C216.291 133.543 216.8 133.035 217.427 133.035C218.054 133.036 218.563 133.544 218.563 134.171Z" fill="#FFC154"/>
<path d="M222.78 134.171C222.78 134.799 222.271 135.308 221.644 135.308C221.016 135.308 220.507 134.8 220.507 134.171C220.507 133.543 221.016 133.035 221.644 133.035C222.271 133.036 222.78 133.544 222.78 134.171Z" fill="#FFC154"/>
<path d="M225.86 135.308C226.488 135.308 226.996 134.799 226.996 134.171C226.996 133.544 226.488 133.035 225.86 133.035C225.232 133.035 224.724 133.544 224.724 134.171C224.724 134.799 225.232 135.308 225.86 135.308Z" fill="#FFC154"/>
<path d="M148.963 117.973H120.373C117.559 117.973 115.255 120.276 115.255 123.09V151.68C115.255 154.495 117.559 156.798 120.373 156.798H148.963C151.777 156.798 154.081 154.495 154.081 151.68V123.09C154.081 120.275 151.777 117.973 148.963 117.973Z" fill="#5523E2"/>
<path d="M151.016 125.682H118.32V152.672H151.016V125.682Z" fill="#EDEDFC"/>
<path d="M119.291 122.983C119.829 122.983 120.264 122.548 120.264 122.01C120.264 121.473 119.829 121.038 119.291 121.038C118.754 121.038 118.319 121.473 118.319 122.01C118.319 122.548 118.754 122.983 119.291 122.983Z" fill="#FFC154"/>
<path d="M123.873 122.01C123.873 122.548 123.438 122.983 122.9 122.983C122.363 122.983 121.928 122.548 121.928 122.01C121.928 121.473 122.363 121.038 122.9 121.038C123.438 121.038 123.873 121.473 123.873 122.01Z" fill="#FFC154"/>
<path d="M126.508 122.983C127.045 122.983 127.48 122.548 127.48 122.01C127.48 121.473 127.045 121.038 126.508 121.038C125.971 121.038 125.535 121.473 125.535 122.01C125.535 122.548 125.971 122.983 126.508 122.983Z" fill="#FFC154"/>
<path d="M128.729 146.705L121.865 139.841L128.823 132.884L129.989 134.05L124.198 139.841L129.895 145.539L128.729 146.705Z" fill="#5523E2"/>
<path d="M140.512 146.705L139.346 145.539L145.137 139.747L139.44 134.05L140.607 132.884L147.47 139.747L140.512 146.705Z" fill="#5523E2"/>
<path d="M136.411 133.68L131.387 145.806L132.91 146.437L137.935 134.312L136.411 133.68Z" fill="#5523E2"/>
<path d="M154.081 123.09H281.491" stroke="#5523E2" stroke-width="2" stroke-miterlimit="10" stroke-dasharray="4 4"/>
<path d="M384.627 105.538H286.604C283.391 105.538 280.762 108.167 280.762 111.38V160.717C280.762 163.93 283.391 166.559 286.604 166.559H384.627C387.84 166.559 390.469 163.93 390.469 160.717V111.38C390.469 108.168 387.84 105.538 384.627 105.538Z" fill="#5523E2"/>
<path d="M386.737 115.601H284.494V162.665H386.737V115.601Z" fill="#E3E6FF"/>
<path d="M288.714 112.679C289.565 112.679 290.256 111.989 290.256 111.137C290.256 110.286 289.565 109.595 288.714 109.595C287.862 109.595 287.172 110.286 287.172 111.137C287.172 111.989 287.862 112.679 288.714 112.679Z" fill="#FFB600"/>
<path d="M296.828 111.137C296.828 111.989 296.138 112.679 295.286 112.679C294.434 112.679 293.744 111.989 293.744 111.137C293.744 110.285 294.434 109.595 295.286 109.595C296.138 109.595 296.828 110.286 296.828 111.137Z" fill="#FFB600"/>
<path d="M301.859 112.679C302.711 112.679 303.401 111.989 303.401 111.137C303.401 110.286 302.711 109.595 301.859 109.595C301.008 109.595 300.317 110.286 300.317 111.137C300.317 111.989 301.008 112.679 301.859 112.679Z" fill="#FFB600"/>
<path d="M311.996 159.111C309.539 159.111 307.258 158.731 305.153 157.97C303.077 157.181 301.263 156.069 299.714 154.637C298.193 153.204 297.008 151.507 296.16 149.548C295.312 147.589 294.888 145.425 294.888 143.056C294.888 140.687 295.312 138.523 296.16 136.564C297.008 134.605 298.193 132.908 299.714 131.476C301.263 130.043 303.077 128.946 305.153 128.186C307.258 127.396 309.539 127.001 311.996 127.001C315.008 127.001 317.669 127.528 319.979 128.58C322.319 129.633 324.249 131.154 325.77 133.142L319.234 138.977C318.327 137.836 317.318 136.959 316.207 136.345C315.125 135.701 313.897 135.38 312.522 135.38C311.44 135.38 310.461 135.555 309.583 135.906C308.706 136.257 307.946 136.769 307.302 137.441C306.688 138.114 306.206 138.933 305.855 139.898C305.504 140.833 305.328 141.886 305.328 143.056C305.328 144.226 305.504 145.293 305.855 146.258C306.206 147.194 306.688 147.998 307.302 148.671C307.946 149.343 308.706 149.855 309.583 150.206C310.461 150.557 311.44 150.732 312.522 150.732C313.897 150.732 315.125 150.425 316.207 149.811C317.318 149.168 318.327 148.276 319.234 147.136L325.77 152.97C324.249 154.929 322.319 156.45 319.979 157.532C317.669 158.584 315.008 159.111 311.996 159.111ZM328.759 158.409V127.703H337.269L349.551 147.75H345.077L357.008 127.703H365.518L365.606 158.409H356.175L356.087 141.916H357.578L349.419 155.645H344.857L336.347 141.916H338.19V158.409H328.759ZM307.565 212.111C304.992 212.111 302.506 211.818 300.108 211.233C297.71 210.649 295.736 209.888 294.186 208.952L297.52 201.408C298.982 202.256 300.605 202.943 302.389 203.469C304.202 203.966 305.957 204.215 307.653 204.215C308.647 204.215 309.422 204.157 309.978 204.04C310.563 203.893 310.987 203.703 311.25 203.469C311.513 203.206 311.645 202.899 311.645 202.548C311.645 201.992 311.338 201.554 310.724 201.232C310.11 200.91 309.291 200.647 308.267 200.443C307.273 200.209 306.176 199.975 304.977 199.741C303.778 199.478 302.565 199.141 301.337 198.732C300.138 198.322 299.026 197.781 298.003 197.109C297.008 196.436 296.204 195.559 295.59 194.477C294.976 193.366 294.669 191.991 294.669 190.353C294.669 188.453 295.195 186.727 296.248 185.177C297.33 183.598 298.924 182.341 301.029 181.405C303.164 180.469 305.811 180.001 308.969 180.001C311.045 180.001 313.092 180.221 315.11 180.659C317.128 181.098 318.941 181.77 320.55 182.677L317.435 190.178C315.915 189.418 314.438 188.847 313.005 188.467C311.601 188.087 310.227 187.897 308.881 187.897C307.887 187.897 307.098 187.985 306.513 188.16C305.928 188.336 305.504 188.57 305.241 188.862C305.007 189.155 304.89 189.476 304.89 189.827C304.89 190.353 305.197 190.778 305.811 191.099C306.425 191.392 307.229 191.64 308.223 191.845C309.247 192.05 310.358 192.269 311.557 192.503C312.785 192.737 313.999 193.059 315.198 193.468C316.397 193.877 317.494 194.418 318.488 195.091C319.511 195.764 320.33 196.641 320.944 197.723C321.559 198.805 321.866 200.15 321.866 201.759C321.866 203.63 321.325 205.355 320.243 206.935C319.19 208.485 317.611 209.742 315.505 210.707C313.4 211.643 310.753 212.111 307.565 212.111Z" fill="#FF2951"/>
<path d="M309.289 165.078C309.132 165.549 309.289 186.016 309.289 186.016" stroke="#5523E2" stroke-width="2" stroke-miterlimit="10" stroke-dasharray="4 4"/>
<path d="M327.351 214.726H347.628V236.122" stroke="#5523E2" stroke-width="2" stroke-miterlimit="10" stroke-dasharray="4 4"/>
<path d="M359.233 279.268V304.256H469.014V254.873H443.082" stroke="#5523E2" stroke-width="2" stroke-miterlimit="10" stroke-dasharray="4 4"/>
<path d="M398.968 226.311H370.384V165.706" stroke="#5523E2" stroke-width="2" stroke-miterlimit="10" stroke-dasharray="4 4"/>
<path d="M191.815 244.229L180.181 234.808L189.496 220.17C183.817 219.712 176.306 221.415 172.651 225.929C167.445 232.358 167.897 241.635 173.176 248.375L124.675 305.664C122.489 308.364 122.905 312.323 125.604 314.509C128.304 316.695 132.263 316.278 134.449 313.579L180.39 254.241C188.081 258.007 197.259 256.504 202.467 250.073C206.122 245.56 205.847 237.874 204.219 232.414L191.815 244.229ZM130.593 312.478C128.936 312.971 127.194 312.026 126.701 310.369C126.209 308.712 127.153 306.97 128.81 306.478C130.468 305.985 132.21 306.93 132.702 308.587C133.194 310.244 132.25 311.986 130.593 312.478Z" fill="#5523E2"/>
<path d="M127.902 313.826C125.203 311.64 124.787 307.68 126.972 304.981L175.474 247.692C170.195 240.952 169.742 231.675 174.948 225.246C176.865 222.879 180.164 221.57 182.884 220.555C179.256 221.368 175.094 222.911 172.651 225.929C167.445 232.358 167.897 241.635 173.176 248.375L124.675 305.664C122.489 308.363 122.905 312.322 125.604 314.508C127.612 316.135 130.317 316.318 132.472 315.195C130.885 315.351 129.239 314.908 127.902 313.826Z" fill="#421DCC"/>
<path d="M223.364 290.369H274.842L276.564 302.511H221.66L223.364 290.369Z" fill="#5F7AFF"/>
</svg>
