<svg width="750" height="500" viewBox="0 0 750 500" fill="none" xmlns="http://www.w3.org/2000/svg">
<path d="M448.96 103.06C432.296 92.3368 408.493 93.8598 390.933 101.499C380.412 106.075 371.054 113.268 363.847 122.188C355.749 132.211 352.983 145.04 346.274 155.99C336.464 172.004 319.64 184.568 300.686 186.649C282.542 188.641 265.32 181.383 248.603 175.431C230.558 169.006 212.905 165.466 193.669 166.609C165.76 168.267 138.791 181.453 125.239 206.761C118.123 220.051 115.601 235.305 117.112 250.239C119.253 271.398 139.301 287.882 133.192 310.131C128.416 327.524 111.471 338.812 103.693 355.086C96.1789 370.807 98.1359 390.254 109.413 403.677C119.855 416.105 137.453 422.042 153.29 418.48H638.223C650.392 418.48 656.714 404.651 660.748 395.188C670.068 373.33 674.921 349.27 672.152 325.504C670.121 308.07 663.931 288.638 650.337 276.831C638.566 266.607 624.474 264.107 609.572 261.845C581.153 257.531 573.437 237.31 574.621 210.651C575.73 185.682 583.476 151.141 556.376 136.699C549.527 133.049 541.423 132.319 533.717 133.235C519.361 134.941 506.104 142.655 491.285 139.47C476.172 136.221 467.935 122.256 458.535 111.384C455.673 108.073 452.451 105.306 448.96 103.06Z" fill="#D4D7FF"/>
<path d="M432.759 411.827H311.747V417.49H432.759V411.827Z" fill="#AEB8FF"/>
<path d="M521.11 356.239H225.323V203.275C225.323 196.27 231.002 190.591 238.007 190.591H508.426C515.431 190.591 521.11 196.27 521.11 203.275V356.239Z" fill="#401CC6"/>
<path d="M508.479 384.59H237.954C230.978 384.59 225.323 378.935 225.323 371.959V356.239H521.11V371.959C521.11 378.935 515.455 384.59 508.479 384.59Z" fill="#9FA8FF"/>
<path d="M510.197 200.153H236.237V345.979V345.98H510.197V200.153Z" fill="#D4D7FF"/>
<path d="M400.851 366.959H346.145V373.811H400.851V366.959Z" fill="#401CC6"/>
<path d="M409.947 411.827H336.486L340.35 384.59H406.083L409.947 411.827Z" fill="#95A1F9"/>
<path opacity="0.63" d="M398.411 346.073H366.043L277.936 199.544H310.305L398.411 346.073Z" fill="white"/>
<path opacity="0.63" d="M468.52 346.073H436.152L348.045 199.544H380.413L468.52 346.073Z" fill="white"/>
<path d="M646.121 417.491H106.944V423.621H646.121V417.491Z" fill="#5523E2"/>
<path d="M467.72 245.102H342.551C338.448 245.102 335.091 248.459 335.091 252.562V315.561C335.091 319.664 338.448 323.021 342.551 323.021H467.72C471.823 323.021 475.18 319.664 475.18 315.561V252.562C475.18 248.459 471.823 245.102 467.72 245.102Z" fill="#5523E2"/>
<path d="M470.414 257.95H339.857V318.048H470.414V257.95Z" fill="#E3E6FF"/>
<path d="M398.18 267.068H345.245V269.14H398.18V267.068Z" fill="white"/>
<path d="M398.18 272.042H345.245V274.114H398.18V272.042Z" fill="white"/>
<path d="M398.18 277.016H345.245V279.088H398.18V277.016Z" fill="white"/>
<path d="M398.18 281.989H345.245V284.061H398.18V281.989Z" fill="white"/>
<path d="M398.18 286.963H345.245V289.035H398.18V286.963Z" fill="white"/>
<path d="M371.088 295.874H345.245V297.946H371.088V295.874Z" fill="white"/>
<path d="M371.088 299.333H345.245V301.405H371.088V299.333Z" fill="white"/>
<path d="M371.088 302.792H345.245V304.864H371.088V302.792Z" fill="white"/>
<path d="M371.088 306.251H345.245V308.323H371.088V306.251Z" fill="white"/>
<path d="M398.181 295.874H372.338V297.946H398.181V295.874Z" fill="white"/>
<path d="M398.181 299.333H372.338V301.405H398.181V299.333Z" fill="white"/>
<path d="M398.181 302.792H372.338V304.864H398.181V302.792Z" fill="white"/>
<path d="M398.181 306.251H372.338V308.323H398.181V306.251Z" fill="white"/>
<path d="M345.245 254.22C346.332 254.22 347.214 253.338 347.214 252.251C347.214 251.163 346.332 250.282 345.245 250.282C344.157 250.282 343.276 251.163 343.276 252.251C343.276 253.338 344.157 254.22 345.245 254.22Z" fill="#FFB600"/>
<path d="M355.607 252.251C355.607 253.338 354.726 254.22 353.638 254.22C352.551 254.22 351.669 253.338 351.669 252.251C351.669 251.164 352.55 250.282 353.638 250.282C354.725 250.283 355.607 251.164 355.607 252.251Z" fill="#FFB600"/>
<path d="M362.031 254.22C363.118 254.22 364 253.338 364 252.251C364 251.163 363.118 250.282 362.031 250.282C360.944 250.282 360.062 251.163 360.062 252.251C360.062 253.338 360.944 254.22 362.031 254.22Z" fill="#FFB600"/>
<path d="M428.553 264.167H409.487V310.587H428.553V264.167Z" fill="#FFB600"/>
<path d="M456.322 265.41H437.257V288.62H456.322V265.41Z" fill="#FF2951"/>
<path d="M456.322 291.936H437.257V308.801H456.322V291.936Z" fill="#FF2951"/>
<path d="M611.3 278.241H573.223C567.914 278.241 563.61 282.545 563.61 287.854V380.772C563.61 386.081 567.914 390.385 573.223 390.385H611.3C616.609 390.385 620.913 386.081 620.913 380.772V287.854C620.913 282.545 616.609 278.241 611.3 278.241Z" fill="#5523E2"/>
<path d="M618.562 287.642H565.96V379.583H618.562V287.642Z" fill="#E6E6FC"/>
<path d="M598.753 282.942H585.77V284.061H598.753V282.942Z" fill="#8050FF"/>
<path d="M592.261 388.147C594.213 388.147 595.796 386.564 595.796 384.612C595.796 382.66 594.213 381.077 592.261 381.077C590.309 381.077 588.726 382.66 588.726 384.612C588.726 386.564 590.309 388.147 592.261 388.147Z" fill="#FFB600"/>
<path d="M585.77 305.593H573.429V361.633H585.77V305.593Z" fill="#FF2951"/>
<path d="M611.874 310.359H594.128V328.105H611.874V310.359Z" fill="white"/>
<path d="M611.874 338.049H594.128V355.795H611.874V338.049Z" fill="white"/>
<path d="M533.981 315.32H491.322C487.122 315.32 483.686 318.756 483.686 322.956V365.615C483.686 369.815 487.122 373.251 491.322 373.251H533.981C538.181 373.251 541.617 369.815 541.617 365.615V322.956C541.618 318.756 538.181 315.32 533.981 315.32Z" fill="#5523E2"/>
<path d="M537.045 326.823H488.259V367.096H537.045V326.823Z" fill="#FF2951"/>
<path d="M518.989 338.284C518.989 341.876 516.077 344.788 512.485 344.788C508.893 344.788 505.981 341.876 505.981 338.284C505.981 334.692 508.893 331.78 512.485 331.78C516.077 331.78 518.989 334.692 518.989 338.284Z" fill="white"/>
<path d="M524.954 362.785H500.349V356.865C500.349 350.853 505.223 345.979 511.235 345.979H514.069C520.081 345.979 524.955 350.853 524.955 356.865V362.785H524.954Z" fill="white"/>
<path d="M491.16 321.345C491.16 322.146 490.51 322.796 489.709 322.796C488.908 322.796 488.258 322.146 488.258 321.345C488.258 320.544 488.907 319.894 489.709 319.894C490.511 319.895 491.16 320.544 491.16 321.345Z" fill="#FFC154"/>
<path d="M496.544 321.345C496.544 322.146 495.894 322.796 495.093 322.796C494.292 322.796 493.642 322.146 493.642 321.345C493.642 320.544 494.292 319.894 495.093 319.894C495.895 319.895 496.544 320.544 496.544 321.345Z" fill="#FFC154"/>
<path d="M501.928 321.345C501.928 322.146 501.278 322.796 500.477 322.796C499.676 322.796 499.026 322.146 499.026 321.345C499.026 320.544 499.676 319.894 500.477 319.894C501.279 319.895 501.928 320.544 501.928 321.345Z" fill="#FFC154"/>
<path d="M108.325 313.23L115.686 311.275L113.069 301.422L105.708 303.377C104.931 302.057 104.006 300.852 102.958 299.778L106.781 293.19L97.9641 288.073L94.1411 294.661C92.6891 294.284 91.1841 294.078 89.6521 294.059L87.6971 286.698L77.8441 289.315L79.7991 296.676C78.4791 297.453 77.2741 298.378 76.2001 299.426L69.6121 295.603L64.4951 304.42L71.0831 308.243C70.7061 309.695 70.5011 311.2 70.4811 312.732L63.1201 314.687L65.7371 324.54L73.0981 322.585C73.8751 323.905 74.8001 325.11 75.8481 326.184L72.0251 332.772L80.8421 337.889L84.6651 331.301C86.1171 331.678 87.6221 331.883 89.1541 331.903L91.1091 339.264L100.962 336.647L99.0071 329.286C100.327 328.509 101.532 327.584 102.606 326.536L109.194 330.359L114.311 321.542L107.723 317.719C108.1 316.268 108.306 314.762 108.325 313.23ZM91.5481 321.056C87.0891 322.24 82.5141 319.586 81.3301 315.127C80.1461 310.668 82.8001 306.093 87.2591 304.909C91.7181 303.725 96.2931 306.379 97.4771 310.838C98.6621 315.297 96.0071 319.871 91.5481 321.056Z" fill="#9FA8FF"/>
<path d="M679.43 185.308L694.871 181.207L689.382 160.539L673.941 164.64C672.312 161.87 670.371 159.342 668.173 157.091L676.193 143.271L657.697 132.538L649.678 146.358C646.633 145.567 643.474 145.136 640.261 145.096L636.16 129.655L615.493 135.144L619.594 150.585C616.825 152.215 614.297 154.156 612.045 156.353L598.225 148.334L587.492 166.83L601.312 174.849C600.521 177.894 600.09 181.052 600.05 184.265L584.609 188.366L590.098 209.034L605.539 204.933C607.168 207.703 609.109 210.23 611.307 212.482L603.288 226.301L621.784 237.034L629.803 223.214C632.848 224.005 636.006 224.436 639.219 224.476L643.32 239.917L663.988 234.428L659.887 218.987C662.656 217.357 665.184 215.416 667.436 213.219L681.256 221.238L691.989 202.742L678.169 194.723C678.958 191.679 679.389 188.521 679.43 185.308ZM644.237 201.722C634.883 204.206 625.287 198.638 622.803 189.284C620.319 179.93 625.887 170.334 635.241 167.85C644.595 165.366 654.191 170.934 656.676 180.288C659.16 189.642 653.591 199.238 644.237 201.722Z" fill="#9FA8FF"/>
<path d="M591.507 245.197L600.606 242.78L597.371 230.601L588.272 233.018C587.312 231.386 586.168 229.896 584.873 228.569L589.599 220.425L578.7 214.1L573.974 222.244C572.179 221.778 570.318 221.524 568.425 221.5L566.008 212.401L553.829 215.636L556.246 224.735C554.614 225.695 553.124 226.839 551.798 228.134L543.654 223.408L537.329 234.307L545.473 239.033C545.007 240.827 544.753 242.688 544.729 244.582L535.63 246.999L538.865 259.178L547.964 256.761C548.924 258.393 550.068 259.883 551.363 261.21L546.637 269.353L557.536 275.678L562.262 267.534C564.057 268 565.917 268.254 567.811 268.278L570.228 277.377L582.407 274.142L579.99 265.043C581.622 264.083 583.112 262.939 584.438 261.644L592.582 266.37L598.907 255.471L590.763 250.745C591.229 248.951 591.483 247.09 591.507 245.197ZM570.769 254.87C565.257 256.334 559.602 253.052 558.138 247.541C556.674 242.029 559.956 236.374 565.468 234.91C570.98 233.446 576.635 236.727 578.099 242.239C579.562 247.751 576.281 253.406 570.769 254.87Z" fill="#FFB600"/>
<path d="M611.489 109.252L616.138 108.017L614.485 101.795L609.836 103.03C609.346 102.196 608.761 101.435 608.099 100.757L610.513 96.5968L604.945 93.3658L602.531 97.5258C601.614 97.2878 600.663 97.1578 599.696 97.1458L598.461 92.4978L592.239 94.1508L593.474 98.7988C592.64 99.2898 591.879 99.8738 591.201 100.535L587.041 98.1208L583.81 103.689L587.97 106.103C587.732 107.02 587.602 107.971 587.59 108.938L582.941 110.173L584.593 116.395L589.242 115.16C589.732 115.994 590.317 116.755 590.978 117.433L588.564 121.593L594.132 124.824L596.546 120.664C597.463 120.902 598.413 121.032 599.381 121.044L600.616 125.693L606.838 124.04L605.603 119.392C606.437 118.901 607.198 118.317 607.876 117.655L612.036 120.069L615.267 114.501L611.107 112.087C611.347 111.17 611.477 110.219 611.489 109.252ZM600.894 114.194C598.078 114.942 595.189 113.265 594.441 110.449C593.693 107.633 595.369 104.744 598.186 103.996C601.002 103.248 603.891 104.924 604.639 107.74C605.387 110.557 603.71 113.446 600.894 114.194Z" fill="#9FA8FF"/>
<path d="M635.223 146.889C633.493 142.644 629.33 139.649 624.463 139.649C619.968 139.649 616.077 142.205 614.144 145.939C612.39 142.269 608.654 139.728 604.316 139.728C602.548 139.728 600.884 140.158 599.408 140.905C596.678 134.552 590.368 130.1 583.015 130.1C580.511 130.1 578.13 130.621 575.967 131.552C574.988 118.015 563.722 107.329 549.935 107.329C535.624 107.329 524.017 118.838 523.825 133.103C519.968 129.062 514.541 126.532 508.513 126.532C499.649 126.532 492.066 131.981 488.907 139.709C486.503 137.648 483.386 136.396 479.971 136.396C473.502 136.396 468.092 140.871 466.628 146.889C466.374 147.934 466.225 149.019 466.225 150.142C466.225 152.627 466.894 154.951 468.047 156.963H489.477H491.896H527.55H538.582H561.289H567.647H595.459H598.385H613.176H614.339H634.59C635.539 155.28 636.086 153.34 636.086 151.27C636.084 149.719 635.774 148.242 635.223 146.889Z" fill="white"/>
<path d="M321.884 114.359C320.223 110.283 316.226 107.408 311.553 107.408C307.238 107.408 303.502 109.862 301.646 113.446C299.962 109.923 296.376 107.483 292.21 107.483C290.513 107.483 288.915 107.896 287.498 108.613C284.877 102.514 278.819 98.2399 271.759 98.2399C269.355 98.2399 267.069 98.7399 264.992 99.6339C264.052 86.6379 253.236 76.3789 240 76.3789C226.261 76.3789 215.117 87.4279 214.933 101.123C211.23 97.2429 206.02 94.8139 200.233 94.8139C191.723 94.8139 184.443 100.046 181.41 107.465C179.102 105.486 176.11 104.284 172.831 104.284C166.62 104.284 161.426 108.58 160.021 114.358C159.777 115.361 159.634 116.403 159.634 117.481C159.634 119.867 160.276 122.098 161.383 124.029H181.957H184.279H218.509H229.101H250.901H257.005H283.706H286.515H300.715H301.832H321.275C322.186 122.413 322.711 120.551 322.711 118.564C322.711 117.076 322.414 115.657 321.884 114.359Z" fill="#9FA8FF"/>
<path d="M277.935 144.084C276.274 140.008 272.277 137.133 267.604 137.133C263.289 137.133 259.553 139.587 257.697 143.171C256.013 139.648 252.426 137.208 248.261 137.208C246.564 137.208 244.966 137.621 243.549 138.338C240.928 132.239 234.87 127.965 227.811 127.965C225.407 127.965 223.121 128.465 221.045 129.359C220.105 116.363 209.289 106.104 196.053 106.104C182.314 106.104 171.17 117.153 170.985 130.848C167.282 126.968 162.072 124.54 156.285 124.54C147.775 124.54 140.495 129.772 137.462 137.191C135.154 135.212 132.162 134.01 128.883 134.01C122.672 134.01 117.478 138.306 116.073 144.084C115.829 145.087 115.686 146.129 115.686 147.207C115.686 149.593 116.328 151.824 117.435 153.755H138.009H140.331H174.561H185.153H206.953H213.057H239.758H242.567H256.767H257.884H277.327C278.238 152.139 278.763 150.277 278.763 148.29C278.762 146.801 278.465 145.383 277.935 144.084Z" fill="white"/>
<path d="M205.259 263.461C203.722 259.69 200.024 257.029 195.7 257.029C191.707 257.029 188.251 259.3 186.533 262.616C184.974 259.356 181.656 257.099 177.802 257.099C176.232 257.099 174.753 257.481 173.442 258.145C171.017 252.501 165.411 248.547 158.879 248.547C156.654 248.547 154.539 249.009 152.618 249.837C151.748 237.811 141.74 228.319 129.492 228.319C116.779 228.319 106.467 238.543 106.297 251.215C102.87 247.625 98.0489 245.378 92.6949 245.378C84.8199 245.378 78.0839 250.219 75.2779 257.084C73.1429 255.253 70.3739 254.141 67.3399 254.141C61.5929 254.141 56.7869 258.116 55.4869 263.463C55.2609 264.391 55.1289 265.355 55.1289 266.353C55.1289 268.56 55.7229 270.625 56.7479 272.412H75.7849H77.9329H109.606H119.407H139.579H145.227H169.934H172.533H185.672H186.705H204.695C205.538 270.917 206.024 269.194 206.024 267.355C206.024 265.975 205.749 264.663 205.259 263.461Z" fill="white"/>
<path d="M349.019 119.159L354.777 117.63L352.73 109.923L346.972 111.452C346.364 110.419 345.641 109.477 344.821 108.637L347.811 103.484L340.914 99.482L337.924 104.635C336.789 104.34 335.611 104.179 334.413 104.164L332.884 98.406L325.177 100.453L326.706 106.211C325.673 106.819 324.731 107.542 323.891 108.362L318.738 105.372L314.736 112.269L319.889 115.259C319.594 116.394 319.433 117.572 319.418 118.77L313.66 120.299L315.707 128.006L321.465 126.477C322.073 127.51 322.796 128.452 323.616 129.292L320.626 134.445L327.523 138.447L330.513 133.294C331.648 133.589 332.826 133.749 334.024 133.765L335.553 139.523L343.26 137.476L341.731 131.718C342.764 131.11 343.706 130.387 344.546 129.567L349.699 132.557L353.701 125.66L348.548 122.67C348.843 121.534 349.004 120.357 349.019 119.159ZM335.896 125.279C332.408 126.205 328.83 124.129 327.903 120.641C326.976 117.153 329.053 113.575 332.541 112.649C336.029 111.723 339.607 113.799 340.533 117.287C341.46 120.775 339.384 124.353 335.896 125.279Z" fill="#FFB600"/>
<path d="M181.125 363.265L190.96 360.653L187.464 347.489L177.63 350.101C176.592 348.337 175.356 346.727 173.956 345.293L179.064 336.491L167.284 329.655L162.176 338.457C160.237 337.953 158.225 337.679 156.179 337.653L153.567 327.818L140.404 331.314L143.016 341.148C141.252 342.186 139.642 343.422 138.208 344.822L129.406 339.714L122.57 351.494L131.372 356.602C130.868 358.541 130.594 360.553 130.568 362.599L120.733 365.211L124.229 378.374L134.063 375.762C135.101 377.526 136.337 379.136 137.737 380.57L132.629 389.372L144.409 396.208L149.517 387.406C151.456 387.91 153.468 388.184 155.514 388.21L158.126 398.044L171.289 394.548L168.677 384.714C170.441 383.676 172.051 382.44 173.485 381.04L182.287 386.148L189.123 374.368L180.321 369.26C180.824 367.323 181.099 365.312 181.125 363.265ZM158.71 373.72C152.753 375.302 146.641 371.756 145.059 365.798C143.477 359.841 147.023 353.729 152.981 352.146C158.938 350.564 165.05 354.11 166.633 360.068C168.214 366.026 164.668 372.137 158.71 373.72Z" fill="#FFB600"/>
<path d="M202.302 187.534H179.262V360.619H225.323" stroke="#5523E2" stroke-width="2" stroke-miterlimit="10" stroke-dasharray="4 4"/>
<path d="M166.094 244.89H130.577V289.208H166.094" stroke="#5523E2" stroke-width="2" stroke-miterlimit="10" stroke-dasharray="4 4"/>
<path d="M162.881 308.166H303.247V270.252H162.881V308.166Z" fill="#FF2951"/>
<path d="M204.572 282.448H292.696V278.281H204.572V282.448Z" fill="white"/>
<path d="M204.572 290.782H292.696V286.615H204.572V290.782Z" fill="white"/>
<path d="M204.647 299.116H250.58V294.778H204.647V299.116Z" fill="white"/>
<path d="M171.329 300.295H194.555V277.069H171.329V300.295Z" fill="white"/>
<path d="M162.881 264.374H303.247V226.46H162.881V264.374Z" fill="#FFB600"/>
<path d="M204.572 238.657H292.696V234.49H204.572V238.657Z" fill="white"/>
<path d="M204.572 246.99H292.696V242.823H204.572V246.99Z" fill="white"/>
<path d="M204.647 255.325H250.58V250.987H204.647V255.325Z" fill="white"/>
<path d="M171.329 256.502H194.555V233.276H171.329V256.502Z" fill="white"/>
<path d="M225.323 166.463V151.001H355.544V179.112" stroke="#5523E2" stroke-width="2" stroke-miterlimit="10" stroke-dasharray="4 4"/>
<path d="M377.04 179.112H334.381C330.181 179.112 326.745 182.548 326.745 186.748V229.407C326.745 233.607 330.181 237.043 334.381 237.043H377.04C381.24 237.043 384.676 233.607 384.676 229.407V186.748C384.676 182.548 381.24 179.112 377.04 179.112Z" fill="#5523E2"/>
<path d="M380.103 190.615H331.317V230.887H380.103V190.615Z" fill="#FFB600"/>
<path d="M362.048 202.076C362.048 205.668 359.136 208.58 355.544 208.58C351.952 208.58 349.04 205.668 349.04 202.076C349.04 198.484 351.952 195.572 355.544 195.572C359.136 195.572 362.048 198.484 362.048 202.076Z" fill="white"/>
<path d="M368.013 226.577H343.408V220.657C343.408 214.645 348.282 209.771 354.294 209.771H357.128C363.14 209.771 368.014 214.645 368.014 220.657V226.577H368.013Z" fill="white"/>
<path d="M334.219 185.137C334.219 185.938 333.569 186.588 332.768 186.588C331.967 186.588 331.317 185.939 331.317 185.137C331.317 184.335 331.967 183.686 332.768 183.686C333.569 183.687 334.219 184.336 334.219 185.137Z" fill="#FFC154"/>
<path d="M339.603 185.137C339.603 185.938 338.953 186.588 338.152 186.588C337.351 186.588 336.701 185.939 336.701 185.137C336.701 184.335 337.351 183.686 338.152 183.686C338.953 183.687 339.603 184.336 339.603 185.137Z" fill="#FFC154"/>
<path d="M343.536 186.588C344.337 186.588 344.987 185.938 344.987 185.137C344.987 184.335 344.337 183.686 343.536 183.686C342.735 183.686 342.085 184.335 342.085 185.137C342.085 185.938 342.735 186.588 343.536 186.588Z" fill="#FFC154"/>
<path d="M245.344 164.452H208.837C205.243 164.452 202.302 167.393 202.302 170.987V207.494C202.302 211.088 205.243 214.029 208.837 214.029H245.344C248.938 214.029 251.879 211.088 251.879 207.494V170.987C251.879 167.392 248.938 164.452 245.344 164.452Z" fill="#5523E2"/>
<path d="M247.966 174.296H206.215V208.761H247.966V174.296Z" fill="#EDEDFC"/>
<path d="M207.456 170.85C208.142 170.85 208.698 170.294 208.698 169.608C208.698 168.922 208.142 168.366 207.456 168.366C206.77 168.366 206.214 168.922 206.214 169.608C206.214 170.294 206.77 170.85 207.456 170.85Z" fill="#FFC154"/>
<path d="M213.306 169.608C213.306 170.294 212.75 170.85 212.064 170.85C211.378 170.85 210.822 170.294 210.822 169.608C210.822 168.922 211.378 168.366 212.064 168.366C212.75 168.366 213.306 168.922 213.306 169.608Z" fill="#FFC154"/>
<path d="M216.671 170.85C217.357 170.85 217.913 170.294 217.913 169.608C217.913 168.922 217.357 168.366 216.671 168.366C215.985 168.366 215.429 168.922 215.429 169.608C215.429 170.294 215.985 170.85 216.671 170.85Z" fill="#FFC154"/>
<path d="M219.507 201.141L210.743 192.377L219.627 183.493L221.117 184.982L213.722 192.377L220.996 199.652L219.507 201.141Z" fill="#5523E2"/>
<path d="M234.553 201.141L233.064 199.652L240.459 192.257L233.184 184.982L234.674 183.493L243.437 192.257L234.553 201.141Z" fill="#5523E2"/>
<path d="M229.316 184.51L222.9 199.993L224.846 200.8L231.262 185.316L229.316 184.51Z" fill="#5523E2"/>
<path d="M251.879 170.986H414.573" stroke="#5523E2" stroke-width="2" stroke-miterlimit="10" stroke-dasharray="4 4"/>
<path d="M546.271 148.574H421.102C416.999 148.574 413.642 151.931 413.642 156.034V219.033C413.642 223.136 416.999 226.493 421.102 226.493H546.271C550.374 226.493 553.731 223.136 553.731 219.033V156.034C553.731 151.932 550.374 148.574 546.271 148.574Z" fill="#5523E2"/>
<path d="M548.965 161.423H418.408V221.521H548.965V161.423Z" fill="#E3E6FF"/>
<path d="M423.796 157.693C424.884 157.693 425.765 156.811 425.765 155.724C425.765 154.636 424.884 153.755 423.796 153.755C422.709 153.755 421.827 154.636 421.827 155.724C421.827 156.811 422.709 157.693 423.796 157.693Z" fill="#FFB600"/>
<path d="M434.157 155.724C434.157 156.811 433.276 157.693 432.188 157.693C431.101 157.693 430.219 156.812 430.219 155.724C430.219 154.636 431.1 153.755 432.188 153.755C433.276 153.755 434.157 154.637 434.157 155.724Z" fill="#FFB600"/>
<path d="M440.582 157.693C441.67 157.693 442.551 156.811 442.551 155.724C442.551 154.636 441.67 153.755 440.582 153.755C439.495 153.755 438.613 154.636 438.613 155.724C438.613 156.811 439.495 157.693 440.582 157.693Z" fill="#FFB600"/>
<path d="M448.436 205.157C445.979 205.157 443.698 204.777 441.593 204.017C439.516 203.227 437.703 202.116 436.153 200.683C434.633 199.25 433.448 197.554 432.6 195.594C431.752 193.635 431.328 191.471 431.328 189.102C431.328 186.734 431.752 184.57 432.6 182.61C433.448 180.651 434.633 178.955 436.153 177.522C437.703 176.089 439.516 174.992 441.593 174.232C443.698 173.442 445.979 173.048 448.436 173.048C451.448 173.048 454.109 173.574 456.419 174.627C458.759 175.68 460.689 177.2 462.21 179.189L455.674 185.023C454.767 183.882 453.758 183.005 452.647 182.391C451.565 181.748 450.337 181.426 448.962 181.426C447.88 181.426 446.901 181.601 446.023 181.952C445.146 182.303 444.386 182.815 443.742 183.488C443.128 184.16 442.646 184.979 442.295 185.944C441.944 186.88 441.768 187.933 441.768 189.102C441.768 190.272 441.944 191.34 442.295 192.305C442.646 193.24 443.128 194.045 443.742 194.717C444.386 195.39 445.146 195.902 446.023 196.252C446.901 196.603 447.88 196.779 448.962 196.779C450.337 196.779 451.565 196.472 452.647 195.858C453.758 195.214 454.767 194.322 455.674 193.182L462.21 199.016C460.689 200.975 458.759 202.496 456.419 203.578C454.109 204.631 451.448 205.157 448.436 205.157ZM465.199 204.455V173.749H473.708L485.991 193.796H481.517L493.448 173.749H501.958L502.046 204.455H492.615L492.527 187.962H494.018L485.859 201.692H481.297L472.787 187.962H474.63V204.455H465.199ZM518.5 205.157C515.926 205.157 513.44 204.865 511.042 204.28C508.645 203.695 506.671 202.935 505.121 201.999L508.454 194.454C509.917 195.302 511.54 195.989 513.324 196.516C515.137 197.013 516.891 197.261 518.587 197.261C519.582 197.261 520.357 197.203 520.912 197.086C521.497 196.94 521.921 196.75 522.184 196.516C522.448 196.252 522.579 195.945 522.579 195.594C522.579 195.039 522.272 194.6 521.658 194.279C521.044 193.957 520.225 193.694 519.201 193.489C518.207 193.255 517.111 193.021 515.912 192.787C514.713 192.524 513.499 192.188 512.271 191.778C511.072 191.369 509.96 190.828 508.937 190.155C507.943 189.483 507.138 188.605 506.524 187.523C505.91 186.412 505.603 185.038 505.603 183.4C505.603 181.499 506.13 179.774 507.182 178.224C508.264 176.645 509.858 175.387 511.964 174.451C514.098 173.516 516.745 173.048 519.903 173.048C521.98 173.048 524.027 173.267 526.044 173.706C528.062 174.144 529.875 174.817 531.484 175.723L528.369 183.224C526.849 182.464 525.372 181.894 523.939 181.514C522.535 181.133 521.161 180.943 519.816 180.943C518.821 180.943 518.032 181.031 517.447 181.207C516.862 181.382 516.438 181.616 516.175 181.908C515.941 182.201 515.824 182.523 515.824 182.873C515.824 183.4 516.131 183.824 516.745 184.146C517.359 184.438 518.163 184.687 519.158 184.891C520.181 185.096 521.292 185.315 522.491 185.549C523.72 185.783 524.933 186.105 526.132 186.514C527.331 186.924 528.428 187.465 529.422 188.137C530.446 188.81 531.264 189.687 531.879 190.769C532.493 191.851 532.8 193.197 532.8 194.805C532.8 196.677 532.259 198.402 531.177 199.981C530.124 201.531 528.545 202.788 526.439 203.753C524.334 204.689 521.687 205.157 518.5 205.157Z" fill="#FF2951"/>
<path d="M450.07 224.602C449.869 225.204 450.07 251.339 450.07 251.339" stroke="#5523E2" stroke-width="2" stroke-miterlimit="10" stroke-dasharray="4 4"/>
<path d="M473.133 287.999H499.026V315.32" stroke="#5523E2" stroke-width="2" stroke-miterlimit="10" stroke-dasharray="4 4"/>
<path d="M513.844 370.415V402.323H654.027V339.264H620.913" stroke="#5523E2" stroke-width="2" stroke-miterlimit="10" stroke-dasharray="4 4"/>
<path d="M564.583 302.792H528.083V225.404" stroke="#5523E2" stroke-width="2" stroke-miterlimit="10" stroke-dasharray="4 4"/>
<path d="M300.064 325.673L285.207 313.642L297.102 294.951C289.85 294.366 280.259 296.541 275.592 302.304C268.944 310.514 269.522 322.36 276.263 330.966L214.33 404.121C211.539 407.568 212.07 412.624 215.517 415.415C218.964 418.206 224.02 417.674 226.811 414.228L285.475 338.457C295.296 343.266 307.015 341.347 313.665 333.135C318.332 327.372 317.981 317.558 315.902 310.586L300.064 325.673ZM221.887 412.822C219.771 413.451 217.547 412.245 216.918 410.129C216.289 408.013 217.495 405.788 219.611 405.16C221.727 404.531 223.952 405.737 224.58 407.853C225.209 409.969 224.003 412.193 221.887 412.822Z" fill="#5523E2"/>
<path d="M218.451 414.543C215.004 411.752 214.473 406.695 217.264 403.249L279.197 330.094C272.456 321.488 271.878 309.642 278.526 301.432C280.973 298.41 285.186 296.738 288.659 295.442C284.026 296.48 278.712 298.451 275.592 302.304C268.944 310.514 269.522 322.36 276.263 330.966L214.33 404.12C211.539 407.567 212.07 412.623 215.517 415.414C218.081 417.491 221.535 417.725 224.286 416.291C222.26 416.49 220.158 415.925 218.451 414.543Z" fill="#421DCC"/>
<path d="M340.35 384.59H406.083L408.283 400.095H338.174L340.35 384.59Z" fill="#5F7AFF"/>
</svg>
