<svg width="600" height="425" viewBox="0 0 600 425" fill="none" xmlns="http://www.w3.org/2000/svg">
<g clip-path="url(#clip0_99_6)">
<path d="M261.305 91.2207C241.718 20.1651 153.45 -2.72499 102.864 50.379C102.137 51.1411 101.413 51.917 100.687 52.7054C28.165 131.54 62.425 325.811 213.776 375.051C365.128 424.29 522.553 334.374 531.398 253.996C540.242 173.617 470.416 148.361 362.053 170.837C300.831 183.534 273.499 135.454 261.305 91.2207Z" stroke="#BBE2F2"/>
<path d="M387.208 103.374C366.958 106.67 361.346 124.612 376.982 137.339C382.15 141.546 389.53 145.042 400.044 146.785C440.096 153.43 461.35 135.709 445.295 112.733C435.386 98.5532 407.276 100.107 387.208 103.374Z" fill="#BBE2F2"/>
<path d="M64.3262 246.947C51.7367 230.746 33.2988 234.409 29.61 254.229C28.3904 260.781 28.8554 268.933 32.3575 278.999C45.699 317.344 71.4318 327.521 83.9172 302.426C91.6246 286.937 76.8028 263.001 64.3262 246.947Z" stroke="#BBE2F2"/>
<path d="M545.672 263.336C543.807 273.102 551.87 280.02 561.008 276.255C564.027 275.012 567.074 272.614 569.784 268.398C580.107 252.338 574.879 238.562 560.505 239.976C551.633 240.85 547.521 253.659 545.672 263.336Z" fill="#BBE2F2"/>
<path d="M494.478 160.283C504.211 162.315 511.264 154.37 507.656 145.171C506.464 142.13 504.118 139.043 499.95 136.261C484.069 125.666 470.205 130.659 471.375 145.055C472.097 153.94 484.833 158.27 494.478 160.283Z" fill="#BBE2F2"/>
<path d="M257.923 55.78C265.629 62.0622 275.547 58.2555 276.579 48.4274C276.92 45.1797 276.258 41.3593 273.836 36.9711C264.613 20.2553 250.008 18.3088 244.42 31.6277C240.972 39.8489 250.287 49.5542 257.923 55.78Z" fill="#BBE2F2"/>
<path d="M569.8 312.189C585.254 296.654 597.022 279.097 585.315 276.361C573.597 273.621 553.917 304.216 550.487 332.063L547.055 341.257C549.909 321.007 542.97 296.339 532.81 295.323C522.715 294.313 528.825 310.313 536.844 323.996C542.947 334.412 544.556 342.63 544.957 346.876L528.748 390.299C533.175 358.217 522.182 319.295 506.107 317.686C490.09 316.085 499.785 341.472 512.506 363.183C522.12 379.591 524.708 392.568 525.369 399.349L522.137 408.007C523.551 408.803 524.969 409.59 526.391 410.369L545.675 358.707C549.395 355.93 555.045 352.573 563.088 349.852C578.111 344.769 593.212 336.687 584.924 330.835C577.732 325.756 560.823 335.532 549.176 349.328L555.846 331.462C558.853 326.29 563.131 318.894 569.8 312.189Z" fill="#1C31B5"/>
<path d="M82.6716 109.513C84.6758 90.7507 83.1153 72.6161 73.7773 77.0884C64.4305 81.5656 67.7069 112.721 80.4142 133.271L83.0652 141.295C74.0656 126.158 56.109 113.333 48.7388 118.126C41.415 122.889 54.1436 130.34 66.9035 135.207C76.6176 138.912 82.1264 143.564 84.6859 146.2L97.2076 184.1C82.8872 160.168 54.5234 139.955 42.8615 147.54C31.241 155.098 51.4362 166.922 71.6841 174.645C86.9847 180.481 95.7185 187.801 99.8173 191.999L102.314 199.556C103.693 199.329 105.069 199.093 106.444 198.849L91.5471 153.759C92.5486 149.889 94.5328 144.589 98.4673 138.426C105.817 126.915 111.601 113.348 102.881 113.884C95.3124 114.35 89.227 130.031 88.8422 145.573L83.6906 129.981C82.921 124.884 81.8068 117.612 82.6716 109.513Z" fill="#1C31B5"/>
<path d="M465.483 363.796C465.679 364.859 465.906 366.02 466.172 367.253V367.256C468.955 380.193 475.786 401.371 491.157 405.537C491.157 405.537 482.79 361.912 512.609 350.55C542.428 339.188 539.13 328.369 537.426 309.113C535.721 289.856 529.132 286.185 549.822 268.147C570.512 250.109 566.555 223.242 566.555 223.242C566.555 223.242 546.974 253.918 526.061 254.63C505.147 255.342 501.484 273.196 502.376 286.473C503.267 299.75 485.506 301.251 475.895 308.952C466.284 316.653 464.474 357.094 464.474 357.094C464.474 357.094 464.739 359.739 465.483 363.796Z" fill="#009CF8"/>
<path d="M465.483 363.796C465.68 364.859 465.907 366.02 466.173 367.253C468.317 360.762 471.333 355.309 474.157 351.125C480.845 341.214 490.266 333.073 498.738 329.878C512.228 324.796 518.816 311.565 520.092 286.976C520.831 272.705 535.763 264.274 535.916 264.191C536.352 263.949 536.511 263.398 536.269 262.962C536.028 262.523 535.476 262.364 535.04 262.606C534.388 262.965 519.075 271.594 518.283 286.881C517.051 310.651 510.825 323.391 498.1 328.186C489.161 331.554 479.648 339.75 472.656 350.11C470.184 353.773 467.568 358.383 465.483 363.796Z" fill="#006BDE"/>
<path d="M135.423 405.3H156.377C145.055 403.429 116.984 391.378 114.481 367.213C111.311 336.606 100.411 336.988 82.0474 333.788C63.6821 330.587 58.6233 335.814 46.9627 312.051C35.302 288.29 9.28711 285.294 9.28711 285.294C9.28711 285.294 32.9982 311.166 28.4608 330.827C23.9234 350.49 39.6464 358.341 52.2383 360.813C64.8303 363.284 61.812 380.205 66.5963 391.075C68.7798 396.035 77.718 401.176 86.7903 405.3H135.423Z" fill="#006BDE"/>
<path d="M90.0382 375.17C90.9532 384.336 96.2239 395.237 104.137 404.328C104.415 404.648 104.705 404.973 105 405.298H107.384C106.703 404.58 106.056 403.871 105.455 403.18C97.8859 394.484 92.6428 383.683 91.7729 374.996C90.3917 361.164 79.7037 351.736 57.1119 344.432C43.9985 340.194 39.8572 324.187 39.8196 324.022C39.703 323.556 39.228 323.27 38.7617 323.387C38.2929 323.503 38.0071 323.977 38.1237 324.444C38.2967 325.14 42.5282 341.553 56.5729 346.093C78.4114 353.155 88.7334 362.122 90.0382 375.17Z" fill="#1C31B5"/>
<path d="M146.725 348.496C146.282 349.982 145.779 351.602 145.211 353.321L145.21 353.325C139.252 371.354 127.032 401.72 104.464 405.299C104.464 405.299 122.325 343.147 81.5321 322.354C40.7393 301.561 47.1067 286.635 52.499 259.427C57.8899 232.219 67.8547 227.994 41.1116 199.081C14.3684 170.168 24.1439 132.448 24.1439 132.448C24.1439 132.448 47.3624 179.22 77.0875 183.45C106.814 187.681 109.294 213.715 105.981 232.518C102.669 251.322 127.776 256.193 140.303 268.657C152.83 281.12 149.196 339.09 149.196 339.09C149.196 339.09 148.41 342.82 146.725 348.496Z" fill="#009CF8"/>
<path d="M146.725 348.496C146.281 349.982 145.778 351.602 145.211 353.321C143.15 343.731 139.684 335.489 136.3 329.086C128.282 313.92 116.095 300.858 104.5 294.998C86.0374 285.674 78.6748 265.786 80.6326 230.513C81.772 210.039 61.7673 195.716 61.5605 195.577C60.9751 195.165 60.8322 194.354 61.2446 193.769C61.6582 193.18 62.4692 193.037 63.0546 193.449C63.9282 194.062 84.4468 208.726 83.2285 230.656C81.3333 264.754 88.2547 283.885 105.67 292.684C117.905 298.864 130.216 312.018 138.599 327.872C141.561 333.473 144.585 340.451 146.725 348.496Z" fill="#006BDE"/>
<path d="M162.905 390.683C162.974 395.409 163.059 400.326 163.163 405.298H208.737C208.824 399.855 208.89 394.638 208.94 389.743C209.077 376.478 209.093 365.562 209.082 358.777C209.077 353.964 209.057 351.236 209.057 351.236L162.585 350.743C162.585 350.743 162.585 354.758 162.62 361.324C162.65 368.622 162.732 379.07 162.905 390.683Z" fill="#18315B"/>
<path d="M162.62 361.323C162.65 368.622 162.732 379.07 162.905 390.683C177.221 391.776 192.915 391.786 208.941 389.743C209.078 376.478 209.093 365.562 209.083 358.777L162.62 361.323Z" fill="#000B29"/>
<path d="M105.469 380.205C105.521 387.634 105.609 396.143 105.757 405.3H151.335C151.448 399.939 151.538 394.642 151.612 389.582C151.77 378.721 151.851 368.943 151.891 361.913C151.927 354.996 151.927 350.743 151.927 350.743L105.433 351.236C105.433 351.236 105.398 356.165 105.408 364.459C105.409 368.845 105.429 374.167 105.469 380.205Z" fill="#18315B"/>
<path d="M105.408 364.459C105.408 368.845 105.428 374.166 105.47 380.205C114.725 382.933 131.293 387.177 151.612 389.582C151.77 378.721 151.851 368.943 151.892 361.913L105.408 364.459Z" fill="#000B29"/>
<path d="M181.81 106.232C181.81 106.232 189.134 99.1788 189.11 92.2135C189.085 85.2482 184.35 87.3063 181.81 80.8161C179.269 74.3258 171.72 70.3675 167.58 71.1597C163.44 71.9518 154.698 55.8039 142.843 58.6529C130.987 61.502 132.019 76.6998 126.912 78.9158C121.806 81.1319 123.23 90.1554 125.922 92.2135C128.613 94.2716 129.752 102.542 131.267 102.355C132.779 102.168 181.81 106.232 181.81 106.232Z" fill="#18315B"/>
<path d="M132.518 106.065C132.518 106.065 127.913 99.9259 124.49 105.002C121.066 110.079 125.907 125.072 134.289 121.412L132.518 106.065Z" fill="#F97853"/>
<path d="M132.459 116.78C132.149 116.78 131.865 116.575 131.777 116.262C130.479 111.633 125.682 109.757 125.634 109.738C125.269 109.599 125.085 109.19 125.224 108.824C125.362 108.458 125.772 108.274 126.137 108.413C126.361 108.497 131.645 110.549 133.142 115.88C133.247 116.257 133.028 116.647 132.652 116.753C132.587 116.771 132.522 116.78 132.459 116.78Z" fill="#EA5143"/>
<path d="M127.618 114.447C127.486 114.447 127.354 114.41 127.236 114.334C126.907 114.122 126.812 113.683 127.024 113.355C127.059 113.3 127.908 112.006 129.682 111.212C130.037 111.051 130.458 111.212 130.618 111.569C130.777 111.926 130.618 112.345 130.26 112.504C128.888 113.118 128.221 114.112 128.215 114.121C128.078 114.333 127.85 114.447 127.618 114.447Z" fill="#EA5143"/>
<path d="M179.969 106.065C179.969 106.065 184.573 99.9259 187.998 105.002C191.421 110.079 186.581 125.072 178.198 121.412L179.969 106.065Z" fill="#F97853"/>
<path d="M180.028 116.779C180.337 116.779 180.622 116.575 180.71 116.262C182.008 111.633 186.804 109.756 186.853 109.738C187.218 109.598 187.402 109.19 187.263 108.824C187.124 108.458 186.715 108.273 186.35 108.413C186.126 108.497 180.841 110.548 179.345 115.879C179.239 116.257 179.459 116.646 179.836 116.753C179.9 116.77 179.965 116.779 180.028 116.779Z" fill="#EA5143"/>
<path d="M184.869 114.447C185.001 114.447 185.134 114.41 185.251 114.334C185.581 114.122 185.675 113.683 185.463 113.355C185.428 113.3 184.58 112.006 182.805 111.212C182.45 111.051 182.029 111.212 181.868 111.569C181.709 111.926 181.868 112.345 182.226 112.504C183.598 113.118 184.265 114.112 184.271 114.121C184.409 114.333 184.636 114.447 184.869 114.447Z" fill="#EA5143"/>
<path d="M167.58 134.131V149.042C167.58 149.042 163.133 156.636 157.12 157.153C151.113 157.676 145.774 150.615 145.774 150.615V135.18L167.58 134.131Z" fill="#FFA681"/>
<path d="M167.58 134.131V140.748C163.545 145.226 156.378 146.344 145.772 144.779V135.18L167.58 134.131Z" fill="#F97853"/>
<path d="M183.299 95.836C183.023 101.631 182.47 108.877 181.365 114.671C181.089 116.116 180.777 117.476 180.43 118.695C177.291 129.681 169.443 148.524 147.469 140.675C137.764 137.212 133.267 126.402 131.261 115.407C129.901 107.94 129.696 100.397 129.795 95.0062C129.901 89.5024 132.905 84.4724 137.693 81.76C150.663 74.4073 164.349 77.1486 173.359 80.6118C179.615 83.0146 183.617 89.1564 183.299 95.836Z" fill="#FFA681"/>
<path d="M131.264 115.407C131.264 115.407 133.396 128.11 135.41 132.742C137.428 137.372 142.929 138.246 144.995 142.159C147.942 147.739 152.434 152.162 159.823 149.468C165.971 147.225 165.693 144.082 169.137 141.65C175.038 137.483 177.963 132.898 178.201 129.099C178.438 125.3 181.368 114.671 181.368 114.671L178.201 114.448C178.201 114.448 176.396 118.186 173.741 122.303C171.076 116.452 158.24 120.708 158.24 120.708L155.789 121.501L153.273 120.708C153.273 120.708 140.283 116.633 137.719 122.768C136.147 120.365 134.87 117.663 134.289 114.799L131.264 115.407ZM155.788 123.48C170.511 120.953 167.88 129.573 167.785 129.883V129.888C167.78 129.893 167.78 129.893 167.78 129.893C166.782 130.843 165.766 131.64 164.754 132.187C159.05 135.269 158.433 134.804 156.182 134.903C153.893 135.012 150.734 134.332 147.529 132.542C146.532 131.982 145.041 130.899 143.407 129.408C143.407 129.408 141.094 121.5 155.788 123.48Z" fill="#18315B"/>
<path d="M146.94 108.011C146.94 109.602 146.121 110.892 145.108 110.892C144.096 110.892 143.275 109.602 143.275 108.011C143.275 106.419 144.096 105.129 145.108 105.129C146.119 105.129 146.94 106.419 146.94 108.011Z" fill="#18315B"/>
<path d="M168.723 108.011C168.723 109.602 167.902 110.892 166.89 110.892C165.879 110.892 165.058 109.602 165.058 108.011C165.058 106.419 165.877 105.129 166.89 105.129C167.902 105.129 168.723 106.419 168.723 108.011Z" fill="#18315B"/>
<path d="M174.101 98.5207C174.101 98.5207 166.529 95.5287 160.699 98.0469L161.282 101.289C161.282 101.289 169.838 100.566 174.15 102.312C174.537 101.064 174.593 99.8029 174.101 98.5207Z" fill="#18315B"/>
<path d="M138.102 98.536C138.102 98.536 145.729 95.5216 151.602 98.0585L151.014 101.325C151.014 101.325 142.394 100.595 138.051 102.355C137.663 101.098 137.606 99.8271 138.102 98.536Z" fill="#18315B"/>
<path d="M156.491 120.09C157.685 120.09 158.871 119.625 159.055 119.55C159.418 119.402 159.59 118.988 159.443 118.627C159.296 118.265 158.881 118.091 158.52 118.239C157.881 118.498 156.344 118.906 155.679 118.507C155.549 118.43 155.375 118.278 155.33 117.848C155.074 115.373 155.751 107.082 155.759 106.999C155.791 106.609 155.501 106.267 155.111 106.236C154.72 106.203 154.379 106.494 154.347 106.884C154.319 107.23 153.653 115.391 153.923 117.994C154.024 118.974 154.538 119.476 154.953 119.724C155.404 119.994 155.949 120.09 156.491 120.09Z" fill="#F97853"/>
<path d="M147.46 124.898C147.998 127.604 149.785 132.581 155.807 132.581C161.843 132.581 163.535 128.033 164.117 124.898H147.46Z" fill="white"/>
<path d="M183.299 95.836C183.023 101.631 182.471 108.877 181.365 114.671L178.199 114.447C178.199 114.447 178.966 109.555 179.321 106.366C179.675 103.179 180.277 97.2198 177.556 96.4765C174.842 95.7395 176.435 88.9421 172.66 85.9953C168.885 83.041 160.497 80.4414 154.929 83.8708C149.361 87.2926 143.028 85.4012 140.464 85.9953C137.894 86.5832 134.408 90.1254 135.35 93.4332C136.299 96.7334 133.467 98.7464 132.78 102.167C132.093 105.589 134.289 114.797 134.289 114.797L131.264 115.406C129.904 107.939 129.699 100.396 129.798 95.005C129.904 89.5012 132.907 84.4712 137.696 81.7587C150.666 74.4061 164.352 77.1474 173.362 80.6106C179.615 83.0147 183.617 89.1565 183.299 95.836Z" fill="#18315B"/>
<path d="M218.687 373.642C204.354 377.272 190.021 379.619 175.678 380.7C175.027 380.747 174.383 380.795 173.732 380.839C171.761 380.972 169.789 381.082 167.819 381.167C158.063 381.587 148.305 381.423 138.546 380.671C136.578 380.519 134.613 380.345 132.645 380.143C132.017 380.083 131.388 380.017 130.756 379.944C119.105 378.681 107.457 376.576 95.7967 373.642C95.6801 362.901 95.813 328.943 96.4723 292.118C96.5487 287.692 96.6339 283.224 96.7317 278.751C97.7645 230.217 99.7575 180.951 103.344 176.016C106.78 171.293 117.14 165.291 127.043 159.876C127.634 159.554 128.225 159.232 128.812 158.912C131.039 157.702 133.215 156.53 135.263 155.417C139.652 153.03 143.436 150.906 145.773 149.267V150.616C145.773 150.616 151.105 157.674 157.114 157.152C162.592 156.682 166.762 150.354 167.47 149.219C170.055 151.039 174.695 153.547 180.075 156.39C181.573 157.184 183.12 157.994 184.7 158.832C185.281 159.138 185.865 159.447 186.453 159.761C197.406 165.57 209.214 172.119 212.759 176.988C213.025 177.347 213.277 177.952 213.517 178.779C215.616 185.881 216.917 209.448 217.709 237.987C217.713 238.089 217.715 238.193 217.719 238.297C217.754 239.45 217.782 240.612 217.81 241.781C217.817 241.933 217.819 242.088 217.823 242.242C218.082 252.254 218.278 262.792 218.43 273.383C218.442 274.222 218.458 275.063 218.467 275.903C218.471 276.327 218.477 276.743 218.48 277.167C218.515 279.251 218.536 281.337 218.556 283.412C218.579 284.944 218.598 286.473 218.61 288.006C219.006 326.284 218.844 362.389 218.687 373.642Z" fill="#006BDE"/>
<path d="M217.811 241.783C214.362 236.15 210.659 230.4 207.171 225.314C207.161 225.301 207.152 225.289 207.146 225.276C205.681 223.14 204.256 221.125 202.901 219.283C202.878 219.248 202.857 219.217 202.832 219.188C202.408 218.61 201.988 218.048 201.577 217.501C201.511 217.406 201.46 217.308 201.429 217.204L201.425 217.2C201.315 216.831 201.438 216.421 201.764 216.174C202.184 215.854 202.781 215.937 203.097 216.357C207.286 221.907 212.645 229.887 217.711 237.987C217.715 238.089 217.717 238.193 217.721 238.297C217.755 239.451 217.783 240.614 217.811 241.783Z" fill="#264CBE"/>
<path d="M212.906 176.206C212.906 176.206 234.522 215.806 247.698 235.878C247.698 235.878 255.191 228.994 264.936 219.785C275.503 209.8 289.953 193.113 289.953 193.113L297.95 202.597C297.95 202.597 265.481 261.025 250.919 268.369C236.355 275.713 209.52 223.737 209.52 223.737L212.906 176.206Z" fill="#006BDE"/>
<path d="M121.387 332.283C121.375 332.283 121.363 332.283 121.352 332.283C120.813 332.264 120.391 331.81 120.41 331.27C121.543 299.289 104.96 288.928 104.792 288.827C104.331 288.549 104.179 287.949 104.456 287.486C104.733 287.024 105.331 286.872 105.795 287.148C105.979 287.257 110.363 289.92 114.609 296.745C118.484 302.975 122.977 314.034 122.362 331.339C122.345 331.866 121.911 332.283 121.387 332.283Z" fill="#264CBE"/>
<path d="M192.134 302.153C191.629 302.153 191.201 301.764 191.16 301.252C190.635 294.517 192.854 289.605 195.663 283.385C196.485 281.565 197.334 279.685 198.203 277.576C203.655 264.356 200.915 249.241 200.887 249.089C200.788 248.559 201.136 248.047 201.668 247.948C202.199 247.848 202.709 248.199 202.809 248.729C202.929 249.37 205.68 264.57 200.011 278.321C199.128 280.461 198.272 282.356 197.444 284.191C194.645 290.388 192.623 294.865 193.109 301.101C193.151 301.639 192.748 302.11 192.211 302.151C192.186 302.151 192.161 302.153 192.134 302.153Z" fill="#264CBE"/>
<path d="M135.265 155.417C135.682 158.566 136.295 162.651 136.964 167.29C137.169 168.667 137.373 170.096 137.582 171.564C138.262 176.356 138.965 181.57 139.563 186.842C139.724 188.257 139.876 189.677 140.019 191.092C140.547 196.312 140.945 201.497 141.088 206.318C141.136 207.776 141.154 209.201 141.146 210.583C141.136 214.263 140.931 217.645 140.485 220.538C140.199 222.367 139.949 224.152 139.726 225.9C139.54 227.349 139.375 228.773 139.227 230.174C138.656 235.613 138.372 240.675 138.292 245.447C138.268 246.896 138.263 248.316 138.278 249.708C138.321 255.126 138.629 260.175 139.075 264.981C139.208 266.42 139.355 267.835 139.507 269.231C140.092 274.484 140.804 279.484 141.474 284.429C141.668 285.844 141.859 287.254 142.044 288.665C142.334 290.925 142.61 293.187 142.847 295.462C143.099 297.874 143.26 300.695 143.335 303.824C143.373 305.192 143.392 306.622 143.397 308.099C143.416 312.776 143.297 317.958 143.079 323.377C143.022 324.792 142.959 326.226 142.889 327.675C142.647 332.708 142.329 337.885 141.973 342.995C141.869 344.434 141.764 345.864 141.655 347.288C141.26 352.608 140.824 357.79 140.381 362.609C140.248 364.072 140.115 365.502 139.983 366.888C139.474 372.193 138.981 376.909 138.549 380.671C148.308 381.422 158.068 381.587 167.822 381.165C168.051 377.161 168.672 370.702 169.285 363.099C169.399 361.708 169.508 360.274 169.617 358.811C169.983 353.977 170.316 348.81 170.534 343.594C170.595 342.166 170.648 340.73 170.685 339.301C170.833 334.096 170.837 328.924 170.614 324.076C170.547 322.603 170.462 321.164 170.348 319.764C170.234 318.33 170.096 316.934 169.931 315.585C169.461 311.776 169.28 308.12 169.304 304.501C169.309 303.067 169.347 301.642 169.413 300.213C169.636 295.255 170.178 290.287 170.804 285.012C170.971 283.61 171.147 282.185 171.322 280.733C171.887 276.041 172.476 271.064 172.941 265.616C173.064 264.22 173.175 262.791 173.279 261.328C173.602 256.655 173.82 251.635 173.854 246.164C173.863 244.754 173.859 243.315 173.84 241.842C173.788 237.107 173.588 232.041 173.203 226.583C173.17 226.099 173.137 225.609 173.099 225.115C173.028 224.16 172.967 223.196 172.924 222.233C172.672 217.255 172.738 212.136 173.019 207.031C173.096 205.597 173.19 204.163 173.3 202.728C173.694 197.618 174.269 192.555 174.933 187.702C175.127 186.258 175.332 184.829 175.541 183.423C176.339 178.103 177.198 173.098 177.986 168.625C178.248 167.153 178.499 165.737 178.737 164.388C179.274 161.367 179.739 158.675 180.081 156.395C174.7 153.55 170.06 151.043 167.476 149.224C166.768 150.36 162.599 156.685 157.118 157.156C151.11 157.678 145.777 150.62 145.777 150.62V149.272C143.437 150.906 139.653 153.03 135.265 155.417Z" fill="white"/>
<path d="M136.964 167.291C137.168 168.669 137.372 170.098 137.582 171.565C142.973 171.688 149.303 170.881 156.93 169.12C165.098 167.24 172.303 167.567 177.982 168.621C178.244 167.149 178.495 165.733 178.733 164.384C172.579 163.249 164.814 162.922 155.971 164.958C148.443 166.693 142.173 167.49 136.964 167.291Z" fill="#E3E3E3"/>
<path d="M139.562 186.843C139.724 188.258 139.876 189.679 140.019 191.094C144.858 190.966 150.425 190.157 156.931 188.652C163.69 187.094 169.796 187.056 174.93 187.697C175.125 186.253 175.329 184.824 175.538 183.418C169.972 182.73 163.348 182.786 155.972 184.487C149.654 185.946 144.221 186.743 139.562 186.843Z" fill="#E3E3E3"/>
<path d="M141.087 206.319C141.135 207.777 141.153 209.202 141.145 210.585C145.718 210.37 150.924 209.573 156.93 208.186C162.866 206.818 168.3 206.623 173.015 207.027C173.092 205.594 173.186 204.16 173.296 202.724C168.224 202.307 162.378 202.544 155.971 204.02C150.333 205.323 145.399 206.097 141.087 206.319Z" fill="#E3E3E3"/>
<path d="M139.226 230.174C144.251 230.118 150.063 229.301 156.93 227.719C162.943 226.333 168.442 226.152 173.201 226.58C173.167 226.096 173.135 225.606 173.097 225.112C173.026 224.157 172.964 223.193 172.921 222.229C167.935 221.854 162.222 222.11 155.971 223.554C149.727 224.998 144.35 225.786 139.724 225.9C139.539 227.349 139.372 228.774 139.226 230.174Z" fill="#E3E3E3"/>
<path d="M138.275 249.708C143.513 249.751 149.626 248.938 156.93 247.252C163.232 245.8 168.955 245.662 173.851 246.161C173.86 244.751 173.856 243.312 173.837 241.839C168.642 241.359 162.61 241.558 155.971 243.087C149.071 244.678 143.229 245.481 138.29 245.448C138.265 246.896 138.26 248.317 138.275 249.708Z" fill="#E3E3E3"/>
<path d="M139.072 264.982C139.205 266.421 139.352 267.836 139.505 269.232C144.463 269.152 150.19 268.34 156.93 266.787C162.842 265.424 168.252 265.215 172.94 265.614C173.063 264.217 173.173 262.788 173.277 261.326C168.204 260.908 162.368 261.145 155.971 262.622C149.436 264.127 143.842 264.929 139.072 264.982Z" fill="#E3E3E3"/>
<path d="M141.473 284.429C141.667 285.844 141.857 287.255 142.043 288.666C146.399 288.395 151.308 287.617 156.931 286.32C161.965 285.156 166.634 284.838 170.804 285.008C170.971 283.607 171.146 282.182 171.322 280.729C166.724 280.52 161.563 280.862 155.972 282.154C150.496 283.414 145.689 284.182 141.473 284.429Z" fill="#E3E3E3"/>
<path d="M143.334 303.825C143.372 305.192 143.39 306.622 143.395 308.099C147.409 307.762 151.887 307.016 156.93 305.848C161.371 304.826 165.526 304.456 169.301 304.499C169.306 303.065 169.344 301.64 169.41 300.211C165.312 300.168 160.8 300.572 155.97 301.688C151.289 302.767 147.091 303.484 143.334 303.825Z" fill="#E3E3E3"/>
<path d="M142.886 327.675C147.027 327.357 151.667 326.592 156.929 325.381C161.883 324.242 166.485 323.913 170.612 324.075C170.545 322.602 170.46 321.163 170.346 319.763C166 319.639 161.171 320.02 155.97 321.216C151.178 322.323 146.899 323.05 143.076 323.377C143.019 324.793 142.957 326.227 142.886 327.675Z" fill="#E3E3E3"/>
<path d="M141.652 347.29C146.102 347.038 151.141 346.249 156.93 344.916C161.855 343.78 166.429 343.448 170.533 343.596C170.594 342.167 170.647 340.732 170.684 339.303C166.253 339.151 161.31 339.521 155.972 340.752C150.715 341.968 146.069 342.722 141.971 342.998C141.865 344.436 141.761 345.865 141.652 347.29Z" fill="#E3E3E3"/>
<path d="M139.98 366.89C144.83 366.767 150.405 365.955 156.931 364.448C161.361 363.427 165.513 363.052 169.283 363.099C169.397 361.708 169.506 360.274 169.615 358.811C165.46 358.75 160.881 359.149 155.97 360.283C150.02 361.655 144.853 362.439 140.379 362.611C140.246 364.073 140.113 365.504 139.98 366.89Z" fill="#E3E3E3"/>
<path d="M173.73 380.838C174.381 380.795 175.027 380.747 175.677 380.7C179.524 358.084 177.306 324.887 176.479 314.714C175.624 304.152 177.268 290.569 180.987 277.461C183.874 267.279 182.102 243.671 180.682 224.703C180.283 219.38 179.904 214.35 179.68 210.218C178.953 196.863 183.788 172.149 186.453 159.763C185.864 159.449 185.28 159.141 184.7 158.832C182.032 171.094 177.021 196.369 177.78 210.322C178.008 214.474 178.388 219.513 178.787 224.846C180.197 243.667 181.954 267.085 179.162 276.94C175.381 290.261 173.714 304.086 174.588 314.866C175.411 325.054 177.644 358.459 173.73 380.838Z" fill="#264CBE"/>
<path d="M134.328 288.817C136.589 302.723 135.876 311.756 135.05 322.208C134.784 325.59 134.508 329.081 134.314 332.937C133.711 345.037 131.664 369.405 130.757 379.944C131.388 380.015 132.015 380.082 132.647 380.143C133.554 369.604 135.606 345.175 136.213 333.032C136.403 329.204 136.678 325.723 136.945 322.36C137.776 311.784 138.498 302.646 136.199 288.513C135.71 285.478 135.187 282.401 134.67 279.337C132.11 264.182 129.459 248.511 130.714 241.003C131.017 239.169 131.407 237.089 131.826 234.886C133.525 225.825 135.649 214.55 134.979 204.766C134.314 195.068 130.339 168.81 128.815 158.913C128.226 159.231 127.638 159.555 127.044 159.877C128.635 170.225 132.439 195.477 133.084 204.894C133.735 214.435 131.64 225.582 129.959 234.534C129.541 236.747 129.147 238.837 128.839 240.688C127.538 248.511 130.092 263.636 132.8 279.655C133.316 282.715 133.834 285.788 134.328 288.817Z" fill="#264CBE"/>
<path d="M96.9457 192.145C96.9457 192.145 77.5965 256.67 72.8047 279.665C68.0128 302.661 67.6418 350.465 67.6418 350.465C67.6418 350.465 59.1824 368.026 58.9831 375.839C58.7701 384.17 63.1433 390.799 62.6444 396.25C62.1455 401.703 68.7824 398.742 66.9073 387.699C65.0322 376.657 70.3517 366.656 72.648 366.976C74.9443 367.297 70.7478 379.033 72.7871 383.262C74.8252 387.491 77.4649 379.276 80.0884 374.291C82.8133 369.115 82.6529 357.821 81.4132 349.759C80.1736 341.697 94.7873 292.728 94.8575 278.54L113.363 216.007C113.363 216.007 107.25 189.903 96.9457 192.145Z" fill="#FFA681"/>
<path d="M115.735 214.437C115.079 218.583 112.786 225.701 109.822 234.658V234.663C109.571 235.418 109.314 236.187 109.058 236.971C109.044 237.003 109.029 237.042 109.02 237.08C108.279 239.307 107.505 241.639 106.708 244.051C106.703 244.065 106.699 244.08 106.694 244.094C103.412 254.058 99.7787 265.456 96.7304 277.167C95.6813 281.175 94.7024 285.227 93.8337 289.263C92.7219 294.415 91.7819 299.555 91.0937 304.583C88.6195 322.702 83.889 345.649 83.889 345.649C76.95 348.498 66.1029 344.738 66.1029 344.738C66.1029 344.738 65.8221 311.689 67.3713 298.846C69.2853 282.969 71.722 271.667 74.7415 258.692C83.053 222.983 97.6805 188.043 101.693 178.777C102.011 178.036 102.263 177.461 102.439 177.062H105.892C112.687 181.383 117.507 203.266 115.735 214.437Z" fill="#006BDE"/>
<path d="M65.5381 338.123L66.0821 345.727C66.0821 345.727 76.3953 349.079 84.1264 346.719L86.1708 339.935C78.7267 340.329 71.8491 340.146 65.5381 338.123Z" fill="#009CF8"/>
<path d="M109.823 234.658V234.663C109.823 234.772 109.804 234.881 109.766 234.991C109.533 235.632 109.296 236.292 109.058 236.971C109.044 237.003 109.029 237.042 109.021 237.08C108.261 239.236 107.486 241.582 106.708 244.052C106.703 244.065 106.699 244.08 106.694 244.094C102.653 256.936 98.5444 273.092 96.6542 283.413C96.673 281.337 96.6968 279.253 96.7307 277.168C95.6815 281.177 94.7026 285.228 93.834 289.264C94.2238 285.479 95.3068 279.808 96.7833 273.383C99.7665 260.38 104.344 244.275 107.981 234.34C108.162 233.846 108.708 233.594 109.202 233.775C109.586 233.918 109.823 234.274 109.823 234.658Z" fill="#264CBE"/>
<path d="M455.943 405.3H501.649C501.498 402.13 501.347 399.091 501.202 396.222C500.405 380.571 499.728 369.915 499.728 369.915L462.557 371.566L459.475 371.705L454.008 371.949C454.008 371.949 454.535 381.478 455.356 395.438C455.537 398.526 455.734 401.833 455.943 405.3Z" fill="#18315B"/>
<path d="M459.474 371.704L454.007 371.949C454.007 371.949 454.535 381.477 455.356 395.438C469.637 396.629 485.23 397.114 501.201 396.22C500.404 380.57 499.727 369.913 499.727 369.913L462.556 371.564L459.474 371.704Z" fill="#000B29"/>
<path d="M464.452 405.3C463.616 390.814 462.932 378.438 462.556 371.566L459.474 371.706C459.848 378.545 460.53 390.864 461.364 405.3H464.452Z" fill="#000B29"/>
<path d="M442.531 405.3C442.767 401.375 442.988 397.654 443.189 394.223C443.977 380.925 444.47 371.948 444.47 371.948L438.537 371.684L435.46 371.545L398.745 369.913C398.745 369.913 398.342 376.264 397.79 386.359C397.498 391.739 397.164 398.186 396.825 405.298H442.531V405.3Z" fill="#18315B"/>
<path d="M397.789 386.359C407.755 388.702 423.823 391.99 443.188 394.222C443.975 380.924 444.469 371.947 444.469 371.947L438.535 371.682L435.458 371.543L398.744 369.911C398.744 369.911 398.342 376.264 397.789 386.359Z" fill="#000B29"/>
<path d="M436.646 405.299C437.48 390.848 438.162 378.52 438.535 371.685L435.458 371.546C435.082 378.413 434.397 390.798 433.561 405.299H436.646Z" fill="#000B29"/>
<path d="M506.364 377.037C497.053 379.599 487.744 381.533 478.434 382.831C475.196 383.286 471.961 383.664 468.726 383.961C464.363 384.366 460.001 384.637 455.641 384.773C448.429 384.994 441.217 384.836 434.001 384.302C420.053 383.282 406.108 380.846 392.158 377.036C392.028 364.03 392.224 317.389 393.2 272.402C393.248 270.383 393.292 268.365 393.342 266.356C393.348 265.93 393.361 265.502 393.371 265.076C393.381 264.611 393.393 264.147 393.406 263.686C393.437 262.258 393.475 260.837 393.51 259.422C393.583 256.531 393.658 253.666 393.741 250.83C393.791 249.134 393.842 247.447 393.892 245.774C393.901 245.427 393.915 245.083 393.924 244.738C393.959 243.635 393.993 242.539 394.028 241.449C394.028 241.449 394.028 241.449 394.028 241.445C394.04 241.107 394.05 240.77 394.063 240.431C394.094 239.426 394.129 238.428 394.161 237.439C394.192 236.596 394.221 235.765 394.25 234.931C395.33 204.584 396.909 180.648 399.172 177.273C403.007 171.553 416.07 163.958 426.577 157.775C430.321 155.577 434.79 153.289 437.349 151.593C441.08 154.598 443.788 157.311 449.319 157.124C455.507 156.913 457.034 153.191 459.394 150C460.834 150.935 464.493 153.936 466.394 155.051C468.021 156.011 469.784 157.029 471.622 158.087C474.465 159.714 477.488 161.443 480.484 163.205C484.923 165.817 489.298 168.512 492.928 171.086C496.552 173.661 499.43 176.121 500.855 178.255C502.908 181.338 504.238 201.3 505.094 227.572C505.129 228.491 505.154 229.423 505.189 230.361C505.193 230.475 505.193 230.588 505.193 230.706C505.228 231.66 505.257 232.64 505.278 233.619C505.363 236.576 505.442 239.596 505.525 242.666C505.541 243.314 505.556 243.967 505.566 244.619C505.579 245.109 505.595 245.601 505.598 246.084C505.627 247.348 505.654 248.615 505.683 249.893C505.689 250.149 505.693 250.405 505.699 250.662C505.77 254.032 505.835 257.45 505.895 260.897C505.914 261.905 505.93 262.916 505.945 263.927C506.723 311.227 506.543 363.061 506.364 377.037Z" fill="#006BDE"/>
<path d="M505.942 263.932L491.199 278.886L477.463 264.961L463.73 278.886L449.944 264.904L436.151 278.886L422.273 264.813L408.392 278.886L393.404 263.687C393.436 262.26 393.473 260.838 393.508 259.423C393.581 256.533 393.656 253.667 393.739 250.831L408.392 235.97L422.273 250.047L436.151 235.97L449.944 249.952L463.73 235.97L477.463 249.896L491.199 235.97L505.696 250.667C505.767 254.037 505.832 257.455 505.892 260.902C505.911 261.91 505.927 262.92 505.942 263.932Z" fill="#264CBE"/>
<path d="M480.493 341.012H480.489C460.748 340.926 443.898 331.943 433.239 324.422C421.711 316.288 414.724 308.047 414.655 307.964C414.318 307.563 414.37 306.964 414.771 306.626C415.173 306.289 415.772 306.34 416.109 306.741C416.177 306.821 423.037 314.906 434.378 322.9C444.805 330.25 461.272 339.028 480.498 339.113C481.022 339.116 481.446 339.543 481.444 340.067C481.44 340.59 481.016 341.012 480.493 341.012Z" fill="#264CBE"/>
<path d="M468.18 329.337C451.372 326.033 436.493 313.159 435.818 312.569C435.423 312.223 435.383 311.624 435.728 311.229C436.073 310.834 436.673 310.795 437.067 311.139C437.242 311.292 454.751 326.432 472.593 328.06C473.124 328.104 473.501 328.57 473.453 329.091C473.406 329.614 472.943 329.999 472.422 329.951C470.999 329.822 469.583 329.613 468.18 329.337Z" fill="#264CBE"/>
<path d="M434.516 183.251C434.068 183.251 433.67 182.934 433.583 182.478C433.485 181.962 433.824 181.465 434.339 181.367C458.407 176.8 465.661 161.317 465.732 161.161C465.948 160.683 466.511 160.47 466.99 160.687C467.467 160.902 467.68 161.465 467.463 161.944C467.159 162.617 459.722 178.485 434.694 183.235C434.635 183.245 434.575 183.251 434.516 183.251Z" fill="#264CBE"/>
<path d="M405.151 224.929V224.935C405.128 225.039 405.081 225.143 405.022 225.238C404.662 225.816 404.286 226.414 403.91 227.023C403.891 227.058 403.869 227.086 403.853 227.125C402.65 229.071 401.396 231.197 400.103 233.443C400.099 233.46 400.093 233.468 400.081 233.481C398.061 237.016 395.971 240.849 393.924 244.74C393.959 243.637 393.993 242.542 394.028 241.452C394.028 241.452 394.028 241.452 394.028 241.448C394.04 241.109 394.05 240.772 394.063 240.434C397.364 234.304 400.656 228.571 403.417 224.224C403.702 223.779 404.286 223.653 404.731 223.931C405.076 224.155 405.234 224.553 405.151 224.929Z" fill="#264CBE"/>
<path d="M526.428 189.725C526.428 189.725 557.206 179.833 566.314 159.637C568.948 153.787 547.246 94.4006 547.246 94.4006L536.772 94.907C536.772 94.907 539.757 115.512 541.566 127.179C543.054 136.772 545.458 148.234 546.269 152.008C546.445 152.827 546.545 153.282 546.545 153.282C546.031 153.371 545.515 153.47 544.992 153.574C530.612 156.494 512.252 165.861 512.252 165.861L526.428 189.725Z" fill="#FFA681"/>
<path d="M554.276 158.975C554.714 159.293 555.339 159.198 555.653 158.758C555.983 158.312 555.883 157.694 555.436 157.381C553.197 155.755 549.818 153.846 546.269 152.009C546.446 152.828 546.545 153.283 546.545 153.283C546.031 153.372 545.516 153.471 544.992 153.575C548.605 155.431 552.063 157.364 554.276 158.975Z" fill="#F97853"/>
<path d="M479.337 162.556C479.337 162.556 470.028 184.403 493.729 196.566C510.131 204.984 547.496 183.007 547.496 183.007L534.174 154.723C534.174 154.723 499.987 168.825 479.337 162.556Z" fill="#006BDE"/>
<path d="M541.886 61.0118C540.958 61.6623 541.148 65.6745 541.556 69.4536C541.426 69.4724 541.292 69.495 541.158 69.5188C540.056 64.475 537.862 55.8965 535.987 57.5335C534.759 58.6052 536.403 66.0029 537.524 70.4263C537.292 70.4977 537.06 70.5704 536.828 70.6456C535.416 65.3938 532.37 55.2774 530.343 57.244C528.991 58.5563 531.586 67.4644 533.028 72.0081C532.826 72.0871 532.631 72.1635 532.438 72.24C531.059 67.8317 528.113 59.4926 526.095 61.4517C524.268 63.2253 529.503 75.8323 529.503 75.8323L530.876 80.7809C530.876 80.7809 529.245 81.4853 526.698 78.6049C524.151 75.7245 521.108 75.2181 523.222 79.3845C525.613 84.0937 529.15 87.4704 530.707 90.802C532.265 94.1336 537.163 95.2354 537.163 95.2354L546.999 94.7603C546.999 94.7603 548.906 78.1361 545.237 70.2119C544.608 65.5041 543.5 59.8799 541.886 61.0118Z" fill="#FFA681"/>
<path d="M420.189 99.3504C420.189 116.104 430.503 127.648 447.25 127.648C464.003 127.648 475.682 115.238 475.682 98.483C475.682 93.8629 474.929 89.5486 473.479 85.7307C473.394 85.5038 473.308 85.2757 473.216 85.0551C473.038 84.6214 472.853 84.1877 472.654 83.769C472.362 83.1223 472.036 82.4893 471.694 81.8789C467.33 74.0311 459.511 69.0413 449.006 69.0413C428.918 69.0425 420.189 82.5971 420.189 99.3504Z" fill="#18315B"/>
<path d="M423.951 106.564C423.951 106.564 419.297 100.358 415.837 105.49C412.376 110.621 417.269 125.778 425.741 122.077L423.951 106.564Z" fill="#F97853"/>
<path d="M423.892 117.394C423.578 117.394 423.291 117.188 423.202 116.872C421.889 112.193 417.042 110.296 416.993 110.277C416.624 110.136 416.438 109.723 416.578 109.354C416.718 108.984 417.131 108.798 417.501 108.938C417.727 109.023 423.069 111.096 424.581 116.484C424.688 116.865 424.466 117.26 424.085 117.367C424.021 117.386 423.956 117.394 423.892 117.394Z" fill="#EA5143"/>
<path d="M418.998 115.037C418.865 115.037 418.731 115 418.611 114.923C418.279 114.708 418.182 114.266 418.396 113.933C418.433 113.877 419.29 112.569 421.084 111.767C421.443 111.604 421.868 111.767 422.03 112.128C422.192 112.489 422.03 112.912 421.669 113.073C420.282 113.693 419.607 114.698 419.601 114.708C419.464 114.922 419.234 115.037 418.998 115.037Z" fill="#EA5143"/>
<path d="M471.916 106.564C471.916 106.564 476.57 100.358 480.031 105.49C483.492 110.621 478.598 125.778 470.125 122.077L471.916 106.564Z" fill="#F97853"/>
<path d="M471.975 117.394C472.287 117.394 472.576 117.188 472.665 116.872C473.978 112.193 478.825 110.296 478.874 110.277C479.243 110.136 479.429 109.723 479.289 109.354C479.149 108.984 478.736 108.798 478.366 108.938C478.139 109.023 472.797 111.096 471.285 116.484C471.178 116.865 471.4 117.26 471.781 117.367C471.846 117.386 471.911 117.394 471.975 117.394Z" fill="#EA5143"/>
<path d="M476.869 115.037C477.002 115.037 477.136 115 477.256 114.923C477.589 114.708 477.685 114.266 477.471 113.932C477.436 113.877 476.577 112.569 474.783 111.766C474.425 111.603 473.999 111.766 473.837 112.127C473.675 112.488 473.837 112.912 474.198 113.072C475.586 113.693 476.26 114.698 476.266 114.708C476.403 114.921 476.634 115.037 476.869 115.037Z" fill="#EA5143"/>
<path d="M459.39 134.933V150.005C459.39 150.005 454.896 157.681 448.817 158.204C442.744 158.734 437.348 151.595 437.348 151.595V135.992L459.39 134.933Z" fill="#FFA681"/>
<path d="M459.39 134.933V141.621C455.312 146.147 448.067 147.278 437.348 145.695V135.992L459.39 134.933Z" fill="#F97853"/>
<path d="M475.282 96.2242C475.002 102.081 474.443 109.407 473.326 115.264C473.047 116.724 472.732 118.099 472.381 119.331C469.209 130.437 461.276 149.484 439.064 141.549C429.254 138.047 424.707 127.121 422.681 116.008C421.306 108.461 421.098 100.836 421.2 95.3869C421.308 89.8242 424.343 84.7391 429.184 81.9966C442.295 74.5637 456.129 77.3351 465.237 80.8371C471.558 83.2638 475.604 89.472 475.282 96.2242Z" fill="#FFA681"/>
<path d="M438.41 108.53C438.41 110.14 437.58 111.443 436.558 111.443C435.535 111.443 434.705 110.14 434.705 108.53C434.705 106.921 435.535 105.617 436.558 105.617C437.582 105.617 438.41 106.922 438.41 108.53Z" fill="#18315B"/>
<path d="M460.24 108.472C460.24 110.081 459.412 111.385 458.388 111.385C457.365 111.385 456.535 110.081 456.535 108.472C456.535 106.862 457.365 105.559 458.388 105.559C459.411 105.557 460.24 106.862 460.24 108.472Z" fill="#18315B"/>
<path d="M464.426 98.4591C464.426 98.4591 458.583 96.149 454.083 98.0931L454.533 100.595C454.533 100.595 461.137 100.036 464.464 101.385C464.762 100.423 464.806 99.4493 464.426 98.4591Z" fill="#18315B"/>
<path d="M430.378 98.4591C430.378 98.4591 436.221 96.149 440.721 98.0931L440.271 100.595C440.271 100.595 433.668 100.036 430.34 101.385C430.042 100.423 429.998 99.4493 430.378 98.4591Z" fill="#18315B"/>
<path d="M448.182 120.74C449.39 120.74 450.587 120.27 450.774 120.193C451.14 120.044 451.314 119.627 451.165 119.26C451.016 118.894 450.597 118.718 450.232 118.867C449.585 119.129 448.032 119.542 447.359 119.139C447.23 119.062 447.052 118.907 447.007 118.472C446.749 115.972 447.433 107.59 447.44 107.506C447.472 107.113 447.179 106.767 446.785 106.734C446.389 106.7 446.046 106.995 446.013 107.388C445.984 107.738 445.311 115.988 445.583 118.619C445.686 119.609 446.206 120.117 446.625 120.368C447.084 120.643 447.634 120.74 448.182 120.74Z" fill="#F97853"/>
<path d="M438.568 124.376C439.759 128.508 443.142 132.629 447.804 132.687C452.46 132.63 455.844 128.508 457.034 124.376H438.568Z" fill="white"/>
<path d="M447.404 137.174C449.258 137.174 450.829 136.235 450.895 136.195C451.234 135.991 451.341 135.549 451.137 135.211C450.933 134.873 450.491 134.765 450.153 134.969C450.142 134.977 448.848 135.74 447.404 135.74C446.079 135.74 444.811 134.98 444.798 134.972C444.463 134.765 444.021 134.868 443.813 135.205C443.605 135.541 443.709 135.982 444.046 136.19C444.11 136.233 445.654 137.174 447.404 137.174Z" fill="#F97853"/>
<path d="M474.524 106.69H471.279C471.638 103.433 472.152 97.6945 469.477 96.8723C461.021 94.2752 471.979 88.3001 468.162 85.3207C464.345 82.335 454.846 83.6148 448.239 83.4004C441.592 83.1848 430.909 83.2788 428.317 83.8805C425.717 84.4746 427.142 88.7902 428.095 92.1343C429.055 95.4709 424.909 99.166 424.214 102.626C424.015 103.618 424.056 105.092 424.215 106.69H421.511C421.19 102.481 421.142 98.5631 421.2 95.3857C421.308 89.823 424.343 84.7378 429.184 81.9953C442.295 74.5625 456.129 77.3338 465.236 80.8359C471.559 83.2626 475.605 89.4708 475.283 96.223C475.128 99.433 474.89 103.083 474.524 106.69Z" fill="#18315B"/>
<path d="M436.233 116.966C431.763 116.966 428.127 113.33 428.127 108.86C428.127 104.39 431.763 100.754 436.233 100.754C440.703 100.754 444.339 104.39 444.339 108.86C444.339 113.33 440.703 116.966 436.233 116.966ZM436.233 102.018C432.46 102.018 429.39 105.087 429.39 108.86C429.39 112.633 432.46 115.703 436.233 115.703C440.006 115.703 443.075 112.633 443.075 108.86C443.075 105.087 440.006 102.018 436.233 102.018Z" fill="white"/>
<path d="M458.39 116.966C453.92 116.966 450.284 113.33 450.284 108.86C450.284 104.39 453.92 100.754 458.39 100.754C462.86 100.754 466.496 104.39 466.496 108.86C466.496 113.33 462.86 116.966 458.39 116.966ZM458.39 102.018C454.617 102.018 451.548 105.087 451.548 108.86C451.548 112.633 454.617 115.703 458.39 115.703C462.163 115.703 465.233 112.633 465.233 108.86C465.233 105.087 462.163 102.018 458.39 102.018Z" fill="white"/>
<path d="M429.497 106.249C429.337 106.249 429.175 106.188 429.052 106.066C429.016 106.03 425.333 102.457 420.502 103.584C420.164 103.664 419.823 103.453 419.744 103.113C419.665 102.773 419.876 102.434 420.215 102.355C425.739 101.066 429.773 105.002 429.942 105.171C430.189 105.417 430.19 105.818 429.945 106.065C429.822 106.188 429.659 106.249 429.497 106.249Z" fill="white"/>
<path d="M465.275 106.249C465.069 106.249 464.866 106.148 464.745 105.962C464.554 105.67 464.635 105.279 464.927 105.089C465.169 104.931 470.905 101.231 475.786 102.034C476.131 102.09 476.364 102.416 476.306 102.76C476.25 103.103 475.926 103.336 475.58 103.28C471.187 102.557 465.675 106.109 465.618 106.145C465.513 106.217 465.394 106.249 465.275 106.249Z" fill="white"/>
<path d="M450.729 107.04C450.715 107.02 449.214 104.991 447.239 104.991C445.285 104.991 443.928 107.018 443.915 107.038L442.857 106.347C442.928 106.24 444.593 103.727 447.239 103.727C449.865 103.727 451.678 106.197 451.753 106.302L450.729 107.04Z" fill="white"/>
<path d="M402.48 223.738C402.48 223.738 393.941 240.273 383.886 253.37C380.919 257.234 377.823 260.797 374.772 263.55C369.828 268.013 365.008 270.348 361.081 268.366C346.517 261.025 314.051 202.597 314.051 202.597L322.046 193.113C322.046 193.113 336.496 209.8 347.064 219.786C356.809 228.995 364.303 235.879 364.303 235.879C365.652 233.826 367.09 231.576 368.584 229.194C370.173 226.667 371.821 223.991 373.5 221.24C385.668 201.262 399.171 177.277 399.171 177.277L402.48 223.738Z" fill="#FFA681"/>
<path d="M383.886 253.37C380.919 257.233 377.823 260.797 374.772 263.549L368.584 229.194C370.173 226.667 371.822 223.991 373.5 221.24L383.886 253.37Z" fill="#F97853"/>
<path d="M399.169 177.277L369.984 223.178L379.78 263.55L403.931 224.225C403.931 224.225 406.859 197.321 399.169 177.277Z" fill="#006BDE"/>
<path d="M362.475 405.3C360.391 393.748 358.336 380.72 356.469 368.069C356.059 365.272 355.659 362.498 355.263 359.76C353.765 349.285 352.427 339.381 351.353 331.161C350.943 328.039 350.576 325.156 350.241 322.584C349.2 314.379 348.588 309.282 348.588 309.282L302.501 311.025L256.272 309.282C256.272 309.282 255.08 319.366 253.172 333.986C252.824 336.647 252.452 339.453 252.06 342.384C251.034 350.056 249.861 358.529 248.598 367.206C248.58 367.332 248.561 367.46 248.542 367.587C248.146 370.29 247.746 373.013 247.331 375.735C247.326 375.773 247.323 375.805 247.312 375.843V375.848C246.324 382.427 245.287 388.998 244.233 395.319C243.799 397.928 243.362 400.49 242.918 402.986C242.781 403.764 242.643 404.533 242.507 405.297H362.475V405.3Z" fill="#006BDE"/>
<path d="M266.896 323.125C266.896 325.524 264.952 327.469 262.553 327.469C260.154 327.469 258.209 325.524 258.209 323.125C258.209 320.726 260.154 318.782 262.553 318.782C264.952 318.782 266.896 320.726 266.896 323.125Z" fill="#264CBE"/>
<path d="M277.677 339.953C277.677 342.353 275.731 344.297 273.334 344.297C270.935 344.297 268.989 342.351 268.989 339.953C268.989 337.554 270.935 335.61 273.334 335.61C275.731 335.609 277.677 337.554 277.677 339.953Z" fill="#264CBE"/>
<path d="M298.883 331.266C298.883 333.665 296.937 335.609 294.539 335.609C292.14 335.609 290.196 333.664 290.196 331.266C290.196 328.867 292.14 326.923 294.539 326.923C296.938 326.923 298.883 328.867 298.883 331.266Z" fill="#264CBE"/>
<path d="M265.413 357.825C265.413 360.224 263.468 362.169 261.07 362.169C258.671 362.169 256.727 360.224 256.727 357.825C256.727 355.426 258.671 353.482 261.07 353.482C263.468 353.482 265.413 355.426 265.413 357.825Z" fill="#264CBE"/>
<path d="M291.913 355.967C291.913 358.366 289.969 360.31 287.57 360.31C285.171 360.31 283.227 358.366 283.227 355.967C283.227 353.568 285.172 351.624 287.57 351.624C289.968 351.624 291.913 353.568 291.913 355.967Z" fill="#264CBE"/>
<path d="M256.001 338.061C256.001 340.322 254.277 342.182 252.063 342.385C252.455 339.456 252.827 336.648 253.175 333.987C254.829 334.604 256.001 336.191 256.001 338.061Z" fill="#264CBE"/>
<path d="M335.097 381.487C335.097 383.886 333.153 385.83 330.754 385.83C328.355 385.83 326.409 383.885 326.409 381.487C326.409 379.088 328.355 377.143 330.754 377.143C333.151 377.143 335.097 379.088 335.097 381.487Z" fill="#264CBE"/>
<path d="M333.046 357.825C333.046 360.224 331.1 362.169 328.702 362.169C326.303 362.169 324.359 360.224 324.359 357.825C324.359 355.426 326.305 353.482 328.702 353.482C331.1 353.482 333.046 355.426 333.046 357.825Z" fill="#264CBE"/>
<path d="M356.469 368.068C355.946 368.29 355.367 368.411 354.764 368.411C352.366 368.411 350.421 366.466 350.421 364.068C350.421 361.67 352.366 359.726 354.764 359.726C354.933 359.726 355.099 359.735 355.263 359.759C355.659 362.496 356.059 365.27 356.469 368.068Z" fill="#264CBE"/>
<path d="M337.387 398.828C337.387 401.227 335.442 403.171 333.044 403.171C330.645 403.171 328.701 401.227 328.701 398.828C328.701 396.429 330.645 394.484 333.044 394.484C335.442 394.484 337.387 396.429 337.387 398.828Z" fill="#264CBE"/>
<path d="M355.968 391.894C355.968 394.293 354.022 396.237 351.623 396.237C349.224 396.237 347.28 394.292 347.28 391.894C347.28 389.495 349.224 387.551 351.623 387.551C354.024 387.55 355.968 389.495 355.968 391.894Z" fill="#264CBE"/>
<path d="M317.307 405.3C316.526 404.158 315.216 403.407 313.727 403.407C312.238 403.407 310.928 404.158 310.147 405.3H317.307Z" fill="#264CBE"/>
<path d="M262.555 385.265C262.555 387.664 260.609 389.608 258.21 389.608C255.811 389.608 253.867 387.664 253.867 385.265C253.867 382.866 255.811 380.921 258.21 380.921C260.611 380.921 262.555 382.866 262.555 385.265Z" fill="#264CBE"/>
<path d="M251.093 371.544C251.093 373.748 249.45 375.571 247.315 375.844C247.325 375.807 247.329 375.774 247.334 375.736C247.749 373.014 248.149 370.292 248.545 367.588C250.047 368.276 251.093 369.788 251.093 371.544Z" fill="#264CBE"/>
<path d="M246.016 398.825C246.016 400.789 244.711 402.447 242.921 402.989C243.363 400.493 243.802 397.93 244.236 395.321C245.314 396.111 246.016 397.388 246.016 398.825Z" fill="#264CBE"/>
<path d="M273.333 400.664C273.333 403.063 271.388 405.008 268.989 405.008C266.59 405.008 264.646 403.063 264.646 400.664C264.646 398.265 266.591 396.321 268.989 396.321C271.388 396.319 273.333 398.265 273.333 400.664Z" fill="#264CBE"/>
<path d="M296.256 397.262C296.256 399.661 294.31 401.606 291.912 401.606C289.515 401.606 287.569 399.661 287.569 397.262C287.569 394.863 289.513 392.918 291.912 392.918C294.312 392.918 296.256 394.863 296.256 397.262Z" fill="#264CBE"/>
<path d="M279.902 375.904C279.902 378.303 277.957 380.249 275.558 380.249C273.159 380.249 271.215 378.303 271.215 375.904C271.215 373.505 273.159 371.561 275.558 371.561C277.957 371.561 279.902 373.506 279.902 375.904Z" fill="#264CBE"/>
<path d="M303.227 371.561C303.227 373.96 301.283 375.905 298.884 375.905C296.485 375.905 294.541 373.96 294.541 371.561C294.541 369.162 296.486 367.218 298.884 367.218C301.282 367.218 303.227 369.162 303.227 371.561Z" fill="#264CBE"/>
<path d="M313.727 348.641C313.727 351.04 311.783 352.984 309.383 352.984C306.984 352.984 305.039 351.039 305.039 348.641C305.039 346.242 306.984 344.297 309.383 344.297C311.781 344.297 313.727 346.242 313.727 348.641Z" fill="#264CBE"/>
<path d="M351.353 331.161C351.052 331.231 350.741 331.265 350.42 331.265C348.017 331.265 346.077 329.319 346.077 326.922C346.077 324.585 347.923 322.674 350.241 322.583C350.576 325.156 350.944 328.038 351.353 331.161Z" fill="#264CBE"/>
<path d="M328.701 331.266C328.701 333.665 326.756 335.609 324.358 335.609C321.959 335.609 320.015 333.664 320.015 331.266C320.015 328.867 321.959 326.923 324.358 326.923C326.757 326.923 328.701 328.867 328.701 331.266Z" fill="#264CBE"/>
<path d="M344.611 346.746C344.611 349.145 342.667 351.089 340.268 351.089C337.869 351.089 335.925 349.144 335.925 346.746C335.925 344.347 337.87 342.402 340.268 342.402C342.666 342.402 344.611 344.347 344.611 346.746Z" fill="#264CBE"/>
<path d="M318.071 385.265C318.071 387.664 316.126 389.608 313.728 389.608C311.329 389.608 309.385 387.664 309.385 385.265C309.385 382.866 311.329 380.921 313.728 380.921C316.127 380.921 318.071 382.866 318.071 385.265Z" fill="#264CBE"/>
<path d="M351.392 310.423C327.079 326.295 282.438 325.052 254.385 310.423C257.065 293.731 260.594 277.019 259.835 254.803C259.75 252.368 259.647 249.947 259.524 247.55C259.417 245.463 259.294 243.391 259.162 241.341C256.741 204.381 250.435 174.163 253.533 170.258C254.886 168.548 257.14 166.702 259.924 164.813C261.017 164.069 262.186 163.315 263.419 162.562C266.329 160.786 269.566 158.996 272.815 157.254C280.524 153.138 288.352 149.317 292.277 146.709C296.167 148.405 299.266 149.332 302.606 149.313C302.695 149.313 302.794 149.313 302.893 149.303C302.983 149.313 303.081 149.313 303.171 149.313C306.511 149.332 309.61 148.405 313.505 146.709C317.146 149.13 323.998 152.507 330.992 156.19C336.132 158.898 341.345 161.771 345.404 164.559C348.06 166.381 350.233 168.171 351.56 169.848C353.095 171.784 352.45 180.272 351.136 192.847C349.836 205.22 347.891 221.56 346.714 239.519C346.39 244.506 346.121 249.616 345.942 254.803C345.189 277.02 348.712 293.731 351.392 310.423Z" fill="#009CF8"/>
<path d="M336.524 291.963H336.52C316.941 291.877 300.231 282.969 289.659 275.51C278.227 267.444 271.298 259.27 271.229 259.187C270.894 258.79 270.946 258.195 271.343 257.86C271.741 257.525 272.336 257.577 272.67 257.974C272.738 258.054 279.54 266.073 290.787 273.999C301.128 281.288 317.459 289.994 336.526 290.078C337.046 290.081 337.466 290.504 337.464 291.025C337.464 291.545 337.041 291.963 336.524 291.963Z" fill="#006BDE"/>
<path d="M323.562 280.566C306.893 277.29 292.136 264.522 291.467 263.936C291.076 263.592 291.036 262.998 291.378 262.607C291.72 262.215 292.316 262.177 292.708 262.518C292.881 262.67 310.246 277.684 327.941 279.3C328.467 279.343 328.841 279.806 328.793 280.323C328.745 280.841 328.288 281.223 327.769 281.175C326.358 281.046 324.952 280.839 323.562 280.566Z" fill="#006BDE"/>
<path d="M298.883 194.321C298.439 194.321 298.044 194.007 297.958 193.554C297.861 193.043 298.197 192.55 298.707 192.453C322.577 187.923 329.771 172.567 329.841 172.413C330.056 171.939 330.613 171.728 331.089 171.943C331.562 172.157 331.773 172.715 331.559 173.189C331.257 173.857 323.881 189.594 299.06 194.303C299 194.315 298.941 194.321 298.883 194.321Z" fill="#006BDE"/>
<path d="M330.992 156.191C326.254 166.998 314.607 178.189 299.461 175.571C284.793 173.036 277.836 165.278 272.816 157.254C280.527 153.136 288.356 149.321 292.277 146.71C296.168 148.403 299.267 149.331 302.604 149.316C302.694 149.316 302.796 149.316 302.891 149.306C302.981 149.316 303.083 149.316 303.173 149.316C306.51 149.331 309.61 148.403 313.506 146.71C317.146 149.129 324.001 152.506 330.992 156.191Z" fill="#FFA681"/>
<path d="M318.328 147.501C317.91 147.496 317.578 147.832 317.574 148.245C317.569 148.853 317.321 163.137 304.498 164.244C292.604 165.278 287.681 153.892 286.16 149.169C286.071 148.892 285.814 148.707 285.524 148.707H285.383C284.926 148.707 284.602 149.153 284.747 149.586C286.37 154.46 291.554 166.228 303.671 165.796C303.985 165.785 304.304 165.764 304.627 165.737C318.819 164.512 319.072 148.417 319.073 148.254C319.075 147.84 318.742 147.503 318.328 147.501Z" fill="white"/>
<path d="M327.391 71.5732C327.391 71.5732 338.851 89.3243 337.595 107.814C336.339 126.303 339.285 147.646 322.74 146.709C306.196 145.771 276.685 153.342 267.306 138.941C257.926 124.542 327.391 71.5732 327.391 71.5732Z" fill="#18315B"/>
<path d="M331.638 104.212C331.638 104.212 334.612 131.013 321.895 138.392C309.178 145.771 299.974 137.532 299.974 137.532C299.974 137.532 326.781 100.176 331.638 104.212Z" fill="#000B29"/>
<path d="M278.815 104.088C278.815 104.088 274.248 98.0005 270.853 103.034C267.457 108.069 272.258 122.939 280.571 119.309L278.815 104.088Z" fill="#F97853"/>
<path d="M278.756 114.714C278.449 114.714 278.167 114.511 278.079 114.201C276.79 109.61 272.035 107.75 271.986 107.731C271.624 107.593 271.442 107.187 271.579 106.825C271.717 106.463 272.121 106.28 272.484 106.416C272.705 106.5 277.947 108.534 279.431 113.821C279.535 114.195 279.319 114.582 278.945 114.687C278.882 114.705 278.818 114.714 278.756 114.714Z" fill="#EA5143"/>
<path d="M273.954 112.401C273.823 112.401 273.692 112.365 273.574 112.289C273.248 112.079 273.154 111.645 273.363 111.318C273.399 111.264 274.24 109.981 276.001 109.192C276.353 109.033 276.77 109.192 276.928 109.547C277.086 109.9 276.928 110.316 276.573 110.474C275.212 111.084 274.55 112.069 274.544 112.079C274.411 112.288 274.186 112.401 273.954 112.401Z" fill="#EA5143"/>
<path d="M325.873 104.088C325.873 104.088 330.439 98.0005 333.835 103.034C337.231 108.069 332.43 122.939 324.117 119.309L325.873 104.088Z" fill="#F97853"/>
<path d="M325.93 114.714C326.237 114.714 326.519 114.511 326.607 114.201C327.896 109.61 332.651 107.75 332.7 107.731C333.062 107.593 333.244 107.187 333.107 106.825C332.969 106.463 332.565 106.28 332.202 106.416C331.98 106.5 326.739 108.534 325.255 113.821C325.151 114.195 325.367 114.582 325.741 114.687C325.805 114.705 325.869 114.714 325.93 114.714Z" fill="#EA5143"/>
<path d="M330.733 112.401C330.863 112.401 330.995 112.365 331.113 112.29C331.439 112.079 331.533 111.645 331.323 111.318C331.288 111.264 330.447 109.981 328.686 109.192C328.334 109.033 327.916 109.192 327.758 109.547C327.601 109.901 327.758 110.317 328.113 110.475C329.474 111.084 330.136 112.069 330.143 112.079C330.275 112.288 330.502 112.401 330.733 112.401Z" fill="#EA5143"/>
<path d="M313.584 131.922V146.71C313.584 146.71 309.173 154.24 303.209 154.754C297.252 155.274 291.957 148.27 291.957 148.27V132.962L313.584 131.922Z" fill="#FFA681"/>
<path d="M313.584 131.922V138.484C309.582 142.924 302.477 144.498 291.958 142.946L291.957 132.962L313.584 131.922Z" fill="#F97853"/>
<path d="M329.177 93.943C328.902 99.6899 328.354 106.876 327.259 112.623C326.984 114.055 326.676 115.404 326.331 116.614C323.219 127.51 315.435 146.197 293.643 138.413C284.018 134.978 279.557 124.257 277.569 113.355C276.22 105.95 276.016 98.4679 276.115 93.122C276.22 87.6633 279.199 82.6759 283.948 79.9848C296.811 72.6924 310.384 75.4111 319.32 78.8467C325.523 81.2282 329.492 87.3186 329.177 93.943Z" fill="#FFA681"/>
<path d="M292.746 104.956C292.746 106.534 291.933 107.815 290.929 107.815C289.925 107.815 289.111 106.535 289.111 104.956C289.111 103.378 289.925 102.098 290.929 102.098C291.932 102.098 292.746 103.378 292.746 104.956Z" fill="#18315B"/>
<path d="M315.187 104.956C315.187 106.534 314.373 107.815 313.369 107.815C312.365 107.815 311.552 106.535 311.552 104.956C311.552 103.378 312.365 102.098 313.369 102.098C314.373 102.098 315.187 103.378 315.187 104.956Z" fill="#18315B"/>
<path d="M287.33 96.4462C288.839 96.02 291.887 95.2905 295.103 95.2817C295.949 95.2792 296.597 96.0313 296.448 96.8648L296.444 96.8861C296.325 97.5517 295.73 98.0217 295.054 97.9904C292.866 97.8889 287.123 98.196 284.41 99.2952C284.355 98.8239 284.633 98.3075 285.028 97.85C285.627 97.1544 286.447 96.6956 287.33 96.4462Z" fill="#18315B"/>
<path d="M316.692 96.505C315.182 96.0789 312.134 95.3494 308.918 95.3406C308.072 95.3381 307.424 96.0901 307.573 96.9237L307.577 96.945C307.696 97.6105 308.291 98.0806 308.966 98.0492C311.154 97.9477 316.897 98.2548 319.61 99.3541C319.665 98.8828 319.387 98.3664 318.992 97.9076C318.394 97.212 317.573 96.7532 316.692 96.505Z" fill="#18315B"/>
<path d="M302.587 117.996C302.049 117.996 301.509 117.901 301.059 117.631C300.649 117.386 300.137 116.888 300.037 115.917C299.77 113.335 300.431 105.241 300.459 104.898C300.491 104.51 300.83 104.223 301.218 104.255C301.605 104.286 301.892 104.626 301.861 105.013C301.853 105.096 301.183 113.32 301.436 115.773C301.48 116.199 301.654 116.35 301.782 116.427C302.441 116.822 303.965 116.418 304.6 116.161C304.958 116.013 305.369 116.187 305.515 116.546C305.661 116.904 305.489 117.314 305.13 117.461C304.947 117.535 303.772 117.996 302.587 117.996Z" fill="#F97853"/>
<path d="M293.666 122.432C294.197 125.104 295.962 130.02 301.909 130.02C307.87 130.02 309.542 125.528 310.116 122.432H293.666Z" fill="white"/>
<path d="M301.825 134.12C300.109 134.12 298.593 133.197 298.53 133.157C298.2 132.952 298.097 132.52 298.301 132.19C298.504 131.861 298.937 131.759 299.267 131.961C299.279 131.968 300.515 132.715 301.825 132.715C303.241 132.715 304.511 131.965 304.523 131.957C304.857 131.758 305.287 131.864 305.487 132.196C305.688 132.527 305.581 132.959 305.25 133.159C305.184 133.199 303.642 134.12 301.825 134.12Z" fill="#F97853"/>
<path d="M332.004 92.7988C331.779 93.4393 331.152 93.8492 330.313 94.0936C330.375 95.6428 330.212 97.5067 330.059 99.2928C329.192 109.447 326.631 111.229 326.052 108.719C325.671 107.052 325.693 97.4891 325.878 94.3706C323.871 94.239 322.156 93.9043 322.156 93.9043L319.801 84.0461L318.976 93.7815C315.444 95.0111 307.202 93.0419 307.202 93.0419L304.436 83.3254L302.727 92.6747C297.429 95.2555 290.805 93.5371 290.805 93.5371L289.284 83.4532L285.77 93.5371C285.77 93.5371 274.467 97.5919 274.344 93.5371C274.269 91.1768 275.997 84.5312 277.458 79.3833C279.05 73.7692 282.737 69.0263 287.726 66.3515C301.747 58.8246 316.575 62.8281 321.661 65.8664C332.447 72.3052 332.004 92.7988 332.004 92.7988Z" fill="#18315B"/>
<path d="M280.57 72.324C280.57 72.324 271.264 83.3917 268.202 103.16C265.14 122.927 260.901 137.532 272.814 144.06C285.706 151.124 284.59 136.636 284.404 132.698C284.219 128.76 273.252 117.996 280.57 87.681C282.933 77.8942 280.57 72.324 280.57 72.324Z" fill="#18315B"/>
<path d="M278.396 113.173C278.396 113.173 278.396 113.183 278.396 113.197C278.401 113.344 278.409 114.129 278.466 115.359C278.495 116.122 278.541 117.05 278.611 118.105C279.05 124.765 280.345 136.268 284.15 140.256C285.653 141.834 288.55 142.625 291.959 142.946V137.713C288.365 136.008 285.563 133.205 283.392 129.757C282.049 126.851 279.737 122.302 278.654 115.147L278.396 113.173Z" fill="#000B29"/>
<path d="M329.343 119.643C329.343 120.552 328.606 121.289 327.697 121.289C326.789 121.289 326.052 120.552 326.052 119.643C326.052 118.735 326.789 117.998 327.697 117.998C328.606 117.998 329.343 118.733 329.343 119.643Z" fill="white"/>
<path d="M362.886 243.634C358.225 256.98 337.345 256.009 313.565 248.713C313.531 248.703 313.496 248.69 313.463 248.681C313.387 248.66 313.316 248.635 313.241 248.613L309.969 247.57C309.518 247.423 309.064 247.273 308.613 247.118C306.05 246.26 303.469 245.332 300.877 244.348C292.38 241.121 283.818 237.295 275.743 233.217L275.8 233.076L278.231 226.76L279.061 224.611C279.061 224.611 323.147 229.414 345.312 224.78C345.688 224.701 346.054 224.623 346.415 224.539C346.327 224.048 346.3 223.545 346.162 223.076C334.417 183.092 347.261 175.426 351.561 169.85C351.561 169.847 371.688 218.437 362.886 243.634Z" fill="#009CF8"/>
<path d="M355.703 231.259C355.572 231.321 355.431 231.353 355.292 231.353C354.945 231.353 354.609 231.159 354.446 230.826C352.766 227.386 347.065 225.34 345.313 224.78C345.69 224.701 346.056 224.623 346.416 224.539C346.329 224.048 346.245 223.559 346.163 223.076C348.391 223.812 354.209 226.056 356.136 230.004C356.364 230.465 356.169 231.029 355.703 231.259Z" fill="#006BDE"/>
<path d="M293.958 229.583C284.961 229.583 277.654 229.065 277.018 229.019C276.5 228.981 276.111 228.531 276.149 228.014C276.187 227.496 276.637 227.111 277.156 227.145C277.488 227.169 310.557 229.508 323.595 224.22C324.075 224.025 324.624 224.256 324.82 224.737C325.014 225.218 324.783 225.766 324.302 225.962C317.083 228.889 304.385 229.583 293.958 229.583Z" fill="#006BDE"/>
<path d="M309.971 247.568C309.974 247.568 309.974 247.568 309.974 247.568C317.519 245.488 324.378 243.461 328.337 242.193C333.836 240.429 338.385 234.871 340.453 230.146C340.66 229.67 341.214 229.454 341.69 229.663C342.166 229.87 342.382 230.424 342.175 230.9C339.938 236.011 334.969 242.038 328.91 243.984C326.036 244.905 321.646 246.221 316.574 247.669C314.412 248.288 312.113 248.253 309.971 247.568Z" fill="#006BDE"/>
<path d="M330.305 241.106C262.174 264.052 241.214 249.035 241.214 249.035C236.628 207.556 253.53 170.257 253.53 170.257C258.524 178.491 264.17 192.862 264.17 192.862L265.662 224.657L265.549 225.541L265.495 225.957L265.213 228.131L265.207 228.175C265.351 228.207 265.498 228.238 265.646 228.269C286.255 232.617 323.945 227.759 323.945 227.759L330.305 241.106Z" fill="#009CF8"/>
<path d="M265.646 228.269C261.967 231.353 258.474 234.905 255.36 238.987C255.047 239.401 254.455 239.483 254.042 239.167C253.628 238.853 253.55 238.264 253.86 237.851C253.864 237.851 253.864 237.847 253.864 237.847C257.363 233.25 261.329 229.316 265.497 225.957L265.215 228.132L265.208 228.175C265.351 228.207 265.498 228.238 265.646 228.269Z" fill="#006BDE"/>
<path d="M323.946 227.759C323.946 227.759 331.489 210.625 342.957 212.15L346.415 224.539C340.138 227.205 339.219 237.968 330.307 241.106L323.946 227.759Z" fill="#FFA681"/>
<path d="M279.064 224.611C279.064 224.611 274.301 213.43 261.764 210.185C249.227 206.939 241.24 212.847 240.399 215.076C239.558 217.306 245.127 215.175 245.127 215.175C245.127 215.175 241.5 216.201 239.419 219.611C237.338 223.02 244.484 219.341 244.484 219.341C244.484 219.341 239.36 221.587 238.708 223.669C238.056 225.751 244.815 222.234 246.085 222.301C246.085 222.301 240.049 224.7 240.091 226.848C240.132 228.996 247.023 225.493 252.169 225.77C257.315 226.047 265.206 228.179 265.206 228.179C269.417 228.98 273.442 229.574 277.083 229.742L279.064 224.611Z" fill="#FFA681"/>
<path d="M400.119 50.7678C395.478 50.7678 391.703 46.9925 391.703 42.3523C391.703 37.7121 395.478 33.9368 400.119 33.9368C404.759 33.9368 408.534 37.7121 408.534 42.3523C408.534 46.9925 404.759 50.7678 400.119 50.7678ZM400.119 36.5777C396.934 36.5777 394.343 39.1686 394.343 42.3535C394.343 45.5385 396.934 48.1281 400.119 48.1281C403.304 48.1281 405.893 45.5372 405.893 42.3535C405.894 39.1686 403.304 36.5777 400.119 36.5777Z" fill="#006BDE"/>
<path d="M473.539 36.4712C468.898 36.4712 465.123 32.6958 465.123 28.0556C465.123 23.4155 468.898 19.6401 473.539 19.6401C478.179 19.6401 481.954 23.4155 481.954 28.0556C481.954 32.6958 478.179 36.4712 473.539 36.4712ZM473.539 22.2811C470.354 22.2811 467.763 24.8719 467.763 28.0569C467.763 31.2419 470.354 33.8327 473.539 33.8327C476.722 33.8327 479.313 31.2419 479.313 28.0569C479.314 24.8707 476.724 22.2811 473.539 22.2811Z" fill="#009CF8"/>
<path d="M483.934 63.8171C483.206 63.8171 482.614 63.2267 482.614 62.4972V56.6763C482.614 55.9468 483.206 55.3564 483.934 55.3564C484.664 55.3564 485.254 55.9468 485.254 56.6763V62.4972C485.254 63.2255 484.664 63.8171 483.934 63.8171Z" fill="#006BDE"/>
<path d="M483.934 74.0039C483.206 74.0039 482.614 73.4135 482.614 72.684V66.8631C482.614 66.1336 483.206 65.5432 483.934 65.5432C484.664 65.5432 485.254 66.1336 485.254 66.8631V72.684C485.254 73.4135 484.664 74.0039 483.934 74.0039Z" fill="#006BDE"/>
<path d="M492.107 65.9993H486.877C486.148 65.9993 485.558 65.409 485.558 64.6795C485.558 63.95 486.149 63.3596 486.877 63.3596H492.107C492.835 63.3596 493.427 63.95 493.427 64.6795C493.427 65.409 492.836 65.9993 492.107 65.9993Z" fill="#006BDE"/>
<path d="M480.994 65.9993H475.764C475.036 65.9993 474.444 65.409 474.444 64.6795C474.444 63.95 475.036 63.3596 475.764 63.3596H480.994C481.723 63.3596 482.313 63.95 482.313 64.6795C482.313 65.409 481.723 65.9993 480.994 65.9993Z" fill="#006BDE"/>
<path d="M439.484 28.5522C438.754 28.5522 438.164 27.9606 438.164 27.2323V21.4114C438.164 20.6819 438.756 20.0916 439.484 20.0916C440.212 20.0916 440.804 20.6819 440.804 21.4114V27.2323C440.804 27.9606 440.213 28.5522 439.484 28.5522Z" fill="#1C31B5"/>
<path d="M439.484 38.739C438.754 38.739 438.164 38.1486 438.164 37.4191V31.5982C438.164 30.8687 438.756 30.2783 439.484 30.2783C440.212 30.2783 440.804 30.8687 440.804 31.5982V37.4191C440.804 38.1486 440.213 38.739 439.484 38.739Z" fill="#1C31B5"/>
<path d="M447.655 30.7362H442.425C441.697 30.7362 441.105 30.1445 441.105 29.4163C441.105 28.6868 441.697 28.0964 442.425 28.0964H447.655C448.384 28.0964 448.975 28.6868 448.975 29.4163C448.975 30.1445 448.384 30.7362 447.655 30.7362Z" fill="#1C31B5"/>
<path d="M436.542 30.7359H431.313C430.584 30.7359 429.993 30.1443 429.993 29.4161C429.993 28.6866 430.585 28.0962 431.313 28.0962H436.542C437.272 28.0962 437.862 28.6866 437.862 29.4161C437.863 30.1443 437.272 30.7359 436.542 30.7359Z" fill="#1C31B5"/>
<path d="M99.3369 20.9998C99.3369 16.3596 103.112 12.5842 107.752 12.5842C112.393 12.5842 116.168 16.3596 116.168 20.9998C116.168 25.6399 112.393 29.4153 107.752 29.4153C103.112 29.414 99.3369 25.6399 99.3369 20.9998ZM101.978 20.9998C101.978 24.1847 104.569 26.7743 107.752 26.7743C110.937 26.7743 113.527 24.1835 113.527 20.9998C113.527 17.8148 110.936 15.224 107.752 15.224C104.569 15.224 101.978 17.8148 101.978 20.9998Z" fill="#006BDE"/>
<path d="M65.543 53.0749C65.543 48.4347 69.3183 44.6594 73.9585 44.6594C78.5987 44.6594 82.374 48.4347 82.374 53.0749C82.374 57.7151 78.5987 61.4905 73.9585 61.4905C69.317 61.4905 65.543 57.7151 65.543 53.0749ZM68.1827 53.0749C68.1827 56.2599 70.7735 58.8495 73.9585 58.8495C77.1434 58.8495 79.733 56.2586 79.733 53.0749C79.733 49.89 77.1422 47.2991 73.9585 47.2991C70.7735 47.2991 68.1827 49.89 68.1827 53.0749Z" fill="#009CF8"/>
<path d="M48.0464 64.8837C48.7759 64.8837 49.3663 64.2934 49.3663 63.5639V57.7429C49.3663 57.0135 48.7747 56.4231 48.0464 56.4231C47.3182 56.4231 46.7266 57.0135 46.7266 57.7429V63.5639C46.7266 64.2934 47.3182 64.8837 48.0464 64.8837Z" fill="#006BDE"/>
<path d="M48.0464 75.0712C48.7759 75.0712 49.3663 74.4809 49.3663 73.7514V67.9305C49.3663 67.201 48.7747 66.6106 48.0464 66.6106C47.3182 66.6106 46.7266 67.201 46.7266 67.9305V73.7514C46.7266 74.4796 47.3182 75.0712 48.0464 75.0712Z" fill="#006BDE"/>
<path d="M39.8755 67.067H45.1048C45.8343 67.067 46.4247 66.4753 46.4247 65.7471C46.4247 65.0176 45.8331 64.4272 45.1048 64.4272H39.8755C39.1473 64.4272 38.5557 65.0176 38.5557 65.7471C38.5557 66.4753 39.1473 67.067 39.8755 67.067Z" fill="#006BDE"/>
<path d="M50.9878 67.0672H56.2171C56.9466 67.0672 57.537 66.4756 57.537 65.7473C57.537 65.0178 56.9454 64.4275 56.2171 64.4275H50.9878C50.2583 64.4275 49.668 65.0178 49.668 65.7473C49.668 66.4756 50.2596 67.0672 50.9878 67.0672Z" fill="#006BDE"/>
<path d="M78.4615 20.1357C79.1897 20.1357 79.7813 19.5453 79.7813 18.8158V12.9949C79.7813 12.2654 79.1897 11.675 78.4615 11.675C77.7332 11.675 77.1416 12.2654 77.1416 12.9949V18.8158C77.1416 19.5453 77.732 20.1357 78.4615 20.1357Z" fill="#1C31B5"/>
<path d="M78.4615 30.3237C79.1897 30.3237 79.7813 29.7333 79.7813 29.0038V23.1829C79.7813 22.4534 79.1897 21.863 78.4615 21.863C77.7332 21.863 77.1416 22.4546 77.1416 23.1829V29.0038C77.1416 29.7321 77.732 30.3237 78.4615 30.3237Z" fill="#1C31B5"/>
<path d="M70.2915 22.3197H75.5208C76.2491 22.3197 76.8407 21.7293 76.8407 20.9998C76.8407 20.2703 76.2491 19.6799 75.5208 19.6799H70.2915C69.5621 19.6799 68.9717 20.2716 68.9717 20.9998C68.9717 21.728 69.5621 22.3197 70.2915 22.3197Z" fill="#1C31B5"/>
<path d="M81.4048 22.3197H86.6341C87.3636 22.3197 87.954 21.7293 87.954 20.9998C87.954 20.2703 87.3624 19.6799 86.6341 19.6799H81.4048C80.6753 19.6799 80.085 20.2716 80.085 20.9998C80.085 21.728 80.6753 22.3197 81.4048 22.3197Z" fill="#1C31B5"/>
<path d="M330.119 21.604C329.966 21.6203 329.808 21.599 329.657 21.5351C328.055 20.8595 327.116 20.5436 327.106 20.5398C326.614 20.3756 326.35 19.8454 326.513 19.3541C326.677 18.8627 327.207 18.5983 327.699 18.7612C327.739 18.775 328.708 19.0996 330.385 19.8066C330.861 20.0084 331.085 20.5574 330.884 21.0349C330.747 21.3621 330.447 21.5689 330.119 21.604Z" fill="#BBE2F2"/>
<path d="M377.886 71.8774C378.524 73.5783 379.121 75.3318 379.661 77.0904C379.795 77.5253 380.217 77.7935 380.655 77.7472C380.714 77.7409 380.774 77.7284 380.833 77.7108C381.328 77.5591 381.605 77.034 381.453 76.5401C380.902 74.7452 380.293 72.9553 379.642 71.2206C379.46 70.7367 378.923 70.4911 378.436 70.6716C377.95 70.8521 377.704 71.3923 377.886 71.8774Z" fill="#BBE2F2"/>
<path d="M381.121 82.4001C381.551 84.1611 381.939 85.9736 382.276 87.7886C382.366 88.2724 382.813 88.6008 383.295 88.5494C383.319 88.5469 383.344 88.5431 383.367 88.5394C383.876 88.4441 384.212 87.9552 384.118 87.4464C383.776 85.5975 383.38 83.75 382.943 81.9551C382.82 81.4525 382.312 81.1441 381.809 81.267C381.307 81.3898 381 81.8974 381.121 82.4001Z" fill="#BBE2F2"/>
<path d="M385.074 110.705C385.539 110.656 385.904 110.266 385.911 109.788C385.94 107.907 385.927 106.02 385.871 104.178C385.856 103.661 385.424 103.255 384.906 103.27C384.382 103.288 383.982 103.717 383.997 104.235C384.053 106.047 384.065 107.906 384.038 109.759C384.03 110.276 384.442 110.703 384.96 110.71C384.999 110.711 385.037 110.709 385.074 110.705Z" fill="#BBE2F2"/>
<path d="M383.939 92.1834C383.425 92.2498 383.063 92.7199 383.13 93.2338C383.241 94.0811 383.341 94.9372 383.43 95.7782C383.533 96.7484 383.624 97.7398 383.7 98.7225C383.741 99.2389 384.192 99.6237 384.708 99.5836C384.717 99.5824 384.725 99.5824 384.733 99.5811C385.236 99.5285 385.608 99.0835 385.569 98.5759C385.49 97.5769 385.399 96.5691 385.295 95.5814C385.205 94.7253 385.102 93.8542 384.99 92.9919C384.925 92.4867 384.468 92.127 383.964 92.1809C383.955 92.1821 383.946 92.1821 383.939 92.1834Z" fill="#BBE2F2"/>
<path d="M375.795 66.7851C375.965 67.1648 376.357 67.3754 376.749 67.3341C376.845 67.324 376.941 67.299 377.034 67.2576C377.506 67.0458 377.718 66.4917 377.506 66.0192C376.743 64.312 375.916 62.6099 375.048 60.9616C374.808 60.5029 374.241 60.3274 373.782 60.568C373.325 60.8087 373.148 61.3753 373.389 61.834C374.239 63.4484 375.047 65.113 375.795 66.7851Z" fill="#BBE2F2"/>
<path d="M334.635 23.8651C336.244 24.6874 337.869 25.5823 339.463 26.5262C339.644 26.6327 339.846 26.6728 340.039 26.6515C340.323 26.6214 340.59 26.4622 340.748 26.1965C341.011 25.7515 340.865 25.1762 340.42 24.913C338.793 23.9491 337.133 23.0354 335.49 22.1956C335.03 21.9612 334.465 22.1429 334.229 22.6042C333.992 23.0642 334.174 23.6282 334.635 23.8651Z" fill="#BBE2F2"/>
<path d="M348.603 32.6906C348.801 32.8422 349.041 32.9024 349.27 32.8773C349.517 32.851 349.754 32.7269 349.917 32.5138C350.231 32.1027 350.152 31.5136 349.74 31.2002C348.256 30.0671 346.719 28.9641 345.173 27.92C344.743 27.6305 344.161 27.7433 343.871 28.1732C343.582 28.6019 343.695 29.1847 344.125 29.4743C345.641 30.4971 347.148 31.58 348.603 32.6906Z" fill="#BBE2F2"/>
<path d="M364.353 48.0363C364.56 48.2957 364.877 48.4148 365.184 48.3822C365.356 48.3634 365.525 48.2982 365.671 48.1817C366.074 47.8583 366.141 47.2679 365.816 46.8643C364.651 45.4104 363.423 43.9702 362.165 42.5864C361.817 42.2028 361.225 42.174 360.841 42.5224C360.458 42.8709 360.43 43.4638 360.778 43.8461C362.009 45.2023 363.213 46.6124 364.353 48.0363Z" fill="#BBE2F2"/>
<path d="M356.949 39.8864C357.157 40.0882 357.434 40.1747 357.702 40.1472C357.913 40.1246 358.116 40.0318 358.275 39.8689C358.636 39.4979 358.627 38.905 358.257 38.544C356.925 37.2467 355.529 35.9695 354.108 34.7449C353.716 34.4064 353.124 34.4516 352.787 34.8426C352.449 35.235 352.493 35.8266 352.885 36.1638C354.275 37.3633 355.643 38.6155 356.949 39.8864Z" fill="#BBE2F2"/>
<path d="M370.674 57.0461C370.87 57.3657 371.224 57.5274 371.573 57.4898C371.707 57.476 371.84 57.4321 371.963 57.3582C372.404 57.0887 372.544 56.5109 372.274 56.0697C371.301 54.4765 370.264 52.8935 369.193 51.3643C368.896 50.9406 368.311 50.8378 367.887 51.1349C367.463 51.432 367.36 52.0173 367.657 52.441C368.706 53.9376 369.722 55.4868 370.674 57.0461Z" fill="#BBE2F2"/>
<path d="M330.099 15.1913L334.201 -0.000244141L283.941 0.430928L330.099 15.1913Z" fill="#009CF8"/>
<path d="M283.941 0.429932L327.66 18.8591L327.775 18.9092L329.656 22.024L330.099 15.1916L283.941 0.429932Z" fill="#006BDE"/>
<path d="M329.656 22.0237L325.581 21.3819L327.775 18.9089L329.656 22.0237Z" fill="#006BDE"/>
<path d="M322.275 16.5891L327.776 18.9079L316.447 31.6741L283.941 0.431152L322.275 16.5891Z" fill="#009CF8"/>
<path d="M561.21 414.865V415.781C561.21 421.063 556.926 425.347 551.642 425.347H55.3494C50.0637 425.347 45.7832 421.063 45.7832 415.781V414.865C45.7832 409.583 50.0637 405.298 55.3494 405.298H551.642C556.927 405.3 561.21 409.583 561.21 414.865Z" fill="#1C31B5"/>
<path d="M561.21 414.865V415.322H45.7832V414.865C45.7832 409.583 50.0637 405.298 55.3494 405.298H551.642C556.927 405.3 561.21 409.583 561.21 414.865Z" fill="#006BDE"/>
<path d="M379.448 375.205H223.539C219.813 375.205 216.794 372.185 216.794 368.46V286.891C216.794 283.166 219.813 280.146 223.539 280.146H379.446C383.171 280.146 386.191 283.166 386.191 286.891V368.46C386.192 372.185 383.172 375.205 379.448 375.205Z" fill="#18315B"/>
<path d="M314.612 375.097H288.377V405.005H314.612V375.097Z" fill="#000B29"/>
<path d="M301.2 341.861C308.391 341.861 314.221 336.032 314.221 328.841C314.221 321.65 308.391 315.82 301.2 315.82C294.009 315.82 288.18 321.65 288.18 328.841C288.18 336.032 294.009 341.861 301.2 341.861Z" fill="#1D567E"/>
<path d="M334.908 405.004H267.238V402.724C267.238 398.124 270.967 394.394 275.567 394.394H326.578C331.178 394.394 334.907 398.123 334.907 402.724V405.004H334.908Z" fill="#18315B"/>
</g>
<defs>
<clipPath id="clip0_99_6">
<rect width="600" height="425" fill="white"/>
</clipPath>
</defs>
</svg>
